<?xml version="1.0" encoding="utf-8"?>
<!-- Generator: Adobe Illustrator 24.1.1, SVG Export Plug-In . SVG Version: 6.00 Build 0)  -->
<svg version="1.1" id="Layer_1" xmlns="http://www.w3.org/2000/svg" xmlns:xlink="http://www.w3.org/1999/xlink" x="0px" y="0px"
	 viewBox="0 0 36 36" style="enable-background:new 0 0 36 36;" xml:space="preserve">
<style type="text/css">
	.st0{display:none;}
	.st1{display:inline;fill:#999999;}
	.st2{fill:none;}
	.st3{fill:#808080;}
</style>
<g class="st0">
	<rect x="-569" y="-211.5" class="st1" width="1280" height="1310.4"/>
</g>
<g>
	<path class="st2" d="M17.2,19.6c-0.2-0.1-0.4,0-0.5,0.1l-2.7,2.7c-1,1-2.8,1-3.7,0l-2.8-2.6c-0.1-0.1-0.4-0.2-0.5-0.1
		c-2.4,0.9-4,3.1-4,5.7v4h18.1v-4.1C21.2,22.8,19.6,20.6,17.2,19.6z"/>
	<path class="st2" d="M12.1,15c2.3,0,4.2-1.9,4.2-4.2s-1.8-4.2-4.2-4.2c-2.3,0-4.2,1.9-4.2,4.2S9.8,15,12.1,15z"/>
	<path class="st3" d="M12.1,17.1c3.5,0,6.4-2.8,6.4-6.4s-2.8-6.4-6.4-6.4s-6.4,2.8-6.4,6.4C5.7,14.3,8.6,17.1,12.1,17.1z M12.1,6.6
		c2.3,0,4.2,1.9,4.2,4.2S14.4,15,12.1,15s-4.2-1.9-4.2-4.2S9.8,6.6,12.1,6.6z"/>
	<path class="st3" d="M23.4,30.5v-5.1c0-3.4-2.2-6.6-5.4-7.7c-0.9-0.4-2.1-0.1-2.8,0.7L12.6,21c-0.2,0.2-0.5,0.2-0.7,0l-2.7-2.7
		c-0.8-0.8-1.8-0.9-2.8-0.7c-3.4,1-5.6,4.2-5.6,7.6v5.1c0,0.6,0.5,1,1,1h20.3C22.8,31.6,23.4,31.1,23.4,30.5z M21.2,29.4H3.1v-4.1
		c0-2.6,1.6-4.8,4-5.7c0.2-0.1,0.4,0,0.5,0.1l2.7,2.7c1,1,2.8,1,3.7,0l2.7-2.7c0.1-0.1,0.4-0.2,0.5-0.1c2.4,0.9,4,3.1,4,5.7
		L21.2,29.4L21.2,29.4z"/>
	<path class="st3" d="M22.8,15.1c-0.6,0-1,0.5-1,1c0,0.6,0.5,1,1,1h4.5v4.6c0,0.6,0.5,1,1,1c0.6,0,1-0.5,1-1v-4.5h4.5
		c0.6,0,1-0.5,1-1c0-0.6-0.5-1-1-1h-4.5v-4.5c0-0.6-0.5-1-1-1c-0.6,0-1,0.5-1,1v4.4H22.8z"/>
</g>
</svg>
