<?xml version="1.0" encoding="utf-8"?>
<!-- Generator: Adobe Illustrator 24.1.1, SVG Export Plug-In . SVG Version: 6.00 Build 0)  -->
<svg version="1.1"
	 id="Layer_1" xmlns:cc="http://creativecommons.org/ns#" xmlns:dc="http://purl.org/dc/elements/1.1/" xmlns:inkscape="http://www.inkscape.org/namespaces/inkscape" xmlns:rdf="http://www.w3.org/1999/02/22-rdf-syntax-ns#" xmlns:sodipodi="http://sodipodi.sourceforge.net/DTD/sodipodi-0.dtd" xmlns:svg="http://www.w3.org/2000/svg"
	 xmlns="http://www.w3.org/2000/svg" xmlns:xlink="http://www.w3.org/1999/xlink" x="0px" y="0px" viewBox="0 0 36 36"
	 style="enable-background:new 0 0 36 36;" xml:space="preserve">
<style type="text/css">
	.st0{fill:#808080;}
</style>
<g transform="translate(0,-952.36218)">
	<path class="st0" d="M4.3,958.8c-1.8,0-3.3,1.5-3.3,3.3v16.6c0,1.8,1.5,3.3,3.3,3.3h27.4c1.8,0,3.3-1.5,3.3-3.3v-16.6
		c0-1.8-1.5-3.3-3.3-3.3H4.3L4.3,958.8z M4.3,960.4h27.4c0.3,0,0.5,0.1,0.7,0.2L19,972.5c-0.7,0.6-1.4,0.6-2.1,0L3.6,960.6
		C3.8,960.5,4.1,960.4,4.3,960.4L4.3,960.4z M2.7,961.9l9.5,8.5l-9.4,9c-0.1-0.2-0.2-0.5-0.2-0.8L2.7,961.9
		C2.7,962,2.7,962,2.7,961.9L2.7,961.9z M33.3,961.9c0,0.1,0,0.1,0,0.2v16.6c0,0.3-0.1,0.6-0.2,0.8l-9.3-9L33.3,961.9L33.3,961.9z
		 M22.5,971.5l9.2,8.8l0,0H4.3l0,0l9.2-8.8l2.5,2.2c1.2,1,3,1,4.3,0L22.5,971.5L22.5,971.5z"/>
</g>
</svg>
