<svg xmlns="http://www.w3.org/2000/svg" width="10.284" height="10" viewBox="0 0 10.284 10">
    <defs>
        <style>.a{fill:none;}.b,.c{fill:#ffffff;}.b{fill-rule:evenodd;}</style>
    </defs>
    <rect class="a" width="6.812" height="6.816" transform="translate(1.738 1.597)" />
    <g transform="translate(0 0)">
        <path class="b" d="M5.793,11.839l.145-.058a1.149,1.149,0,0,1,1.307.2l1.481,1.481a.151.151,0,0,1,.058.116.26.26,0,0,1-.174.349L7.245,14.4a3.05,3.05,0,0,1-3.137-.726l-3.37-3.4A2.482,2.482,0,0,1,.274,7.423l.61-1.249c0-.029.029-.058.058-.087a.281.281,0,0,1,.407,0l1.54,1.54a1.1,1.1,0,0,1,.2,1.307l-.058.145a1.149,1.149,0,0,0,.2,1.307l1.249,1.249A1.1,1.1,0,0,0,5.793,11.839Z" transform="translate(-0.017 -4.559)" />
        <path class="c" d="M15.97,3.93A3.921,3.921,0,0,1,17.1,7.1L15.97,6.98A2.821,2.821,0,0,0,12.89,3.9l-.116-1.133A4.068,4.068,0,0,1,15.97,3.93Zm1.6-1.6a6.318,6.318,0,0,1,1.8,4.967l-1.133-.116a5.111,5.111,0,0,0-1.452-4.067,5.041,5.041,0,0,0-4.067-1.452L12.6.531A6.122,6.122,0,0,1,17.567,2.332Z" transform="translate(-9.105 -0.503)" />
    </g>
</svg>