<svg id="Layer_1" data-name="Layer 1" xmlns="http://www.w3.org/2000/svg" viewBox="0 0 36 36"><title>List</title><path d="M26.71,13.22a1.11,1.11,0,0,0-2.22,0,1.18,1.18,0,0,0,.23.69l-2.34,6.26L20,14.77a1.16,1.16,0,0,0,.24-.63,1.12,1.12,0,0,0-2.23,0,1.7,1.7,0,0,0,.12.52l-2.57,4.47-1.11-1.6c0-.12.06-.17.06-.29a1.11,1.11,0,0,0-1.12-1.09,1.14,1.14,0,0,0-1.11,1.09,1.31,1.31,0,0,0,.12.46L10.1,21.89A1.17,1.17,0,0,0,9.16,23a1.12,1.12,0,0,0,2.23,0,1.08,1.08,0,0,0-.12-.46l2.16-4,1.64,2.36a.73.73,0,0,0,.58.28.78.78,0,0,0,.59-.34l2.69-4.94,2.87,6.43a.71.71,0,0,0,.64.4.68.68,0,0,0,.64-.45l3-8A1.19,1.19,0,0,0,26.71,13.22Z"/><path d="M28.4,29.12h-21a2,2,0,0,1-2-1.95V9a2,2,0,0,1,2-2h21a2,2,0,0,1,2,2v18.2A2,2,0,0,1,28.4,29.12ZM7.82,26.77H27.94V9.43H7.82Z"/><path d="M1.09,21.55l2.69-5.74v9.3l-1.63-.69A2.12,2.12,0,0,1,1.09,21.55Z"/><path d="M19.57,5.47H8.64l1-2.12a2.16,2.16,0,0,1,2.87-1Z"/><path d="M16.18,30.73H27.12l-1,2.13a2.14,2.14,0,0,1-2.86,1Z"/><path d="M34.66,14.66,32,20.4V11l1.64.75A2.12,2.12,0,0,1,34.66,14.66Z"/></svg>