<svg xmlns="http://www.w3.org/2000/svg" width="11.077" height="10" viewBox="0 0 11.077 10"><defs><style>.a,.b{fill:#207ebb;}.a{opacity:0.3;}</style></defs><g transform="translate(0 -1.8)"><path class="a" d="M10.338,2.846H8.923V1.8H8.215V2.846H2.862V1.8H2.185V2.846H.738A.749.749,0,0,0,0,3.585v7.477a.749.749,0,0,0,.738.738h9.6a.749.749,0,0,0,.738-.738V3.585A.749.749,0,0,0,10.338,2.846Z"/><path class="b" d="M13.69,16.578l-1.636-1.265-1.636,1.265.617-2.037L9.4,13.306h2.037l.617-2.006.617,2.006h2.037l-1.636,1.235Z" transform="translate(-6.516 -6.587)"/></g></svg>