<svg xmlns="http://www.w3.org/2000/svg" width="8.182" height="10" viewBox="0 0 8.182 10">
  <g id="Group_72" data-name="Group 72" transform="translate(-966 -72)">
    <path id="Combined-Shape-Copy" d="M3.857,1H7.032a.7.7,0,0,1,.447.161l2.2,1.829a.676.676,0,0,1,.245.52v5.7c0,.813-.009.87-.857.87H3.857c-.848,0-.857-.057-.857-.87V1.87C3,1.057,3.009,1,3.857,1Zm1.45,4.992a.454.454,0,1,0,0,.908h3.23a.454.454,0,1,0,0-.908Zm0,1.815a.454.454,0,1,0,0,.908H6.692a.454.454,0,1,0,0-.908Z" transform="translate(963 71)" fill="#207ebb" opacity="0.3"/>
    <path id="Combined-Shape" d="M5.843,3H9.417a.68.68,0,0,1,.439.161L12.018,4.99a.681.681,0,0,1,.241.52v5.7c0,.813-.009.87-.843.87H5.843c-.833,0-.843-.057-.843-.87V3.87C5,3.057,5.009,3,5.843,3Zm.518,4.085a.454.454,0,0,0,0,.908H9.537a.454.454,0,0,0,0-.908Zm0,1.815a.454.454,0,0,0,0,.908H7.722a.454.454,0,0,0,0-.908Z" transform="translate(961.923 69.923)" fill="#207ebb"/>
  </g>
</svg>
