<svg xmlns="http://www.w3.org/2000/svg" width="13.333" height="10" viewBox="0 0 13.333 10"><defs><style>.a{fill:#207ebb;}.b{opacity:0.3;}</style></defs><g transform="translate(0 -4.5)"><path class="a" d="M28.678,11.856H27.456V10.633a.332.332,0,0,0-.333-.333h-.333a.332.332,0,0,0-.333.333v1.222H25.233a.332.332,0,0,0-.333.333v.333a.332.332,0,0,0,.333.333h1.222v1.222a.332.332,0,0,0,.333.333h.333a.332.332,0,0,0,.333-.333V12.856h1.222a.332.332,0,0,0,.333-.333v-.333A.332.332,0,0,0,28.678,11.856Z" transform="translate(-15.678 -3.652)"/><g class="b" transform="translate(0 4.5)"><path class="a" d="M5.441,9.815A1.636,1.636,0,0,0,6.478,9.37,3.618,3.618,0,0,1,6,7.63a2.884,2.884,0,0,1,.333-1.37A1.783,1.783,0,0,0,5.441,6,1.739,1.739,0,0,0,3.7,7.741,2.087,2.087,0,0,0,5.441,9.815Z" transform="translate(-2.33 -5.444)"/><path class="a" d="M4.3,18.374a2.5,2.5,0,0,0-.519-.074h-1.3A2.482,2.482,0,0,0,0,20.781v.3a.7.7,0,0,0,.7.7H1.963A3.932,3.932,0,0,1,4.3,18.374Z" transform="translate(0 -13.189)"/><path class="a" d="M14.348,9.241A2.509,2.509,0,0,0,16.5,6.685,2.182,2.182,0,0,0,14.348,4.5,2.158,2.158,0,0,0,12.2,6.685,2.536,2.536,0,0,0,14.348,9.241Z" transform="translate(-7.681 -4.5)"/><path class="a" d="M15.341,22.974A3.067,3.067,0,0,0,12.267,19.9H10.674A3.067,3.067,0,0,0,7.6,22.974v.37a.838.838,0,0,0,.852.852h6.037a.838.838,0,0,0,.852-.852Z" transform="translate(-4.785 -14.196)"/></g></g></svg>