<svg xmlns="http://www.w3.org/2000/svg" width="7.273" height="10" viewBox="0 0 7.273 10">
  <g id="Group_73" data-name="Group 73" transform="translate(-970 -96)">
    <path id="Path_177" data-name="Path 177" d="M5.818,3v.225A.678.678,0,0,0,6.5,3.9H8.773a.678.678,0,0,0,.682-.675V3h.909a.9.9,0,0,1,.909.9v7.2a.9.9,0,0,1-.909.9H4.909A.9.9,0,0,1,4,11.1V3.9A.9.9,0,0,1,4.909,3Z" transform="translate(966 94)" fill="#207ebb" fill-rule="evenodd" opacity="0.3"/>
    <path id="Path_178" data-name="Path 178" d="M9.438,12.875a.473.473,0,0,1-.335-.144l-.958-.958a.474.474,0,0,1,.671-.671l.623.623,1.581-1.581a.474.474,0,0,1,.671.671L9.773,12.731A.473.473,0,0,1,9.438,12.875Z" transform="translate(963.651 89.946)" fill="#207ebb" fill-rule="evenodd"/>
    <path id="Path_179" data-name="Path 179" d="M10,1.5a.5.5,0,0,1,1,0h.75a.25.25,0,0,1,.25.25v.5a.25.25,0,0,1-.25.25H9.25A.25.25,0,0,1,9,2.25v-.5a.25.25,0,0,1,.25-.25Z" transform="translate(963.136 95)" fill="#207ebb" fill-rule="evenodd"/>
  </g>
</svg>
