<svg xmlns="http://www.w3.org/2000/svg" width="10.119" height="10" viewBox="0 0 10.119 10"><defs><style>.a{fill:#207ebb;}</style></defs><path class="a" d="M7.048,4.008a.256.256,0,0,0-.028-.337.3.3,0,0,0-.309,0L2.528,7.237.31,6.394A.539.539,0,0,1,0,5.692a.615.615,0,0,1,.253-.281L9.407.273a.461.461,0,0,1,.618.2.377.377,0,0,1,.056.253L9.267,9.09a.566.566,0,0,1-.618.505c-.056,0-.112-.028-.168-.028l-2.7-1.039L4.1,10.1a.418.418,0,0,1-.618-.028.422.422,0,0,1-.112-.309V8.528Z" transform="translate(0.038 -0.224)"/></svg>