<svg xmlns="http://www.w3.org/2000/svg" width="34" height="33.98" viewBox="0 0 34 33.98" style="&#10;    fill: gray;&#10;">
  <g id="Add_URL" data-name="Add URL" transform="translate(-9.4 -9.5)">
    <g id="Group_8" data-name="Group 8" transform="translate(9.4 9.5)">
      <path id="Path_17" data-name="Path 17" d="M29.872,29.888a9.747,9.747,0,0,0,2.1-3.272,1.444,1.444,0,0,0-.881-1.888,1.514,1.514,0,0,0-1.133.042,1.489,1.489,0,0,0-.755.839,5.977,5.977,0,0,1-9.816,2.223L14.1,22.589a5.934,5.934,0,0,1-1.72-4.2,5.915,5.915,0,0,1,10.11-4.2L27.4,19.107a1.389,1.389,0,0,0,1.091.42,1.293,1.293,0,0,0,.965-.42,1.337,1.337,0,0,0,.42-1.091,1.293,1.293,0,0,0-.42-.965L24.586,12.1a8.818,8.818,0,0,0-6.293-2.6h-.042A8.88,8.88,0,0,0,9.4,18.394,8.963,8.963,0,0,0,12,24.686l5.244,5.2a8.818,8.818,0,0,0,6.293,2.6A9.061,9.061,0,0,0,29.872,29.888Z" transform="translate(-9.4 -9.5)"/>
      <path id="Path_18" data-name="Path 18" d="M56.644,43.5l-5.286-5.2a8.818,8.818,0,0,0-6.293-2.6,8.963,8.963,0,0,0-6.293,2.6,9.747,9.747,0,0,0-2.1,3.272,1.514,1.514,0,0,0,.042,1.133,1.489,1.489,0,0,0,.839.755,1.444,1.444,0,0,0,1.888-.881,6.521,6.521,0,0,1,1.426-2.223,5.934,5.934,0,0,1,4.2-1.72,6.008,6.008,0,0,1,4.2,1.72L54.5,45.6a5.934,5.934,0,0,1,1.72,4.2,6.008,6.008,0,0,1-1.72,4.2,5.683,5.683,0,0,1-4.111,1.762h-.042a5.91,5.91,0,0,1-4.153-1.72l-4.992-4.908a1.337,1.337,0,0,0-1.091-.42,1.293,1.293,0,0,0-.965.42,1.337,1.337,0,0,0-.42,1.091,1.293,1.293,0,0,0,.42.965l4.908,4.908a8.818,8.818,0,0,0,6.293,2.6,8.963,8.963,0,0,0,6.293-2.6,8.818,8.818,0,0,0,2.6-6.293A9.147,9.147,0,0,0,56.644,43.5Z" transform="translate(-25.245 -24.709)"/>
    </g>
  </g>
</svg>
