<svg id="Layer_1" data-name="Layer 1" xmlns="http://www.w3.org/2000/svg" viewBox="0 0 36 36"><title>List</title><path d="M27.3,5.57H25.45a.26.26,0,0,0-.26.26V6.7a1.92,1.92,0,0,1-1.91,1.93H23.1a2,2,0,0,1-1.73-2V5.83a.26.26,0,0,0-.26-.26H11.25a.26.26,0,0,0-.26.26v.81a2,2,0,0,1-1.73,2A1.92,1.92,0,0,1,7.18,6.88a1.09,1.09,0,0,1,0-.18V5.83a.26.26,0,0,0-.26-.26H5.22A4.27,4.27,0,0,0,1,9.86V29.47A2.47,2.47,0,0,0,3.43,32H19.6a.28.28,0,0,0,.28-.29.28.28,0,0,0-.06-.18,9.43,9.43,0,0,1-.89-1.28.27.27,0,0,0-.24-.14H4.09A1.06,1.06,0,0,1,3,29V13.14a1.06,1.06,0,0,1,1.06-1.08H28.43a1.08,1.08,0,0,1,1.06,1.08V16a.27.27,0,0,0,.2.27,9.44,9.44,0,0,1,1.45.56.29.29,0,0,0,.38-.14.5.5,0,0,0,0-.12V9.86a4.26,4.26,0,0,0-4.23-4.29Z"/><path d="M14.16,15.22h3.41a.21.21,0,0,1,.18.23v2.44a.21.21,0,0,1-.18.23H14.16c-.09,0-.17-.1-.17-.23V15.45C14,15.32,14.07,15.22,14.16,15.22Z"/><path d="M7.19,15.22H10.6c.1,0,.17.1.17.23v2.44c0,.13-.07.23-.17.23H7.19c-.09,0-.17-.1-.17-.23V15.45C7,15.32,7.1,15.22,7.19,15.22Z"/><path d="M14.16,19.84h3.41c.1,0,.18.11.18.24v2.43a.21.21,0,0,1-.18.23H14.16c-.09,0-.17-.1-.17-.23V20.08C14,20,14.07,19.84,14.16,19.84Z"/><path d="M14.16,24.36h3.41c.1,0,.18.11.18.24V27a.21.21,0,0,1-.18.23H14.16c-.09,0-.17-.1-.17-.23V24.6C14,24.47,14.07,24.36,14.16,24.36Z"/><path d="M7.19,19.84H10.6c.1,0,.17.11.17.24v2.43c0,.13-.07.23-.17.23H7.19c-.09,0-.17-.1-.17-.23V20.08C7,20,7.1,19.84,7.19,19.84Z"/><path d="M7.19,24.36H10.6c.1,0,.17.11.17.24V27c0,.13-.07.23-.17.23H7.19c-.09,0-.17-.1-.17-.23V24.6C7,24.47,7.1,24.36,7.19,24.36Z"/><path d="M24.72,15.45v.46A6,6,0,0,0,21,17.84V15.45c0-.13.07-.23.17-.23h3.42C24.64,15.22,24.72,15.32,24.72,15.45Z"/><path d="M9.08,2.79A1.13,1.13,0,0,0,8,3.92v2.8a1.12,1.12,0,1,0,2.23,0V3.92A1.12,1.12,0,0,0,9.08,2.79Z"/><path d="M23.2,2.79a1.13,1.13,0,0,0-1.12,1.13h0v2.8a1.12,1.12,0,1,0,2.23,0V3.92A1.12,1.12,0,0,0,23.2,2.79Z"/><path d="M33.79,21.17a8.55,8.55,0,0,0-1-1.28,8.41,8.41,0,0,0-1.14-1h0a7.86,7.86,0,0,0-10.09.69c-.23.23-.44.46-.65.71a8.08,8.08,0,0,0,1,11.29,7.85,7.85,0,0,0,5.09,1.85,8,8,0,0,0,7.92-8A8.09,8.09,0,0,0,33.79,21.17Zm-2.32,9a6.32,6.32,0,0,1-3.76,1.74v-1a.65.65,0,0,0-.6-.71.67.67,0,0,0-.71.61v1.1a6.45,6.45,0,0,1-5.73-5.8h1a.66.66,0,0,0,.1-1.32H20.68a6.56,6.56,0,0,1,1.14-3.11,7.52,7.52,0,0,1,.83-1,6.38,6.38,0,0,1,3.75-1.74v1a.67.67,0,0,0,.61.71.65.65,0,0,0,.7-.61v-1.1a6.45,6.45,0,0,1,5.73,5.8h-1a.67.67,0,0,0,0,1.33h1A6.47,6.47,0,0,1,31.47,30.12Z"/><path d="M30.93,26.66,27.67,25V22.34a.61.61,0,0,0-.55-.65.6.6,0,0,0-.64.56.14.14,0,0,0,0,.09v3.44l3.92,2a.66.66,0,0,0,.27.06.6.6,0,0,0,.26-1.14Z"/></svg>