<svg xmlns="http://www.w3.org/2000/svg" width="47.35" height="47.35" viewBox="0 0 47.35 47.35"><defs><style>.a{fill:#e8e8e8;}</style></defs><path class="a" d="M23.675,0A23.675,23.675,0,1,0,47.35,23.675,23.745,23.745,0,0,0,23.675,0Zm0,10h0a5.787,5.787,0,1,1-5.787,5.787A5.754,5.754,0,0,1,23.675,10Zm10.917,24.07h-1.71a9.207,9.207,0,0,0-18.414,0h-1.71a10.917,10.917,0,0,1,21.834,0Z"/><path class="a" d="M18.977,17.055A4.077,4.077,0,1,0,14.9,12.977,4.1,4.1,0,0,0,18.977,17.055Z" transform="translate(4.698 2.806)"/></svg>