<svg id="Layer_1" data-name="Layer 1" xmlns="http://www.w3.org/2000/svg" viewBox="0 0 32 25.95"><g id="ic_format_list_bulleted_48px" data-name="ic format list bulleted 48px"><path id="Path_17" data-name="Path 17" d="M4.59,15.41A2.59,2.59,0,1,0,7.19,18,2.59,2.59,0,0,0,4.59,15.41ZM4.59,5a2.6,2.6,0,1,0,2.6,2.59A2.59,2.59,0,0,0,4.59,5Zm0,20.75a2.6,2.6,0,1,0,2.6,2.6A2.6,2.6,0,0,0,4.59,25.78Zm5.19,4.33H34V26.65H9.78Zm0-10.38H34V16.27H9.78Zm0-13.84V9.35H34V5.89Z" transform="translate(-2 -5.03)"/></g></svg>