<svg id="Layer_1" data-name="Layer 1" xmlns="http://www.w3.org/2000/svg" viewBox="0 0 36 36"><path d="M31,3.66H29.4V1H26.77V3.66H9.23V1H6.58V3.66H5a4,4,0,0,0-4,4V31a4,4,0,0,0,4,4H31a4,4,0,0,0,4-4V7.64A4,4,0,0,0,31,3.66Zm0,28.68H5A1.32,1.32,0,0,1,3.66,31V13.48H32.34V31A1.32,1.32,0,0,1,31,32.34Zm1.32-21.51H3.66V7.64A1.34,1.34,0,0,1,5,6.31H6.6V9H9.23V6.31H26.77V9h2.65V6.31H31a1.33,1.33,0,0,1,1.32,1.33Z"/><rect x="6.05" y="16.27" width="2.66" height="2.66"/><rect x="11.36" y="16.27" width="2.66" height="2.66"/><rect x="16.67" y="16.27" width="2.66" height="2.66"/><rect x="21.98" y="16.27" width="2.66" height="2.66"/><rect x="27.3" y="16.27" width="2.66" height="2.66"/><rect x="6.05" y="21.59" width="2.66" height="2.66"/><rect x="11.36" y="21.59" width="2.66" height="2.66"/><rect x="16.67" y="21.59" width="2.66" height="2.66"/><rect x="21.98" y="21.59" width="2.66" height="2.66"/><rect x="6.05" y="26.9" width="2.66" height="2.66"/><rect x="11.36" y="26.9" width="2.66" height="2.66"/><rect x="16.67" y="26.9" width="2.66" height="2.66"/><rect x="21.98" y="26.9" width="2.66" height="2.66"/><rect x="27.3" y="21.59" width="2.66" height="2.66"/></svg>