<svg xmlns="http://www.w3.org/2000/svg" xmlns:xlink="http://www.w3.org/1999/xlink" version="1.1" id="Layer_1" x="0px" y="0px" viewBox="0 0 36 36" style="enable-background:new 0 0 36 36;" xml:space="preserve">
<style type="text/css">
	.st0{fill:#959cb6;}
</style>
<path class="st0" d="M5,35h26c2.2,0,4-1.8,4-4V9.1c0-2.2-1.8-4-4-4h-2.6v-3c0-0.7-0.5-1.1-1.1-1.1S26,1.5,26,2.1v2.9H10V2.1  C10,1.5,9.4,1,8.8,1C8.3,1,7.7,1.5,7.7,2.1v2.9H5c-2.2,0-4,1.8-4,4.1V31C1,33.2,2.8,35,5,35z M31,32.7H5C4,32.7,3.3,32,3.3,31V15.4  h29.5v15.5C32.7,32,32,32.7,31,32.7z M5,7.3h2.6v2.5c0,0.7,0.5,1.1,1.1,1.1s1.1-0.5,1.1-1.1V7.3H26v2.5c0,0.7,0.5,1.1,1.1,1.1  s1.1-0.5,1.1-1.1V7.3h2.6c0.9,0,1.7,0.8,1.7,1.7v4.2H3.3V9.1C3.3,8.1,4,7.3,5,7.3z"/>
</svg>
