<svg xmlns="http://www.w3.org/2000/svg" width="10.526" height="10" viewBox="0 0 10.526 10"><defs><style>.a,.b{fill:#207ebb;}.b{opacity:0.3;}</style></defs><path class="a" d="M16.526,0A.528.528,0,0,0,16,.526V2.1a.526.526,0,1,0,1.052,0V.526A.528.528,0,0,0,16.526,0Z" transform="translate(-13.895)"/><path class="a" d="M56.526,0A.528.528,0,0,0,56,.526V2.1a.526.526,0,1,0,1.052,0V.526A.528.528,0,0,0,56.526,0Z" transform="translate(-48.631)"/><path class="b" d="M.526,10A.528.528,0,0,0,0,10.526V12.1H10.526V10.526A.528.528,0,0,0,10,10H8.684v.789a.789.789,0,0,1-1.579,0V10H3.421v.789a.789.789,0,0,1-1.579,0V10Z" transform="translate(0 -8.685)"/><path class="a" d="M0,28v5.786a.528.528,0,0,0,.526.526H10a.528.528,0,0,0,.526-.526V28Z" transform="translate(0 -24.312)"/></svg>