<svg xmlns="http://www.w3.org/2000/svg" width="9.67" height="10.204" viewBox="0 0 9.67 10.204"><defs><style>.a{fill:#959cb6;}</style></defs><path class="a" d="M7.8,10.135a4.585,4.585,0,0,1-1.921-.763A10.682,10.682,0,0,1,4.066,7.789a20.252,20.252,0,0,1-1.921-2.2,6.9,6.9,0,0,1-1.1-2.063A3,3,0,0,1,.9,2.025a2.855,2.855,0,0,1,.848-1.5A2.263,2.263,0,0,1,2.342.1a.778.778,0,0,1,.819,0A2.944,2.944,0,0,1,4.4,1.6a.583.583,0,0,1-.057.565c-.141.2-.311.4-.452.593a3.6,3.6,0,0,0-.367.537.513.513,0,0,0,0,.565c.283.4.565.819.876,1.215A15.433,15.433,0,0,0,6.3,7.026a3.085,3.085,0,0,0,.48.367.433.433,0,0,0,.48.057,4.572,4.572,0,0,0,.509-.283c.226-.141.452-.283.678-.452a.612.612,0,0,1,.622,0,3.233,3.233,0,0,1,1.356,1.328.815.815,0,0,1-.085.932,2.811,2.811,0,0,1-2.232,1.215C8.022,10.163,7.909,10.163,7.8,10.135Z" transform="translate(-0.862 0.013)"/></svg>