<?xml version="1.0" encoding="utf-8"?>
<!-- Generator: Adobe Illustrator 24.0.2, SVG Export Plug-In . SVG Version: 6.00 Build 0)  -->
<svg version="1.1" id="Layer_1" xmlns="http://www.w3.org/2000/svg" xmlns:xlink="http://www.w3.org/1999/xlink" x="0px" y="0px"
	 viewBox="0 0 72 72" style="enable-background:new 0 0 72 72;" xml:space="preserve">
<defs><style>.a{fill:#ffffff;}</style></defs>
<g>
	<g>
		<path class="a" d="M66,66.2H6.4c-3.6,0-6.4-2.8-6.4-6.4V23.3c0-3.6,2.8-6.4,6.4-6.4h11.1c1.2,0,2.4-0.9,2.6-2.1l1.2-4.5
			c0.7-2.6,3.3-4.5,6.2-4.5h17c2.8,0,5.4,1.9,6.2,4.5l1.2,4.5c0.2,1.2,1.4,2.1,2.6,2.1h11.1c3.6,0,6.4,2.8,6.4,6.4v36.4
			C72.4,63.3,69.3,66.2,66,66.2z M6.4,20.5c-1.7,0-2.8,1.2-2.8,2.8v36.4c0,1.7,1.2,2.8,2.8,2.8h59.4c1.7,0,2.8-1.2,2.8-2.8V23.3
			c0-1.7-1.2-2.8-2.8-2.8H54.7c-2.8,0-5.4-1.9-6.2-4.5l-1.2-4.5c-0.2-1.2-1.4-2.1-2.6-2.1h-17c-1.2,0-2.4,0.9-2.6,2.1L23.9,16
			c-0.7,2.6-3.3,4.5-6.2,4.5C17.8,20.5,6.4,20.5,6.4,20.5z"/>
	</g>
	<g>
		<path class="a" d="M36.2,58.4c-9.2,0-16.8-7.6-16.8-16.8S27,24.8,36.2,24.8S53,32.3,53,41.6C53,51,45.4,58.4,36.2,58.4z M36.2,28.5
			c-7.3,0-13.3,5.9-13.3,13.3s5.9,13.3,13.3,13.3s13.3-5.9,13.3-13.3S43.5,28.5,36.2,28.5z"/>
	</g>
	<g>
		<rect x="55.6" y="25.9" width="6.4" height="3.6"/>
	</g>
</g>
</svg>
