<svg id="Layer_1" data-name="Layer 1" xmlns="http://www.w3.org/2000/svg" viewBox="0 0 36 36"><title>List</title><path d="M2.25,11a1.06,1.06,0,0,0-1.08,1v8.22A1.06,1.06,0,0,0,2.25,21.3a1.07,1.07,0,0,0,1.08-1.05V12A1.07,1.07,0,0,0,2.25,11Z"/><path d="M25.13,4.83H20.64a1.07,1.07,0,0,0-1.08,1.06v1L5.09,11a1.06,1.06,0,0,0-.77,1v8.21c0,.06,0,.11,0,.16v0l0,.13L7.43,30.1a1.07,1.07,0,0,0,1,.73,1.24,1.24,0,0,0,.33,0l4.45-1.36a1.08,1.08,0,0,0,.64-.52,1,1,0,0,0,.07-.8l-1.51-4.73,7.12,2.06v.95a1.06,1.06,0,0,0,1.08,1.05h4.49a1.06,1.06,0,0,0,1.08-1.05V5.89A1.07,1.07,0,0,0,25.13,4.83ZM11.57,27.73l-2.4.73L7,21.82l2.9.84Zm-.46-6.93h0L6.48,19.46V12.82L19.56,9v14.2Zm12.94,4.54H21.72V6.94h2.33Z"/><path d="M33.56,22l-4.67-2.27a1.09,1.09,0,0,0-1.45.47,1,1,0,0,0,.48,1.41l4.67,2.28a1.21,1.21,0,0,0,.49.11,1.08,1.08,0,0,0,1-.58A1,1,0,0,0,33.56,22Z"/><path d="M28.4,12.63a1.06,1.06,0,0,0,.49-.11l4.67-2.28A1,1,0,0,0,34,8.83a1.09,1.09,0,0,0-1.45-.47l-4.67,2.28a1,1,0,0,0-.48,1.41A1.08,1.08,0,0,0,28.4,12.63Z"/><path d="M34.08,15.09h-3.9a1.05,1.05,0,1,0,0,2.1h3.9a1.05,1.05,0,1,0,0-2.1Z"/></svg>