<svg xmlns="http://www.w3.org/2000/svg" width="9.993" height="10" viewBox="0 0 9.993 10">
  <path id="Close" d="M9.722,8.139,6.583,5,9.722,1.861a.922.922,0,0,0,0-1.306L9.444.278A.957.957,0,0,0,8.806,0h0a.8.8,0,0,0-.639.278L5,3.417,1.861.278a.922.922,0,0,0-1.306,0L.278.556A.862.862,0,0,0,0,1.222a.8.8,0,0,0,.278.639L3.417,5,.278,8.139a.922.922,0,0,0,0,1.306l.278.278A.957.957,0,0,0,1.194,10a.9.9,0,0,0,.639-.278L5,6.583,8.139,9.722A.957.957,0,0,0,8.778,10a.844.844,0,0,0,.639-.278l.278-.278a.957.957,0,0,0,.278-.639.73.73,0,0,0-.25-.667Z" fill="#fff"/>
</svg>
