<svg xmlns="http://www.w3.org/2000/svg" width="26.102" height="34" viewBox="0 0 26.102 34" style="&#10;    fill: #808080;&#10;">
  <g id="Change_Color" data-name="Change Color" transform="translate(-4 0)">
    <g id="Group_19" data-name="Group 19" transform="translate(4 0)">
      <path id="Path_35" data-name="Path 35" d="M15.719,27.625a3.617,3.617,0,0,1-2.573-1.064L5.065,18.5A3.556,3.556,0,0,1,4,15.937a3.6,3.6,0,0,1,1.065-2.566L14.213,4.25,11.77,1.814a1.064,1.064,0,1,1,1.506-1.5L27.06,14.057a2.656,2.656,0,0,1,0,3.76L18.293,26.56a3.618,3.618,0,0,1-2.574,1.065Zm0-21.872L6.573,14.875a1.472,1.472,0,0,0-.442,1.062A1.415,1.415,0,0,0,6.573,17l8.081,8.059a1.544,1.544,0,0,0,2.131,0l8.768-8.743a.534.534,0,0,0,0-.755L15.719,5.752ZM25.307,34H6.131a1.062,1.062,0,1,1,0-2.125H25.307a1.062,1.062,0,1,1,0,2.125Zm-.533-8.146c0-2.05,2.285-3.648,2.663-5.666.382,2.022,2.663,3.631,2.663,5.666a2.669,2.669,0,1,1-5.327,0Zm1.562-8.818-8.8,8.775a2.578,2.578,0,0,1-3.638,0L5.819,17.752a4.505,4.505,0,0,1-.753-1.815H25.881a.643.643,0,0,1,.456,1.1Z" transform="translate(-4 0)"/>
    </g>
  </g>
</svg>
