<svg xmlns="http://www.w3.org/2000/svg" width="34" height="31.371" viewBox="0 0 34 31.371">
  <g id="comment" transform="translate(-0.001 1.332)">
    <path id="Path_54" data-name="Path 54" d="M29.326-1.332H4.675A4.686,4.686,0,0,0,0,3.356V18.485a4.687,4.687,0,0,0,4.658,4.688v6.866L14.5,23.173h14.83A4.687,4.687,0,0,0,34,18.485V3.356a4.686,4.686,0,0,0-4.674-4.688Zm2.682,19.817a2.689,2.689,0,0,1-2.682,2.69H13.872L6.651,26.214V21.175H4.675a2.689,2.689,0,0,1-2.682-2.69V3.356A2.689,2.689,0,0,1,4.675.666H29.326a2.689,2.689,0,0,1,2.682,2.69Zm0,0" transform="translate(0)"/>
    <path id="Path_55" data-name="Path 55" d="M171.293,131.172h15.846v2H171.293Zm0,0" transform="translate(-162.215 -125.445)"/>
    <path id="Path_56" data-name="Path 56" d="M171.293,211.172h15.846v2H171.293Zm0,0" transform="translate(-162.215 -201.182)"/>
    <path id="Path_57" data-name="Path 57" d="M171.293,291.172h15.846v2H171.293Zm0,0" transform="translate(-162.215 -276.92)"/>
  </g>
</svg>
