<svg xmlns="http://www.w3.org/2000/svg" width="30" height="30" viewBox="0 0 30 30"><defs><style>.a{fill:none;}.b{fill:gray;}</style></defs><g transform="translate(0.67 0.859)"><rect class="a" width="30" height="30" transform="translate(-0.67 -0.859)"/><path class="b" d="M38.984,35.407l2.633,1.944-1.094-3.24,2.268-1.62H39.916L38.944,29.7l-.972,2.795H35.1l2.268,1.62-1.094,3.24Zm0,1.823-5.468,4.01L35.7,34.678l-5.1-3.645h6.359L38.984,25.2l2.025,5.832h6.359l-5.1,3.645,2.187,6.561Z" transform="translate(-18.192 -15.014)"/><path class="b" d="M10.936,17.407a4.374,4.374,0,1,0-4.374-4.374A4.356,4.356,0,0,0,10.936,17.407ZM9.883,20.363,12.07,21.9a8.982,8.982,0,0,0-1.5-.122A9.137,9.137,0,0,0,1.458,30.53H0A10.575,10.575,0,0,1,9.883,20.363Zm10.976,8.02a9.45,9.45,0,0,1,.284,2.147H19.684a6.673,6.673,0,0,0-.162-1.3l1.215-.891Zm-9.923-9.518a5.832,5.832,0,1,1,5.832-5.832A5.808,5.808,0,0,1,10.936,18.865Z" transform="translate(0.014 -4.305)"/></g></svg>