<svg xmlns="http://www.w3.org/2000/svg" width="22.283" height="22.34" viewBox="0 0 22.283 22.34"><defs><style>.a{fill:gray;}</style></defs><path class="a" d="M22.617,11.447H12.893V1.723A.729.729,0,0,0,12.17,1H1.723A.729.729,0,0,0,1,1.723V22.551a.746.746,0,0,0,.723.788H22.551a.729.729,0,0,0,.723-.723V12.17A.639.639,0,0,0,22.617,11.447ZM2.511,2.511h8.936V21.894H9.213V18.938a.729.729,0,0,0-.723-.723H5.468a.729.729,0,0,0-.723.723v2.957H2.511Zm3.68,19.318V19.595H7.7v2.234Zm15.638,0H12.893V12.893h8.936ZM5.468,5.468H3.957V3.957H5.468Zm2.234,0H6.191V3.957H7.7Zm2.234,0H8.425V3.957H9.936ZM5.468,7.7H3.957V6.191H5.468ZM7.7,7.7H6.191V6.191H7.7Zm2.234,0H8.425V6.191H9.936ZM5.468,9.936H3.957V8.425H5.468Zm2.234,0H6.191V8.425H7.7Zm2.234,0H8.425V8.425H9.936ZM5.468,12.17H3.957V10.659H5.468Zm2.234,0H6.191V10.659H7.7Zm2.234,0H8.425V10.659H9.936ZM5.468,14.4H3.957V12.893H5.468Zm2.234,0H6.191V12.893H7.7Zm2.234,0H8.425V12.893H9.936ZM5.468,16.638H3.957V15.127H5.468Zm2.234,0H6.191V15.127H7.7Zm2.234,0H8.425V15.127H9.936Zm5.979-.723H14.4V14.4h1.511Zm2.234,0H16.638V14.4h1.511Zm2.234,0H18.872V14.4h1.511Zm-4.468,2.234H14.4V16.638h1.511Zm2.234,0H16.638V16.638h1.511Zm2.234,0H18.872V16.638h1.511Zm-4.468,2.234H14.4V18.872h1.511Zm2.234,0H16.638V18.872h1.511Zm2.234,0H18.872V18.872h1.511Z" transform="translate(-1 -1)"/></svg>