<svg xmlns="http://www.w3.org/2000/svg" width="16.176" height="16.4" viewBox="0 0 16.176 16.4"><defs><style>.a{fill:#595d6e;stroke:#000;stroke-width:0.2px;}</style></defs><g transform="translate(0.1 0.1)"><path class="a" d="M14.326,10.725a1.6,1.6,0,0,0-1.032.359L11.184,8.975a2.819,2.819,0,0,0,.628-1.8,3.1,3.1,0,0,0-.628-1.8l1.885-1.93a1.6,1.6,0,0,0,1.032.359,1.8,1.8,0,1,0-1.8-1.8,1.6,1.6,0,0,0,.359,1.032L10.78,4.936a2.819,2.819,0,0,0-1.8-.628,2.887,2.887,0,0,0-1.84.673L4.9,2.827A1.874,1.874,0,0,0,5.216,1.8a1.8,1.8,0,1,0-1.8,1.8A1.826,1.826,0,0,0,4.5,3.231L6.742,5.385a2.788,2.788,0,0,0-.628,1.75,3.1,3.1,0,0,0,.628,1.8l-3.9,3.949A1.659,1.659,0,0,0,1.9,12.61a1.8,1.8,0,1,0,1.8,1.8,2.15,2.15,0,0,0-.4-1.167L7.145,9.379a2.819,2.819,0,0,0,1.8.628,3.1,3.1,0,0,0,1.8-.628l2.109,2.109a1.6,1.6,0,0,0-.359,1.032,1.8,1.8,0,0,0,3.59,0A1.762,1.762,0,0,0,14.326,10.725ZM13.249,1.167A1.226,1.226,0,0,1,14.1.808a1.149,1.149,0,0,1,.853.359,1.226,1.226,0,0,1,.359.853,1.149,1.149,0,0,1-.359.853,1.226,1.226,0,0,1-.853.359,1.149,1.149,0,0,1-.853-.359,1.226,1.226,0,0,1-.359-.853A1.226,1.226,0,0,1,13.249,1.167ZM4.273,2.648a1.206,1.206,0,0,1-.808.359,1.149,1.149,0,0,1-.853-.359,1.275,1.275,0,0,1-.4-.853A1.149,1.149,0,0,1,2.568.942,1.226,1.226,0,0,1,3.421.583a1.149,1.149,0,0,1,.853.359,1.226,1.226,0,0,1,.359.853A1.006,1.006,0,0,1,4.273,2.648ZM2.793,15.213a1.226,1.226,0,0,1-.853.359,1.149,1.149,0,0,1-.853-.359,1.226,1.226,0,0,1-.359-.853,1.149,1.149,0,0,1,.359-.853,1.226,1.226,0,0,1,.853-.359,1.149,1.149,0,0,1,.853.359,1.192,1.192,0,0,1,0,1.705ZM10.6,8.751a2.309,2.309,0,0,1-1.616.673A2.394,2.394,0,0,1,7.37,8.751,2.309,2.309,0,0,1,6.7,7.135,2.394,2.394,0,0,1,7.37,5.52a2.309,2.309,0,0,1,1.616-.673A2.394,2.394,0,0,1,10.6,5.52a2.275,2.275,0,0,1,0,3.231Zm4.577,4.577a1.226,1.226,0,0,1-.853.359,1.149,1.149,0,0,1-.853-.359,1.226,1.226,0,0,1-.359-.853,1.149,1.149,0,0,1,.359-.853,1.226,1.226,0,0,1,.853-.359,1.149,1.149,0,0,1,.853.359,1.226,1.226,0,0,1,.359.853A1.149,1.149,0,0,1,15.178,13.328Z" transform="translate(-0.1)"/></g></svg>