<svg xmlns="http://www.w3.org/2000/svg" width="16.55" height="18.3" viewBox="0 0 16.55 18.3"><defs><style>.a{fill:#207ebb;stroke:#207ebb;stroke-width:0.3px;}</style></defs><g transform="translate(0.15 0.15)"><g transform="translate(0)"><path class="a" d="M12.55,15.6a2.719,2.719,0,0,1-5.4,0H2.5a.79.79,0,0,1-.8-.8v-.95A1.772,1.772,0,0,1,3.45,12.1a.133.133,0,0,0,.15-.15V8.15a6.183,6.183,0,0,1,4.3-5.9V1.9A1.976,1.976,0,0,1,9.85,0a1.9,1.9,0,0,1,1.9,1.9v.3a6.183,6.183,0,0,1,4.3,5.9v3.8a.133.133,0,0,0,.15.15,1.772,1.772,0,0,1,1.75,1.75v.95a.79.79,0,0,1-.8.8h-4.6Zm-1,0H8.1a1.751,1.751,0,0,0,3.45,0ZM17,13.85a.79.79,0,0,0-.8-.8,1.11,1.11,0,0,1-1.1-1.1V8.15a5.3,5.3,0,0,0-3.95-5.1l-.35-.1V1.9a.95.95,0,0,0-1.9,0V2.95l-.35.1A5.3,5.3,0,0,0,4.6,8.15v3.8a1.11,1.11,0,0,1-1.1,1.1.79.79,0,0,0-.8.8v.8H17.05v-.8Z" transform="translate(-1.7)"/></g></g></svg>