<svg xmlns="http://www.w3.org/2000/svg" xmlns:xlink="http://www.w3.org/1999/xlink" width="472.172" height="262.828" viewBox="0 0 472.172 262.828">
  <defs>
    <clipPath id="clip-path">
      <rect id="Rectangle_1899" data-name="Rectangle 1899" width="132.908" height="87.756" rx="14.222" fill="none"/>
    </clipPath>
    <radialGradient id="radial-gradient" cx="0.109" cy="0.359" r="0.627" gradientTransform="translate(0.159) scale(0.683 1)" gradientUnits="objectBoundingBox">
      <stop offset="0" stop-color="#fff"/>
      <stop offset="1" stop-color="#fff" stop-opacity="0"/>
    </radialGradient>
    <linearGradient id="linear-gradient" x1="0.5" x2="0.5" y2="1" gradientUnits="objectBoundingBox">
      <stop offset="0" stop-color="#ffd71d"/>
      <stop offset="1" stop-color="#feb200"/>
    </linearGradient>
    <linearGradient id="linear-gradient-2" x1="-0.692" y1="0.5" x2="0.308" y2="0.5" gradientUnits="objectBoundingBox">
      <stop offset="0" stop-color="#343a44"/>
      <stop offset="0.301" stop-color="#232c3d"/>
      <stop offset="0.639" stop-color="#172339"/>
      <stop offset="1" stop-color="#142138"/>
    </linearGradient>
    <linearGradient id="linear-gradient-3" x1="0.15" y1="0.5" x2="1.15" y2="0.5" xlink:href="#linear-gradient-2"/>
  </defs>
  <g id="Group_2122" data-name="Group 2122" transform="translate(-94.676 -58.644)">
    <g id="Group_2121" data-name="Group 2121" transform="translate(70.247 58.644)">
      <path id="Path_2026" data-name="Path 2026" d="M132.166,221.517c-25.2,15.845-38.394,51.551-18,99.135H515.475c6.81-17.24,10.887-39.888,12.167-53.368,2.792-29.411-7.207-59.96-24.83-76.088-44.6-40.816-81.676,15.878-105.121-8.089-13.532-13.835-12.25-52.665-22.839-70.69A107.859,107.859,0,0,0,264.084,60.054c-28.873,4.686-54.915,19.967-70.8,45.818-21.759,35.407-5.921,60.773-15.525,85.244C167.051,218.4,149,210.932,132.166,221.517Z" transform="translate(-76.389 -58.644)" fill="#d9e3ff"/>
      <g id="Group_2126" data-name="Group 2126" transform="translate(385.762 110.217)">
        <path id="Path_1881" data-name="Path 1881" d="M797.17,398.821l-.445-.764a162.865,162.865,0,0,0-67.038,76.337l.693.3A162.049,162.049,0,0,1,797.17,398.821Z" transform="translate(-725.813 -387.545)" fill="#85a2d2"/>
        <path id="Path_1882" data-name="Path 1882" d="M879.445,384.011c-1.173-2.679-10.9.146-13.439,7.187C873.167,392.222,880.564,386.592,879.445,384.011Z" transform="translate(-795.66 -379.837)" fill="#85a2d2"/>
        <path id="Path_1883" data-name="Path 1883" d="M852.977,407.166c3.279,6.462,12.608,8.2,13.86,5.673C868.189,410.209,860.555,404.259,852.977,407.166Z" transform="translate(-788.984 -391.812)" fill="#85a2d2"/>
        <path id="Path_1884" data-name="Path 1884" d="M830.319,422.892c4.474,7.242,15.6,8.415,16.849,5.378C848.55,425.074,839.058,418.631,830.319,422.892Z" transform="translate(-777.375 -399.547)" fill="#85a2d2"/>
        <path id="Path_1885" data-name="Path 1885" d="M739.723,527.952c7.6,5.068,19.559.4,19.641-3.322C759.526,520.624,746.962,518.662,739.723,527.952Z" transform="translate(-730.956 -450.688)" fill="#85a2d2"/>
        <path id="Path_1886" data-name="Path 1886" d="M805.535,443.375c6.064,7.922,19.263,8.07,20.429,4.436C827.3,443.932,815.475,437.19,805.535,443.375Z" transform="translate(-764.676 -409.482)" fill="#85a2d2"/>
        <path id="Path_1887" data-name="Path 1887" d="M757.652,498.051c8.042,6.67,21.938,3.329,22.425-.736C780.7,492.914,766.808,488.731,757.652,498.051Z" transform="translate(-740.142 -435.915)" fill="#85a2d2"/>
        <path id="Path_1888" data-name="Path 1888" d="M780.816,468.268c7.695,8.033,22.509,6.576,23.441,2.438C805.383,466.228,791.374,459.892,780.816,468.268Z" transform="translate(-752.011 -421.419)" fill="#85a2d2"/>
        <path id="Path_1889" data-name="Path 1889" d="M852.075,376.5c-3.375.03-6.608,9.868-1.72,15.354C855.872,386.2,855.342,376.561,852.075,376.5Z" transform="translate(-786.363 -376.5)" fill="#85a2d2"/>
        <path id="Path_1890" data-name="Path 1890" d="M827.345,386.684c-4.062.386-7.116,12.45-.816,18.378C832.551,397.813,831.257,386.437,827.345,386.684Z" transform="translate(-773.585 -381.716)" fill="#85a2d2"/>
        <path id="Path_1891" data-name="Path 1891" d="M723.83,494.031c-4.11,2.6-2.284,17.074,6.68,19.794C733.694,502.954,727.833,491.7,723.83,494.031Z" transform="translate(-721.743 -436.561)" fill="#85a2d2"/>
        <path id="Path_1892" data-name="Path 1892" d="M799.27,401c-4.861.969-7.368,15.771.741,21.928C806.373,413.623,803.937,400.254,799.27,401Z" transform="translate(-759.152 -389.04)" fill="#85a2d2"/>
        <path id="Path_1893" data-name="Path 1893" d="M743.492,456.36c-4.975,2.339-4.526,18.835,5.31,23.089C753.52,467.85,748.292,454.328,743.492,456.36Z" transform="translate(-731.292 -417.314)" fill="#85a2d2"/>
        <path id="Path_1894" data-name="Path 1894" d="M770.16,421.744c-5.469,1.754-6.8,18.957,3.023,24.736C779.333,435.136,775.4,420.3,770.16,421.744Z" transform="translate(-744.377 -399.632)" fill="#85a2d2"/>
      </g>
      <g id="Group_2127" data-name="Group 2127" transform="translate(367.844 164.771)">
        <g id="Group_1915" data-name="Group 1915">
          <g id="Group_1914" data-name="Group 1914">
            <g id="Group_1912" data-name="Group 1912" transform="translate(0 16.925)">
              <path id="Path_1895" data-name="Path 1895" d="M746.625,524.582q-.267-.746-.535-1.493a219.74,219.74,0,0,0-104.159,79.835l1.111.784A218.254,218.254,0,0,1,746.625,524.582Z" transform="translate(-641.931 -523.089)" fill="#6689bc"/>
            </g>
            <g id="Group_1913" data-name="Group 1913" transform="translate(103.227 10.03)">
              <path id="Path_1896" data-name="Path 1896" d="M854.034,516.283c-.136.25-.273.5-.409.749q.4.151.79.305c7.9,3.014,21.9-6.457,22.722-6.783q1-.641,2.019-1.274-1.192-.108-2.386-.2C876.116,508.781,858.28,508.315,854.034,516.283Z" transform="translate(-853.625 -508.949)" fill="#6689bc"/>
            </g>
            <path id="Path_1897" data-name="Path 1897" d="M663.848,653.676q-.29.349-.578.7l.534.443c13.363,10.088,36.622,3.839,37.621,4.257q.854-.164,1.707-.318-.656-.493-1.312-.984C701.047,656.913,676.127,639.027,663.848,653.676Z" transform="translate(-652.865 -570.13)" fill="#6689bc"/>
            <path id="Path_1898" data-name="Path 1898" d="M703.026,614.291q-.329.307-.657.615l.487.527c10.773,10.8,31.97,7.9,32.825,8.3.587-.044,1.174-.084,1.759-.121q-.609-.582-1.221-1.162C735.586,621.6,715.243,602.986,703.026,614.291Z" transform="translate(-672.898 -551.033)" fill="#6689bc"/>
            <path id="Path_1899" data-name="Path 1899" d="M744.977,581.132l-.725.53.431.6c8.271,10.788,26.962,10.451,27.687,10.815q.9.028,1.8.069-.557-.662-1.117-1.322C772.547,591.024,756.549,572.763,744.977,581.132Z" transform="translate(-694.358 -534.782)" fill="#6689bc"/>
            <path id="Path_1900" data-name="Path 1900" d="M788.636,554.034l-.782.443.37.665c5.978,10.139,21.856,11.6,22.458,11.917q.912.121,1.818.252-.5-.731-1-1.462C811.118,565.125,799.09,548.171,788.636,554.034Z" transform="translate(-716.699 -521.389)" fill="#6689bc"/>
            <path id="Path_1901" data-name="Path 1901" d="M828.579,534.645l-.824.364.311.715c4.068,8.874,16.948,11.24,17.438,11.507q.917.2,1.831.406-.447-.786-.9-1.571C846.156,545.442,837.5,530.751,828.579,534.645Z" transform="translate(-737.143 -511.749)" fill="#6689bc"/>
            <path id="Path_1902" data-name="Path 1902" d="M650.872,575.074q-.419-.721-.835-1.44-.386,1.03-.762,2.059c-.958,1.239-9.334,29.553,4.551,40.163l.533.443q.288-.351.577-.7C666.5,602.159,651.5,576.51,650.872,575.074Z" transform="translate(-643.964 -532.062)" fill="#6689bc"/>
            <path id="Path_1903" data-name="Path 1903" d="M697.062,542.11q-.35-.78-.7-1.561-.48.978-.952,1.955c-.886,1-10.728,24.71.407,35.943l.487.527.657-.616C708.518,567.917,697.492,543.414,697.062,542.11Z" transform="translate(-666.843 -515.11)" fill="#6689bc"/>
            <path id="Path_1904" data-name="Path 1904" d="M744.209,517.135q-.278-.831-.553-1.662-.567.92-1.124,1.842c-.788.781-11.187,20.082-2.679,31.214l.432.6q.362-.266.725-.53C752.018,540.818,744.483,518.283,744.209,517.135Z" transform="translate(-690.4 -502.262)" fill="#6689bc"/>
            <path id="Path_1905" data-name="Path 1905" d="M791.416,499.435q-.2-.871-.405-1.744-.642.861-1.275,1.722c-.676.6-10.831,15.759-4.708,26.148l.37.666.782-.443C796.192,520.294,791.569,500.411,791.416,499.435Z" transform="translate(-714.249 -493.151)" fill="#6689bc"/>
            <path id="Path_1906" data-name="Path 1906" d="M833.125,490.181q-.138-.9-.274-1.8-.7.8-1.39,1.609c-.545.442-9.642,11.88-5.492,20.923l.311.716.824-.365C835.708,507.586,833.2,490.971,833.125,490.181Z" transform="translate(-735.674 -488.38)" fill="#6689bc"/>
          </g>
        </g>
      </g>
      <g id="Group_2123" data-name="Group 2123" transform="translate(35.541 112.955)">
        <g id="Group_1917" data-name="Group 1917" transform="translate(14.419 17.496)">
          <rect id="Rectangle_1859" data-name="Rectangle 1859" width="1.402" height="103.299" transform="matrix(0.907, -0.422, 0.422, 0.907, 0, 0.592)" fill="#85a2d2"/>
        </g>
        <g id="Group_1919" data-name="Group 1919" transform="translate(6.772)">
          <g id="Group_1918" data-name="Group 1918">
            <path id="Path_1907" data-name="Path 1907" d="M163.015,398.525l.141,1.856c.043.576,1.145,14.131,7.9,16.595l.659.24.24-.659c2.464-6.756-7.2-16.326-7.611-16.73Z" transform="translate(-163.015 -398.525)" fill="#85a2d2"/>
          </g>
        </g>
        <path id="Path_1908" data-name="Path 1908" d="M256.955,569.817l.3.636.635-.3c15.779-7.345,19.1-28.934,19.231-29.849l.23-1.578-1.318.9C275,540.326,250.94,556.895,256.955,569.817Z" transform="translate(-203.882 -470.363)" fill="#85a2d2"/>
        <path id="Path_1909" data-name="Path 1909" d="M238.32,533.378l.3.636.635-.3c13.849-6.446,16.76-25.381,16.877-26.184l.23-1.578-1.318.9C254.139,507.467,233.026,522.005,238.32,533.378Z" transform="translate(-194.392 -453.57)" fill="#85a2d2"/>
        <path id="Path_1910" data-name="Path 1910" d="M220.494,498.678l.3.635.635-.3c11.919-5.548,14.422-21.829,14.523-22.52l.231-1.578-1.319.9C234.085,476.344,215.921,488.853,220.494,498.678Z" transform="translate(-185.316 -437.667)" fill="#85a2d2"/>
        <path id="Path_1911" data-name="Path 1911" d="M203.477,465.714l.3.636.635-.3c9.989-4.65,12.085-18.278,12.169-18.855l.231-1.578-1.319.9C214.84,446.96,199.625,457.438,203.477,465.714Z" transform="translate(-176.656 -422.655)" fill="#85a2d2"/>
        <path id="Path_1912" data-name="Path 1912" d="M188.887,437.966l.3.635.635-.3c8.059-3.752,9.747-14.726,9.814-15.191l.23-1.578-1.318.9C198.021,422.789,185.756,431.238,188.887,437.966Z" transform="translate(-169.238 -410.315)" fill="#85a2d2"/>
        <path id="Path_1913" data-name="Path 1913" d="M183.773,589.825l-1.535.431,1.356.84c.786.487,19.442,11.847,35.221,4.5l.635-.3-.3-.635C213.14,581.745,184.969,589.488,183.773,589.825Z" transform="translate(-166.093 -495.207)" fill="#85a2d2"/>
        <path id="Path_1914" data-name="Path 1914" d="M173.878,551.022l-1.535.431,1.356.84c.69.428,17.052,10.391,30.9,3.944l.636-.3-.3-.635C199.646,543.932,174.928,550.727,173.878,551.022Z" transform="translate(-161.023 -475.492)" fill="#85a2d2"/>
        <path id="Path_1915" data-name="Path 1915" d="M164.791,513.956l-1.536.432,1.356.84c.593.367,14.663,8.934,26.582,3.387l.635-.3-.3-.635C186.959,507.858,165.694,513.7,164.791,513.956Z" transform="translate(-156.366 -456.667)" fill="#85a2d2"/>
        <path id="Path_1916" data-name="Path 1916" d="M156.514,478.629l-1.536.432,1.356.84c.5.307,12.273,7.478,22.262,2.828l.636-.3-.3-.635C175.083,473.521,157.269,478.417,156.514,478.629Z" transform="translate(-152.125 -438.733)" fill="#85a2d2"/>
        <path id="Path_1917" data-name="Path 1917" d="M150.663,448.516l-1.535.431,1.356.84c.4.248,9.883,6.022,17.943,2.271l.636-.3-.3-.635C165.634,444.4,151.273,448.344,150.663,448.516Z" transform="translate(-149.128 -423.47)" fill="#85a2d2"/>
      </g>
      <g id="Group_2124" data-name="Group 2124" transform="translate(24.43 164.492)">
        <path id="Path_1918" data-name="Path 1918" d="M164.806,526.608c-9-4.966-9.7,2.895-14.383-7.716-6.8-15.394-14.656-16.9-20.289-12.586s-6.23,12.288,6.857,22.869c9.021,7.293,1.251,5.911,3.7,15.9,2.126,8.68,17.051,15.592,17.981,24.083,2.3,20.952,25.567,22.2,32.51,16.879s11.813-28.1-7.814-35.787C175.41,547.135,172.631,530.924,164.806,526.608Z" transform="translate(-126.341 -504.212)" fill="#6689bc"/>
        <path id="Path_1919" data-name="Path 1919" d="M183.366,575.165l-21.858-28.548,2.62-19.742c-.5-.252-.98-.46-1.431-.635l-2.481,18.691-21.2-27.686,1.468-11.063a10.68,10.68,0,0,0-1.424-.688l-1.336,10.063-6.915-9.031c-.206.139-.411.283-.611.437s-.394.314-.581.476l6.915,9.031-10.063-1.336a10.56,10.56,0,0,0,.292,1.555l11.063,1.468,21.2,27.686-18.691-2.48c.051.482.128.995.24,1.548l19.742,2.62,21.858,28.548-22.882-3.037q.191.809.428,1.573l23.746,3.152L190,586.3l.63.823,11.458,14.964,1.193-.914L191.82,586.206l-.63-.823-6.532-8.531,3.152-23.746q-.674-.427-1.406-.823Z" transform="translate(-126.407 -504.869)" fill="#37639a"/>
      </g>
      <g id="Group_2125" data-name="Group 2125" transform="translate(52.635 -3.887)">
        <g id="Group_1996" data-name="Group 1996">
          <g id="Group_1926" data-name="Group 1926" transform="translate(0 73.295)">
            <g id="Group_1925" data-name="Group 1925">
              <g id="Group_1924" data-name="Group 1924">
                <g id="Group_1922" data-name="Group 1922" transform="translate(12.193 15.87)">
                  <path id="Path_1920" data-name="Path 1920" d="M203.035,332.25l1.054-.739a178.406,178.406,0,0,1,31.726,101.721h-1.1A177.21,177.21,0,0,0,203.035,332.25Z" transform="translate(-203.035 -331.511)" fill="#6689bc"/>
                </g>
                <g id="Group_1923" data-name="Group 1923">
                  <path id="Path_1921" data-name="Path 1921" d="M191.419,315.372c-.026.23-.052.458-.079.688l-.667-.168c-6.649-1.7-11.506-14.535-11.9-15.136q-.366-.9-.743-1.791.841.486,1.677.984C180.282,300.058,192.333,308.1,191.419,315.372Z" transform="translate(-178.031 -298.966)" fill="#6689bc"/>
                </g>
                <path id="Path_1922" data-name="Path 1922" d="M238.12,495.723q.028.367.056.734l-.561.044c-13.588.437-26.092-14.6-26.95-14.787q-.489-.509-.983-1.01.666-.021,1.331-.039C211.926,480.456,236.831,480.257,238.12,495.723Z" transform="translate(-194.248 -392.04)" fill="#6689bc"/>
                <path id="Path_1923" data-name="Path 1923" d="M232.858,454.522q.075.357.148.716l-.57.122c-12.2,2.123-24.908-9.723-25.661-9.86q-.553-.456-1.11-.9l1.354-.2C207.835,444.131,230.046,441.3,232.858,454.522Z" transform="translate(-192.19 -373.259)" fill="#6689bc"/>
                <path id="Path_1924" data-name="Path 1924" d="M223.531,415.306q.117.345.233.691l-.568.2c-10.537,3.285-22.779-5.688-23.43-5.787q-.61-.4-1.224-.795l1.36-.355C200.61,408.963,219.771,404.337,223.531,415.306Z" transform="translate(-188.54 -354.853)" fill="#6689bc"/>
                <path id="Path_1925" data-name="Path 1925" d="M210.774,378.67q.156.33.311.66l-.557.268c-8.711,3.927-19.927-2.539-20.477-2.607q-.661-.347-1.324-.684l1.349-.5C190.669,375.5,206.585,369.887,210.774,378.67Z" transform="translate(-183.511 -337.289)" fill="#6689bc"/>
                <path id="Path_1926" data-name="Path 1926" d="M197.309,348.387l.376.628-.541.329c-6.853,3.982-16.5-.477-16.954-.53q-.7-.3-1.4-.588.664-.313,1.329-.623C180.595,347.322,193.215,341.629,197.309,348.387Z" transform="translate(-178.418 -322.601)" fill="#6689bc"/>
                <path id="Path_1927" data-name="Path 1927" d="M289.625,459.77l1.228-.565q-.226.864-.459,1.723c.056,1.27-7.643,23.975-21.82,24.513l-.562.044q-.027-.367-.056-.734C266.577,470.421,288.539,460.43,289.625,459.77Z" transform="translate(-224.075 -381.069)" fill="#6689bc"/>
                <path id="Path_1928" data-name="Path 1928" d="M278.062,415.455q.6-.353,1.193-.709-.139.874-.283,1.743c.121,1.076-4.451,21.415-17.1,23.654l-.57.121q-.073-.358-.148-.716C258.381,427.213,277.167,416.119,278.062,415.455Z" transform="translate(-220.48 -358.289)" fill="#6689bc"/>
                <path id="Path_1929" data-name="Path 1929" d="M261.832,376.169l1.145-.844q-.055.876-.117,1.748c.158.887-1.98,18.559-12.835,21.961l-.568.2q-.116-.346-.233-.691C245.565,388.225,261.113,376.8,261.832,376.169Z" transform="translate(-214.223 -338.091)" fill="#6689bc"/>
                <path id="Path_1930" data-name="Path 1930" d="M241.96,341.93l1.085-.967q.023.871.04,1.739c.17.711-.191,15.524-9.117,19.551l-.557.268q-.155-.331-.312-.66C229.026,353.532,241.4,342.506,241.96,341.93Z" transform="translate(-205.826 -320.484)" fill="#6689bc"/>
                <path id="Path_1931" data-name="Path 1931" d="M221.639,316.254q.513-.533,1.025-1.067.088.86.169,1.718c.155.548.835,12.394-6.151,16.451l-.541.329-.376-.628C211.779,326.591,221.222,316.744,221.639,316.254Z" transform="translate(-196.863 -307.277)" fill="#6689bc"/>
              </g>
            </g>
          </g>
        </g>
      </g>
      <g id="Group_2093" data-name="Group 2093" transform="translate(87.278 82.416)">
        <g id="Group_2087" data-name="Group 2087">
          <path id="Path_2027" data-name="Path 2027" d="M181.9,177.322a34.724,34.724,0,0,0,3.666-2.083l1.572-2.439s1.539-.993,2.64-1.529,3.129-3.832,3.129-3.832l-.8-1.006a13.769,13.769,0,0,1-1.536,1.64,1.968,1.968,0,0,1-1.155.038,20.706,20.706,0,0,1,.888-2.487,23.173,23.173,0,0,1,2.5-3.828l-.706-.739a20.252,20.252,0,0,0-1.536,1.608c-.407.538-1.188,1.668-1.188,1.668a22.271,22.271,0,0,1,1.314-2.732c.5-.743,1.048-1.748,1.048-1.748l-.816-.567a18.423,18.423,0,0,0-1.446,2.06c-.492.882-1.4,2.345-1.4,2.345A29.027,29.027,0,0,1,189.1,160.8a10.316,10.316,0,0,0,.47-.979l-.968-.331a7.774,7.774,0,0,0-1.144,2.044,10.834,10.834,0,0,1-.737,1.689,11.624,11.624,0,0,1,.606-2.452,2.129,2.129,0,0,0,.331-.785l-.784-.148s-1.508,2.775-2.3,4.5-1.41,4.045-1.857,5.3a48.635,48.635,0,0,0-1.027,5.544Z" transform="translate(-177.707 -159.287)" fill="#f5c5b3"/>
          <path id="Path_2028" data-name="Path 2028" d="M204.233,196.777l-19.076-3.285a63.59,63.59,0,0,1-.207-9.776c.337-5.71,1.036-7.3,1.036-7.3l-5.119-.708s-1.011,4.5-1.735,7.727c-1.608,7.165-3.077,13.877-1.85,15.373,1.782,2.171,17.656,6.59,23.088,10.664C203.638,211.923,203.448,204.074,204.233,196.777Z" transform="translate(-176.826 -162.261)" fill="#a7d4c5"/>
        </g>
        <path id="Path_2029" data-name="Path 2029" d="M243.111,266.387l-.965,6.6,1.994,4.522,1.457-1.969.336-3.687,2.153.324,1.057-1.326-.092-2.763-.354-7.518Z" transform="translate(-188.656 -177.629)" fill="#fec4ad"/>
        <path id="Path_2030" data-name="Path 2030" d="M240.294,206.191c-1.47-.543-6.266-.188-6.266-.188s-.453,5.121,1.5,9.077,6.778,18.365,7.39,19.717-1.281,21.687-1.281,21.687l7.007-1.436s3.377-15.682,3.351-19.668-3.755-18.907-6.406-23.663S243.861,207.509,240.294,206.191Z" transform="translate(-187.177 -167.727)" fill="#a7d4c6"/>
        <path id="Path_2031" data-name="Path 2031" d="M225.038,188.346s-1.542,6.762-.336,8.334c.707.922,3.7,4.206,3.7,4.206s-9.927,5.241-12.844,5.241-1.9-5.854-1.9-5.854,3.182-2.516,3.656-3.787a28.56,28.56,0,0,0,.739-4.95Z" transform="translate(-183.466 -164.55)" fill="#fec4ad"/>
        <g id="Group_2091" data-name="Group 2091" transform="translate(28.584 9.788)">
          <g id="Group_2088" data-name="Group 2088" transform="translate(13.953 11.86)">
            <path id="Path_2032" data-name="Path 2032" d="M228.967,188.122s-.113-2.462,1.95-2.4c1.317.04,1.419,1.247.393,2.8-.432.655-.476,2.138-1.012,2.615-.652.58-1.2-.314-1.4-.722A4.906,4.906,0,0,1,228.967,188.122Z" transform="translate(-228.771 -185.722)" fill="#f5c5b3"/>
          </g>
          <g id="Group_2089" data-name="Group 2089" transform="translate(0 11.86)">
            <path id="Path_2033" data-name="Path 2033" d="M214.767,188.122s.114-2.462-1.95-2.4c-1.317.04-1.419,1.247-.393,2.8.432.655.476,2.138,1.012,2.615.652.58,1.2-.314,1.4-.722A4.906,4.906,0,0,0,214.767,188.122Z" transform="translate(-211.732 -185.722)" fill="#f5c5b3"/>
          </g>
          <path id="Path_2034" data-name="Path 2034" d="M228.194,179.938a23.4,23.4,0,0,1-.417,2.505c-.049.286-.1.613-.156.992-.427,2.955-.967,6.975-1.2,7.574-.386.994-2.5,2.6-3.5,3.194a6.02,6.02,0,0,1-4.527-.12c-1-.59-3.271-2.079-3.656-3.073-.237-.611-.8-4.746-1.226-7.751-.049-.342-.1-.638-.142-.9a22.632,22.632,0,0,1-.407-2.421c-.153-2.5,2.657-6.129,7.617-6.129C226.445,173.809,228.349,177.441,228.194,179.938Z" transform="translate(-211.954 -171.704)" fill="#f5c5b3"/>
          <path id="Path_2035" data-name="Path 2035" d="M216,176.988a11.861,11.861,0,0,1,9.083.332l1.75-1.115a14.354,14.354,0,0,0-6.217-1.308C216.948,174.925,216,176.988,216,176.988Z" transform="translate(-212.505 -171.902)" fill="#e8d4e5" style="mix-blend-mode: multiply;isolation: isolate"/>
          <g id="Group_2090" data-name="Group 2090" transform="translate(1.416 10.05)">
            <path id="Path_2036" data-name="Path 2036" d="M227.869,184.2c-.048.286-.1.613-.156.992-.427,2.955-.967,6.975-1.2,7.574-.385.994-2.5,2.6-3.5,3.194a6.02,6.02,0,0,1-4.527-.12c-1-.59-3.272-2.079-3.656-3.073-.237-.611-.8-4.746-1.227-7.751-.049-.342-.1-.638-.142-.9l.4-.6s.73,4.285,1.849,5.616,1.331,1.391,1.331,1.391l2.288-.565.183-.046a5.375,5.375,0,0,1,2.669.021c.048.011.1.025.145.039l.166.049,1.733.5s.4-.062,1.522-1.391,1.657-5.616,1.657-5.616Z" transform="translate(-213.461 -183.511)" fill="#7b2b1a"/>
          </g>
          <path id="Path_2037" data-name="Path 2037" d="M231.5,178.663c-.016.082-.419,3-.584,3.463-.254.708-.448,1.219-.448,1.219l-.3-.653a9.715,9.715,0,0,1-.887-3.856l-.053-2.5.833-.736C231.7,175.841,231.878,176.792,231.5,178.663Z" transform="translate(-214.901 -172.028)" fill="#7b2b1a"/>
          <path id="Path_2038" data-name="Path 2038" d="M215.423,176.5l0,.011-.4,2.575a9.73,9.73,0,0,1-1.2,3.389l-.034.059-.454.784s-.133-.455-.319-1.1c-.138-.477-.477-2.918-.558-3.263-.026-.108-.049-.212-.069-.314-.35-1.832-.008-2.6,1.617-2.843Z" transform="translate(-211.828 -172.064)" fill="#7b2b1a"/>
          <path id="Path_2039" data-name="Path 2039" d="M227.176,174.807l-.833.736-1.586.57a12.59,12.59,0,0,0-5.588-1c-3.179.245-3.613,1.16-3.659,1.216l0,0-.328-.071-1.562-.341-.319-.07a9.894,9.894,0,0,1,.622-1.766c1.251-1.885,4.653-3.1,7.744-2.791.1.01.208.021.31.036a7.449,7.449,0,0,1,4.212,1.741Z" transform="translate(-212.016 -171.239)" fill="#7b2b1a"/>
        </g>
        <path id="Path_2040" data-name="Path 2040" d="M237.062,371.488v6.192h-11.9s.447-2.241,6.09-3.276l.83-2.916Z" transform="translate(-185.58 -197.716)" fill="#133a50"/>
        <path id="Path_2041" data-name="Path 2041" d="M214.961,371.488v6.192h-11.9s.447-2.241,6.09-3.276l.83-2.916Z" transform="translate(-181.578 -197.716)" fill="#133a50"/>
        <path id="Path_2042" data-name="Path 2042" d="M232.406,258.934s1.666,19.944,1.724,36.208,1.027,57.38,1.027,57.38h-6.568s-6.771-39.49-9.234-49.946-8.862-43.446-8.862-43.446Z" transform="translate(-182.923 -177.333)" fill="#133a50"/>
        <path id="Path_2043" data-name="Path 2043" d="M216.347,280.369s-1.231,24.781-1.477,29.66,0,42.487,0,42.487-6.154.165-6.154,0-5.8-40.049-6.554-52.071-.311-26.275-1.309-27.938,2.694-13.474,2.694-13.474l8.711,2.323Z" transform="translate(-181.146 -177.351)" fill="#133a50"/>
        <path id="Path_2044" data-name="Path 2044" d="M214.187,200.082s-2.73,6.189,1.377,6.873c6.528,1.087,8.517-7.266,8.517-7.266l7.2,3.706s-.132,44.809,2.7,58.488c1.642,7.943-25.693,4.157-29.7-2.893-3.47-6.1,6.555-56.806,6.555-56.806Z" transform="translate(-181.665 -166.604)" fill="#fff"/>
        <path id="Path_2045" data-name="Path 2045" d="M229.086,200.635c-.2.274-9.851,28.534-6.568,55.128.766,6.2,12.074,1.071,14.771,1.071,0,0,1.282-19.849,1.6-27.231s-3.2-9.808-2.89-13.42,4.24-10.051,4.24-10.051Z" transform="translate(-184.978 -166.775)" fill="#a7d4c6"/>
        <g id="Group_2092" data-name="Group 2092" transform="translate(19.138 34.129)">
          <path id="Path_2046" data-name="Path 2046" d="M209.027,258.639c1.1-18.489,1.556-57.19,1.556-57.19l-6.523-.485s-3.263,32.46-3.311,36.15c-.02,1.467.439,19.292-.552,22.629C202.4,260.073,208.895,260.867,209.027,258.639Z" transform="translate(-200.197 -200.964)" fill="#a7d4c6"/>
        </g>
      </g>
      <path id="Path_2047" data-name="Path 2047" d="M293.331,188.343c-5.121,1.757-10.386,3.594-14.453,7.169S272.191,204.868,273.9,210s8.852,8.126,12.978,4.622c1.483-1.259,2.4-3.421,1.6-5.2-1.575-3.509-7.059-1.864-9.63,1-3.05,3.393-4.989,8.033-4.234,12.532s4.684,8.542,9.246,8.538,11.063-6.886,7.157-9.245c-4.958-2.995-11.332,4.137-13.771,9.392s-.916,12.37,4.069,15.322,16.679-.781,13.616-5.7c-3.238-5.2-12.805,2.3-14.077,8.286s3.417,12.552,9.5,13.291,16.608-6.184,12.4-10.632c-6.08-6.428-16.216,9.939-13.29,18.289s15.016,11.673,21.8,5.992c1.27-1.065,2.417-2.585,2.181-4.226-.392-2.733-4.133-3.5-6.752-2.627-6.832,2.282-9.918,11.843-5.709,17.688s14.255,5.953,18.587.2a4.941,4.941,0,0,0,1.193-3.9c-.428-1.912-2.694-2.992-4.62-2.63a7.53,7.53,0,0,0-4.579,3.438,14.037,14.037,0,0,0,21.828,17.5c1.248-1.318,2.281-3.082,1.95-4.867a4.612,4.612,0,0,0-4.683-3.4,8.173,8.173,0,0,0-5.478,2.765c-6.116,6.351-3.5,18.644,4.669,21.957s24.38-5.811,18.642-12.506c-3.832-4.472-11.392,5.2-10.425,11.009s7.649,9.768,13.344,8.271,13.2-9.665,8.8-13.578c-3.113-2.77-8.151,3.086-9.113,7.14a9.57,9.57,0,0,0,4.935,10.472c4.026,1.98,8.955.788,12.826-1.478s7.083-5.5,10.812-8a33.826,33.826,0,0,1,25.836-4.841" transform="translate(-107.032 -82.133)" fill="none" stroke="#fff" stroke-miterlimit="10" stroke-width="2"/>
      <g id="Group_2110" data-name="Group 2110" transform="translate(255.864 154.843)">
        <g id="Group_2104" data-name="Group 2104" transform="translate(10.521 92.786)">
          <path id="Path_2062" data-name="Path 2062" d="M415.262,376.235H399.818a3.276,3.276,0,0,1-3.265-3.005l-1.011-12.193h24l-1.011,12.193A3.276,3.276,0,0,1,415.262,376.235Z" transform="translate(-395.542 -361.037)" fill="#21295b"/>
          <path id="Path_2063" data-name="Path 2063" d="M526.614,376.235H511.171a3.276,3.276,0,0,1-3.265-3.005l-1.012-12.193h24l-1.011,12.193A3.276,3.276,0,0,1,526.614,376.235Z" transform="translate(-415.708 -361.037)" fill="#21295b"/>
        </g>
        <path id="Path_2064" data-name="Path 2064" d="M509.479,327H397.5l7.918-57.731a9.1,9.1,0,0,1,9.012-7.86h78.123a9.1,9.1,0,0,1,9.011,7.86Z" transform="translate(-385.375 -250.208)" fill="#ff3a46"/>
        <path id="Path_2065" data-name="Path 2065" d="M497.708,313.322H415.951l5.808-58a8.434,8.434,0,0,1,8.392-7.594h53.358a8.434,8.434,0,0,1,8.391,7.594Z" transform="translate(-388.718 -247.731)" fill="#ff3a46"/>
        <path id="Path_2066" data-name="Path 2066" d="M399.293,325.5,397.5,338.6H509.479l-1.8-13.106Z" transform="translate(-385.375 -261.814)" fill="#cfcfcf" style="mix-blend-mode: multiply;isolation: isolate"/>
        <path id="Path_2067" data-name="Path 2067" d="M518.919,362.306H382.695l2.522-29.6H516.4Z" transform="translate(-382.695 -263.121)" fill="#ff3a46"/>
        <g id="Group_2109" data-name="Group 2109" transform="translate(33.627 1.605)">
          <circle id="Ellipse_328" data-name="Ellipse 328" cx="24.923" cy="24.923" r="24.923" transform="translate(0 27.196) rotate(-33.065)" fill="#cfcfcf" style="mix-blend-mode: multiply;isolation: isolate"/>
          <circle id="Ellipse_329" data-name="Ellipse 329" cx="21.55" cy="21.55" r="21.55" transform="translate(12.437 13.445) rotate(-1.34)" fill="#fff"/>
          <g id="Group_2108" data-name="Group 2108" transform="translate(15.741 15.745)">
            <g id="Group_2105" data-name="Group 2105" transform="translate(21.961 30.87)">
              <path id="Path_2068" data-name="Path 2068" d="M472.6,312.208a2.815,2.815,0,0,1-1.983-.816,2.271,2.271,0,0,1-.344-.432,2.757,2.757,0,0,1-.264-.48,3.914,3.914,0,0,1-.16-.519,3.232,3.232,0,0,1-.056-.552,2.806,2.806,0,0,1,3.348-2.742,3,3,0,0,1,.52.16,3.132,3.132,0,0,1,.488.255,2.922,2.922,0,0,1,.423.352,2.813,2.813,0,0,1,.824,1.974,3.237,3.237,0,0,1-.056.552,3.8,3.8,0,0,1-.159.519,3.487,3.487,0,0,1-.256.48,2.646,2.646,0,0,1-.352.432,2.921,2.921,0,0,1-.423.344,2.2,2.2,0,0,1-.488.256,2.478,2.478,0,0,1-.52.16A2.6,2.6,0,0,1,472.6,312.208Z" transform="translate(-469.799 -306.616)" fill="#b3b3b3"/>
            </g>
            <g id="Group_2106" data-name="Group 2106">
              <path id="Path_2069" data-name="Path 2069" d="M459.075,306.364h0A2.8,2.8,0,0,1,456.7,303.2h0a2.8,2.8,0,0,1,3.165-2.374h0a2.807,2.807,0,0,1,2.375,3.166h0a2.8,2.8,0,0,1-2.774,2.405h0A2.165,2.165,0,0,1,459.075,306.364Zm-8.992-3.82h0a2.807,2.807,0,0,1-.48-3.933h0a2.8,2.8,0,0,1,3.925-.479h0a2.8,2.8,0,0,1,.48,3.924h0a2.781,2.781,0,0,1-2.207,1.079h0A2.783,2.783,0,0,1,450.083,302.544Zm-5.875-7.818a2.788,2.788,0,0,1,1.543-3.637h0a2.8,2.8,0,0,1,3.645,1.543h0a2.811,2.811,0,0,1-1.551,3.645h0a2.83,2.83,0,0,1-1.047.2h0A2.777,2.777,0,0,1,444.208,294.726Zm1.183-6.538a2.8,2.8,0,0,1-2.382-3.165h0a2.8,2.8,0,0,1,3.165-2.374h0a2.8,2.8,0,0,1,2.382,3.157h0a2.8,2.8,0,0,1-2.774,2.406h0A3.137,3.137,0,0,1,445.391,288.188Zm1.926-8.233a2.8,2.8,0,0,1-.488-3.924h0a2.792,2.792,0,0,1,3.925-.488h0a2.791,2.791,0,0,1,.487,3.925h0a2.78,2.78,0,0,1-2.206,1.079h0A2.784,2.784,0,0,1,447.317,279.954Zm22.589-2.782a2.791,2.791,0,0,1-.488-3.924h0a2.8,2.8,0,0,1,3.925-.5h0a2.807,2.807,0,0,1,.488,3.932h0a2.807,2.807,0,0,1-2.207,1.079h0A2.814,2.814,0,0,1,469.906,277.173Zm-16.81-3.389a2.788,2.788,0,0,1,1.542-3.637h0a2.8,2.8,0,0,1,3.646,1.543h0a2.8,2.8,0,0,1-1.551,3.645h0a2.8,2.8,0,0,1-1.047.2h0A2.788,2.788,0,0,1,453.1,273.784Zm10.463.7a2.8,2.8,0,0,1-2.374-3.165h0a2.79,2.79,0,0,1,3.158-2.375h0a2.79,2.79,0,0,1,2.381,3.158h0a2.8,2.8,0,0,1-2.765,2.406h0A3.264,3.264,0,0,1,463.559,274.487Z" transform="translate(-442.981 -268.918)" fill="#b3b3b3"/>
            </g>
            <g id="Group_2107" data-name="Group 2107" transform="translate(30.873 9.928)">
              <path id="Path_2070" data-name="Path 2070" d="M483.479,286.634a3.05,3.05,0,0,1-.543-.056,2.88,2.88,0,0,1-.528-.16,3.355,3.355,0,0,1-.479-.256,3.049,3.049,0,0,1-.432-.351,2.808,2.808,0,0,1-.816-1.974,2.63,2.63,0,0,1,.056-.552,2.437,2.437,0,0,1,.161-.519,2.761,2.761,0,0,1,.255-.487,2.883,2.883,0,0,1,.344-.424,3.241,3.241,0,0,1,.911-.608,2.865,2.865,0,0,1,.528-.151,2.814,2.814,0,0,1,2.517.759,2.479,2.479,0,0,1,.351.424,2.821,2.821,0,0,1,.256.487,2.485,2.485,0,0,1,.16.519,2.629,2.629,0,0,1,.055.552,2.81,2.81,0,0,1-2.8,2.8Z" transform="translate(-480.682 -281.041)" fill="#b3b3b3"/>
            </g>
          </g>
        </g>
      </g>
      <g id="Group_2111" data-name="Group 2111" transform="translate(175.901 59.62)">
        <path id="Path_2071" data-name="Path 2071" d="M426.448,178.183a11.954,11.954,0,0,1,2.4-12.5s20.266,13.131,42.918,9.426c0,0,2.484,6.831-4.479,13.158C467.286,188.266,443.039,192.864,426.448,178.183Z" transform="translate(-310.508 -137.648)" fill="#d6313b"/>
        <path id="Path_2072" data-name="Path 2072" d="M435.68,142.915c-14.583-12.3-42.209-14.026-77.177-8.4-30.068,4.841-60.691,16.2-70.913,32.239-4.655,7.306-1.494,27.6-1.494,27.6,27.7,1.73,37.844-22.082,37.844-22.082s-1.852-6.757,4.353-9.742c21.714-10.449,55.38-14.019,67.9-10.933a9.278,9.278,0,0,1,7.191,7.884s17.108,19.425,42.863,9.088C446.251,168.571,442.3,148.5,435.68,142.915Z" transform="translate(-285.048 -131.449)" fill="#ff3a46"/>
        <path id="Path_2073" data-name="Path 2073" d="M329.724,192.135a11.953,11.953,0,0,0-6.2-11.116s-15.121,18.828-37.79,22.421c0,0-.215,7.265,8.383,11.086C294.114,214.526,318.578,211.281,329.724,192.135Z" transform="translate(-285.172 -140.426)" fill="#d6313b"/>
      </g>
      <g id="Group_2113" data-name="Group 2113" transform="translate(93.647 174.936)">
        <g id="Group_2112" data-name="Group 2112" clip-path="url(#clip-path)">
          <rect id="Rectangle_1898" data-name="Rectangle 1898" width="132.908" height="87.756" rx="14.222" fill="#ffd71d"/>
          <path id="Path_2074" data-name="Path 2074" d="M317.512,283.913a11.647,11.647,0,0,0-11.647-11.646H196.25A11.647,11.647,0,0,0,184.6,283.913l60.268,48.858a9.712,9.712,0,0,0,12.224.007Z" transform="translate(-184.604 -272.267)" fill="#ffd71d" style="mix-blend-mode: multiply;isolation: isolate"/>
          <path id="Path_2075" data-name="Path 2075" d="M192.361,350.966V286.5a11.646,11.646,0,0,1,11.646-11.646h109.1a11.536,11.536,0,0,0-7.24-2.59H196.25A11.646,11.646,0,0,0,184.6,283.913v64.463a11.646,11.646,0,0,0,11.646,11.646h.518A11.575,11.575,0,0,1,192.361,350.966Z" transform="translate(-184.604 -272.267)" opacity="0.7" fill="url(#radial-gradient)" style="mix-blend-mode: overlay;isolation: isolate"/>
          <path id="Path_2076" data-name="Path 2076" d="M243.713,324.278,184.6,272.267H317.512L258.4,324.278A11.12,11.12,0,0,1,243.713,324.278Z" transform="translate(-184.604 -272.267)" fill="url(#linear-gradient)"/>
          <path id="Path_2077" data-name="Path 2077" d="M243.713,324.278,184.6,272.267H317.512L258.4,324.278A11.12,11.12,0,0,1,243.713,324.278Z" transform="translate(-184.604 -272.267)" fill="#fd0" opacity="0.7" style="mix-blend-mode: overlay;isolation: isolate"/>
        </g>
      </g>
      <g id="Group_2116" data-name="Group 2116" transform="translate(226.935 74.32)">
        <g id="Group_2114" data-name="Group 2114" transform="translate(27.959 0)">
          <path id="Path_2078" data-name="Path 2078" d="M394.013,196.929s3.783-10.916,4.048-12.117c1.567-7.093,1.993-22.471,1.895-25.742s-.4-6.141-.467-6.582a14.635,14.635,0,0,0-2.1-2.593,4.434,4.434,0,0,1-.631.067l-.024.41-.877-.755-.73-.041-.078.342-1.042-.5-1-.018s.649,2.076,1.018,3.338S394,154.1,394,154.1a2.751,2.751,0,0,1-1.126.209,7.84,7.84,0,0,0-1.427-.061s3.055,3.973,3.195,4.342a7.192,7.192,0,0,1,1.229,5.748,146.665,146.665,0,0,1-4.351,15.893c.1-.223-4.11,11.782-4.11,11.782Z" transform="translate(-382.579 -149.4)" fill="#fec4ad"/>
          <path id="Path_2079" data-name="Path 2079" d="M390.912,219.8c1.171-9.187,5.872-19.916,5.872-19.916s-7.184-1.422-9.041-3.977c0,0-2.476,6.047-3.9,9.054-1.576,3.329-3.786,6.952-1.008,8.929C385.516,215.8,390.5,223,390.912,219.8Z" transform="translate(-381.51 -157.822)" fill="#005d4d"/>
        </g>
        <path id="Path_2080" data-name="Path 2080" d="M359.364,372.337v5.906h11.351s-.427-2.137-5.809-3.124l-.792-2.782Z" transform="translate(-349.54 -189.774)" fill="#133a50"/>
        <path id="Path_2081" data-name="Path 2081" d="M380.446,372.337v5.906H391.8s-.427-2.137-5.81-3.124l-.791-2.782Z" transform="translate(-353.358 -189.774)" fill="#133a50"/>
        <path id="Path_2082" data-name="Path 2082" d="M361.113,264.971s-1.589,16.5-1.644,32.018-.979,57.256-.979,57.256h6.265s6.459-40.19,8.808-50.163,8.454-38.924,8.454-38.924Z" transform="translate(-349.382 -170.33)" fill="#133a50"/>
        <path id="Path_2083" data-name="Path 2083" d="M372.246,198.129s-.405,3.158-.738,4.765a12.865,12.865,0,0,1-.855,2.944,36.01,36.01,0,0,1-3.876,4.4s10.388,5.484,13.441,5.484S382.2,209.6,382.2,209.6s-3.33-2.632-3.826-3.962a29.884,29.884,0,0,1-.773-5.181Z" transform="translate(-350.883 -158.225)" fill="#fec4ad"/>
        <path id="Path_2084" data-name="Path 2084" d="M378.33,282.831s1.173,26.158,1.409,30.813,0,40.528,0,40.528,5.871.159,5.871,0,5.535-40.723,6.252-52.191.3-25.065,1.25-26.65S390.541,265,390.541,265l-8.309-.3Z" transform="translate(-352.975 -170.279)" fill="#133a50"/>
        <path id="Path_2085" data-name="Path 2085" d="M366.988,208.757s-8.77-3.52-10.221-.631c-1.1,2.183-.153,16.216.334,20.138.424,3.411,2.785,32.107,2.785,32.107s3.279,5.079,19.053,3.057c6.084-.78,9.074-3.745,9.074-3.745s-1.706-34.241-2.175-37.676a74.121,74.121,0,0,0-2.093-8.8l-4.7-3.092s1.5,3.306-2.74,4.248C367.769,216.263,366.988,208.757,366.988,208.757Z" transform="translate(-348.978 -159.829)" fill="#219587"/>
        <path id="Path_2086" data-name="Path 2086" d="M381.051,183.55c.994.4,2.733,1.3,2.927,2.125a32.963,32.963,0,0,1,.991,4.694c.092,1.458.3,4.214.3,5.932a15.149,15.149,0,0,1-1.431,5.561,8.544,8.544,0,0,1-4.253.686c-.976-.278-6.7-3.24-7.059-6.865,0,0-1.015.534-2.881-2.491-.487-.789,1.192-6.649,1.418-7.694.548-2.539,6.808-.539,8.213-.939A3.048,3.048,0,0,0,381.051,183.55Z" transform="translate(-351.386 -155.585)" fill="#fec4ad"/>
        <path id="Path_2087" data-name="Path 2087" d="M383.315,185.039s-4.386,2.746-6.1,2.887-4.224,2.493-4.178,3.222a1.585,1.585,0,0,1-.721,1.23s-1.065-1.7-1.938-1.52c-1.729.35-.713,2.481.225,2.95a14.493,14.493,0,0,0,1.85.758,8.945,8.945,0,0,1,.082,1.828,8.387,8.387,0,0,1-.731,2.141s-2.024-4.262-3.84-5.853c-4.315-3.782-1.191-10.809,3.06-12.129,1.716-.533,6.43-.887,8.725.142A6.251,6.251,0,0,1,383.315,185.039Z" transform="translate(-350.723 -154.948)" fill="#133a50"/>
        <path id="Path_2088" data-name="Path 2088" d="M375.267,192.873c.064.172.513.2.6.24.179.079.1.106.891,1.314.583.891,1.559,1.179,3.384.569,1.393-.466,1.2-1.663,1.3-2.234s.219-.667.441-.705.343.014.63.517.42,1.8,1.875,1.581c1-.151,1.268-.427,1.4-1.221a8.262,8.262,0,0,0,.115-1.922c-.039-.526-.051-.846-.318-.874a4.884,4.884,0,0,0-1.195.131,4.824,4.824,0,0,0-1.964.511c-.471.341-.419.549-.667.6s-.3-.169-.855-.329a16.925,16.925,0,0,0-3.741.4c-.868.152-2.06.478-2.037.807A2.456,2.456,0,0,0,375.267,192.873Zm7.5-1.293c.044-.426.077-.379,1.151-.624s1.186-.2,1.4-.027a2.287,2.287,0,0,1,.266,1.732,1.187,1.187,0,0,1-1.036,1.243c-.945.166-1.165-.3-1.433-.957A4.075,4.075,0,0,1,382.769,191.58Zm-6.254.7a8.139,8.139,0,0,1,2.691-.567c1.093-.135,1.457-.18,1.644.2a4.049,4.049,0,0,1,.137,1.4c-.028.707-.166,1.326-1.87,1.633a1.83,1.83,0,0,1-2.28-1.015A1.992,1.992,0,0,1,376.515,192.278Zm-3.646,1.085,2.4-.491.81-1.183s-.92.131-2.443.469a4.667,4.667,0,0,0-1.444.681A2.355,2.355,0,0,1,372.869,193.363Z" transform="translate(-351.863 -156.776)" fill="#21295b"/>
        <g id="Group_2115" data-name="Group 2115" transform="translate(0 8.552)">
          <path id="Path_2089" data-name="Path 2089" d="M349.465,199.823s-2.075-13.144-2.095-14.374c-.119-7.264,3.563-17.022,4.313-20.207s1.249-2.681,1.4-3.1,5.426-1.226,5.426-1.226a14.069,14.069,0,0,1,1.749-.625c.332-.033,1.724-.449,1.724-.449l-.81,1.455s-3.289,2.5-3.5,2.834a7.19,7.19,0,0,0-2.352,5.388c-.135,6.5-.115,13.54-.115,13.54-.048-.237,3.112,13.459,3.112,13.459Z" transform="translate(-347.368 -159.843)" fill="#fec4ad"/>
          <path id="Path_2090" data-name="Path 2090" d="M355.665,226.87c-2.232-6.335-7.338-23.348-7.338-23.348s7.592-1.911,9.733-4.232c0,0,2.562,7.607,3.626,10.76,1.178,3.489,2.951,7.346-.038,8.986C358.762,220.619,356.737,229.912,355.665,226.87Z" transform="translate(-347.541 -166.987)" fill="#219587"/>
        </g>
      </g>
      <g id="Group_2120" data-name="Group 2120" transform="translate(328.772 80.191)">
        <g id="Group_2117" data-name="Group 2117" transform="translate(5.039 56.521)">
          <path id="Path_2091" data-name="Path 2091" d="M531.5,245.273c1.971,1.834,3.365,1.22,6.324,11.352,1.891,6.473,8.788,39.12,8.788,39.12l-4.12,1.788c-5.571-15.6-5.564-15.589-12.073-28.255a56.325,56.325,0,0,1-4.476-12.194l-12.033-.722c-7.523-3.091-4.945-14.072-4.945-14.072S529.53,243.439,531.5,245.273Z" transform="translate(-483.432 -228.614)" fill="url(#linear-gradient-2)"/>
          <path id="Path_2092" data-name="Path 2092" d="M480.367,232.543l10.857-6.953,10.5,8.159,13.082,4.226-.07.04c5.261,1.825,11.27,4.488,13.115,6.2,1.971,1.834,5.856,4.438,2.723,14.517-2,6.44-10.727,39.062-10.727,39.062l-4.422-.787s1.571-18.9,3.145-33.043c.762-6.855,1.021-8.767,1.021-8.767s-29.209,3.185-38.62-1.785C474.386,249.936,480.367,237.814,480.367,232.543Z" transform="translate(-477.879 -225.59)" fill="url(#linear-gradient-3)"/>
          <path id="Path_2093" data-name="Path 2093" d="M528.258,310.881s-.129,1.187-2.031,1.723a3.237,3.237,0,0,1-3.2-1.036l-.422,3.879,6.075,4.283h5.047L531,316.7Z" transform="translate(-485.98 -241.036)" fill="#133a50"/>
          <path id="Path_2094" data-name="Path 2094" d="M553.328,304.318a2.085,2.085,0,0,1-.753,2.752,3.236,3.236,0,0,1-3.361-.013l.78,3.823,14.347-4.488Z" transform="translate(-490.798 -239.848)" fill="#133a50"/>
        </g>
        <g id="Group_2119" data-name="Group 2119">
          <path id="Path_2095" data-name="Path 2095" d="M532.728,182.393a30.626,30.626,0,0,1-2.39-2.845l-.551-2.5s-.966-1.292-1.713-2.073-1.41-4.126-1.41-4.126l.971-.586a12.133,12.133,0,0,0,.766,1.826,1.735,1.735,0,0,0,.942.385,18.209,18.209,0,0,0,.03-2.327,20.376,20.376,0,0,0-.888-3.927l.81-.395a17.82,17.82,0,0,1,.776,1.8c.171.57.47,1.743.47,1.743a19.649,19.649,0,0,0-.248-2.661c-.188-.768-.33-1.766-.33-1.766l.848-.218a16.265,16.265,0,0,1,.563,2.146c.136.88.438,2.367.438,2.367a25.75,25.75,0,0,0,.033-2.707,8.818,8.818,0,0,1-.089-.952l.9.023a6.864,6.864,0,0,1,.319,2.04,9.5,9.5,0,0,0,.091,1.621,10.242,10.242,0,0,0,.251-2.211,1.881,1.881,0,0,1-.034-.75l.694.118s.394,2.756.52,4.42-.076,3.775-.092,4.952-.045,2.1-.045,2.1Z" transform="translate(-481.675 -158.047)" fill="#fec4ad"/>
          <path id="Path_2096" data-name="Path 2096" d="M510.056,188.53a109.3,109.3,0,0,0,11.2,8s2.083-5.225,3.076-8.926c1.186-4.42,1.534-6.456,1.534-6.456l4.224-.346s-1.338,11.3-3,18.971c-1.616,7.454-3.647,6.121-5.433,5.756s-18.6-9.4-18.6-9.4l1.8-9.6S506.053,185.242,510.056,188.53Z" transform="translate(-477.4 -160.958)" fill="#fec4ad"/>
          <path id="Path_2097" data-name="Path 2097" d="M489.911,157c.9-.513,5.24-.87,7.959.8,5.2,3.2,2.7,11.975,2.379,14s1.54,5.661,1.509,8.074-.606,3.287-2.408,5.623a4.473,4.473,0,0,0-.671,1.865,17.218,17.218,0,0,1-2.42-7.13c-.426-4.151-1.308-3.183-3.384-7.742s-2.168-11.424-2.168-11.424Z" transform="translate(-475.019 -156.57)" fill="#030303"/>
          <path id="Path_2098" data-name="Path 2098" d="M491.831,160.059l-4.325-2.974a6.323,6.323,0,0,0-5.84,2.792c-2.145,3.286-2.892,8.045-3.375,11.62s-1.742,10.3-1.656,12.962,3.326,3.03,3.326,3.03l10.864-4.7a32.247,32.247,0,0,1-.1-11.8A58.558,58.558,0,0,0,491.831,160.059Z" transform="translate(-472.614 -156.659)" fill="#030303"/>
          <path id="Path_2099" data-name="Path 2099" d="M497.115,161.44a64.658,64.658,0,0,1,1.378,7.871c.1,2.548-.2,6.744-1.886,7.9s-4.856.233-7.175-.726a5.465,5.465,0,0,1-3.332-4.081c-.453-1.5-.293-5.466.237-8.312a5.067,5.067,0,0,1,4.429-4.384C492.86,159.319,497.115,161.44,497.115,161.44Z" transform="translate(-474.281 -157.13)" fill="#fec4ad"/>
          <path id="Path_2100" data-name="Path 2100" d="M486.849,173.409s.593,6.332-.739,9.312c-.919,2.056-4.642,2.928-4.642,2.928a20.992,20.992,0,0,0,3.6,11.194c3.736,5.5,15.418,7.532,15.418,7.532a50.977,50.977,0,0,0,3.488-9.733,11.357,11.357,0,0,0-2.058-9.118s-3.159-1.033-4.674-1.6c-3.681-1.386-3.25-7.237-3.25-7.237Z" transform="translate(-473.49 -159.62)" fill="#fec4ad"/>
          <path id="Path_2101" data-name="Path 2101" d="M492.6,190.5s-7.553-1.919-9.822-3.392l-7.49,4.452s-4.4,4.2,3.109,15.234c0,0,2.85,10.051-1.776,27.76,0,0,1.25,4.561,8.266,2.132,6.039-2.09,6.174-3.724,11.465-5.066,7.811-1.981,9.865-3.2,9.865-3.2-4.1-6.165-3.373-15.793-3.373-15.793s4.651-4.452,2.657-9c-2.878-6.568-3.842-15.863-3.842-15.863l-4.009-1.016a30.213,30.213,0,0,1-3.2,3.411A1.715,1.715,0,0,1,492.6,190.5Z" transform="translate(-472.138 -162.035)" fill="#2e5990"/>
          <path id="Path_2102" data-name="Path 2102" d="M500,186.243s-.92,3.422-3.291,4.166c0,0,.928,4.688,3.148,3.873,3.117-1.143,1.9-7.627,1.9-7.627Z" transform="translate(-476.25 -161.944)" fill="#fff"/>
          <path id="Path_2103" data-name="Path 2103" d="M483.61,186.25s1.48,7.16,5.436,7.74,5.289-3.772,5.289-3.772-8.386-2.46-9.206-5.026Z" transform="translate(-473.878 -161.754)" fill="#fff"/>
          <path id="Path_2104" data-name="Path 2104" d="M489.543,159.614c-.73.048-1.268,3.5-1.341,5.424s-2.956,3.444-1.684,7.68,1.1,8.326,2.806,12.967-.418,6.342-1.34,7.941a61.743,61.743,0,0,1-4.886-6,4.818,4.818,0,0,0-5.219-2.339s5.573-10.823,5.384-13.742-.7-7.375,1.62-10.039S489.543,159.614,489.543,159.614Z" transform="translate(-472.84 -157.102)" fill="#030303"/>
          <path id="Path_2105" data-name="Path 2105" d="M487.788,169.868s-1.549-1.7-2.572-1.438-1.087,1.793-.309,3.05,3.662,1.965,3.662,1.965Z" transform="translate(-474.017 -158.713)" fill="#fec4ad"/>
          <path id="Path_2106" data-name="Path 2106" d="M492.233,164.746a20.528,20.528,0,0,0,4.4-.319c2.81-.309,3.994.412,3.994.412l-1.062-4.671s-3.28-1.823-5.6-1.806c-2.957.02-5.545,1.151-4.08,2.107C491.431,161.481,492.233,164.746,492.233,164.746Z" transform="translate(-474.937 -156.895)" fill="#030303"/>
          <g id="Group_2118" data-name="Group 2118" transform="translate(0 29.166)">
            <path id="Path_2107" data-name="Path 2107" d="M481.229,197.779c-.5,5.861-2.226,22.562-2.226,22.562,5.333,4.666,12.882,12.424,12.882,12.424s-2.149,4.237-3.068,3.518c-7.348-5.744-15.747-9.144-16.347-13.143-.985-6.568-1.324-23.093,1.094-28.468C475.43,190.53,481.761,191.562,481.229,197.779Z" transform="translate(-471.726 -192.186)" fill="#fec4ad"/>
            <path id="Path_2108" data-name="Path 2108" d="M498.8,242.148c2.233.839,3.638,1.661,3.5,2.494-.092.574-2-.475-3.138-.438a6.332,6.332,0,0,0,2.714,2.663c1.475.726,2.3,1.734,1.511,2.588s-2.245,2.048-3.2,1.611-4.321-2.792-5.591-3.443-1.777-2.248-2.431-2.686,1.2-3.8,1.2-3.8c.351.1,2.192.491,2.192.491a11.715,11.715,0,0,0,1.825.152A4.455,4.455,0,0,1,498.8,242.148Z" transform="translate(-475.404 -201.051)" fill="#fec4ad"/>
          </g>
        </g>
      </g>
    </g>
  </g>
</svg>
