<svg xmlns="http://www.w3.org/2000/svg" width="11.285" height="10.165" viewBox="0 0 11.285 10.165"><defs><style>.a,.b{fill:#207ebb;}.b{opacity:0.3;}</style></defs><path class="a" d="M9.593,8.964a.651.651,0,0,0-.157-.376.688.688,0,0,0-.376-.157.434.434,0,0,0-.219.063l-.94.94a.534.534,0,0,0-.125.219.456.456,0,0,0,.031.313c.031.031.063.094.094.125l.125.125a.405.405,0,0,0,.251.063.427.427,0,0,0,.282-.157l.94-.94A.287.287,0,0,0,9.593,8.964Zm-1-.94a.651.651,0,0,0-.157-.376.688.688,0,0,0-.376-.157.434.434,0,0,0-.219.063l-.94.94a.534.534,0,0,0-.125.219.456.456,0,0,0,.031.313c.031.031.063.094.094.125l.125.125a.405.405,0,0,0,.251.063.427.427,0,0,0,.282-.157l.94-.94A.287.287,0,0,0,8.59,8.024Zm7.3-3.228a3.206,3.206,0,0,0-3.761-2.7A3.9,3.9,0,0,0,9.875,3.229L8.088,4.984A1.323,1.323,0,0,0,9.937,5.3l1.348-1.316,3.7,3.7A3.651,3.651,0,0,0,15.893,4.8Zm-4.827,5.611c-.188-.031-.251.063-.251.063l-.972.94a.493.493,0,0,0-.094.376.415.415,0,0,0,.219.282.526.526,0,0,0,.6-.063c.157-.125.533-.5.658-.627.157-.157.313-.282.313-.5A.489.489,0,0,0,11.066,10.406Zm-.5-.376a.607.607,0,0,0-.188-.407.709.709,0,0,0-.407-.188c-.125,0-.157.031-.157.031l-.94.909a.438.438,0,0,0-.125.251c-.063.313.251.47.345.5a.426.426,0,0,0,.47-.063l.94-.909C10.533,10.156,10.564,10.124,10.564,10.03Z" transform="translate(-4.643 -1.971)"/><path class="b" d="M6.683,4.361l-1.034,1a1.754,1.754,0,0,1-2.414-.251l-.376-.345L5.335,2.418a3.492,3.492,0,0,0-4.451.407A3.005,3.005,0,0,0,.069,5.552a5.383,5.383,0,0,0,1.661,2.7l.282-.282c.031-.031.063-.031.063-.063L3.2,6.837a.434.434,0,0,1,.219-.063,1.029,1.029,0,0,1,.658.188,1.23,1.23,0,0,1,.376.752,1.017,1.017,0,0,1,.69.313.979.979,0,0,1,.282.658A1.017,1.017,0,0,1,6.119,9a1.4,1.4,0,0,1,.313.658.934.934,0,0,1,.784.439c.063.094.376.094.564-.063a.535.535,0,0,0,.063-.752L5.429,6.931a.2.2,0,0,1,.282-.282L8.093,9.031a.469.469,0,0,0,.815-.407.957.957,0,0,0-.157-.282L6.4,5.991a.2.2,0,0,1,.282-.282L9.1,8.091a.484.484,0,0,0,.407.157.492.492,0,0,0,.407-.721Z" transform="translate(-0.009 -1.787)"/></svg>