<svg xmlns="http://www.w3.org/2000/svg" width="10.211" height="12" viewBox="0 0 10.211 12"><defs><style>.a{fill:gray;}</style></defs><path class="a" d="M13.2,3.388a.712.712,0,0,0-.462-.231H10.773V2.985A1.417,1.417,0,0,0,9.331,1.6H7.023A1.4,1.4,0,0,0,5.638,2.985v.173h-1.9a.64.64,0,0,0-.635.635.653.653,0,0,0,.635.692h.288v7.5A1.651,1.651,0,0,0,5.638,13.6h5.134a1.651,1.651,0,0,0,1.615-1.615v-7.5h.288a.632.632,0,0,0,.635-.577A.857.857,0,0,0,13.2,3.388ZM6.908,3.158V2.985a.124.124,0,0,1,.115-.115H9.331c.058,0,.115,0,.115.115v.173Zm4.269,8.6h0l-.058.231a.306.306,0,0,1-.346.346H5.7a.306.306,0,0,1-.346-.346v-7.5h5.827Z" transform="translate(-3.1 -1.6)"/><path class="a" d="M13.835,14.215a.64.64,0,0,0,.635-.635V8.735a.635.635,0,1,0-1.269,0v4.846A.682.682,0,0,0,13.835,14.215Z" transform="translate(-7.373 -4.35)"/><path class="a" d="M9.235,14.215a.64.64,0,0,0,.635-.635V8.735A.629.629,0,0,0,9.292,8.1a.694.694,0,0,0-.462.115.731.731,0,0,0-.231.519v4.846A.682.682,0,0,0,9.235,14.215Z" transform="translate(-5.427 -4.35)"/></svg>
