<svg id="Layer_1" data-name="Layer 1" xmlns="http://www.w3.org/2000/svg" viewBox="0 0 32.49 24.7"><g id="menu"><g id="Group_12" data-name="Group 12"><g id="Group_11" data-name="Group 11"><path id="Path_28" data-name="Path 28" d="M32.88,5.65H3.12c-.75,0-1.36,1-1.37,2.23s.6,2.26,1.35,2.27H32.88c.75,0,1.36-1,1.37-2.23s-.6-2.26-1.35-2.27Z" transform="translate(-1.75 -5.65)"/></g></g><g id="Group_14" data-name="Group 14"><g id="Group_13" data-name="Group 13"><path id="Path_29" data-name="Path 29" d="M32.88,15.75H3.12c-.75,0-1.36,1-1.36,2.25s.61,2.25,1.36,2.25H32.88c.75,0,1.36-1,1.36-2.25s-.61-2.25-1.36-2.25Z" transform="translate(-1.75 -5.65)"/></g></g><g id="Group_16" data-name="Group 16"><g id="Group_15" data-name="Group 15"><path id="Path_30" data-name="Path 30" d="M32.88,25.85H3.12c-.75,0-1.36,1-1.36,2.25s.61,2.25,1.36,2.25H32.88c.75,0,1.36-1,1.36-2.25s-.61-2.25-1.36-2.25Z" transform="translate(-1.75 -5.65)"/></g></g></g></svg>