<svg id="Layer_1" data-name="Layer 1" xmlns="http://www.w3.org/2000/svg" viewBox="0 0 26.99 32"><g id="document"><g id="Group_2" data-name="Group 2"><g id="Group_1" data-name="Group 1"><path id="Path_4" data-name="Path 4" d="M6.05,29.76h2.7v2.7A1.54,1.54,0,0,0,10.29,34H30a1.54,1.54,0,0,0,1.54-1.54V7.78A1.54,1.54,0,0,0,30,6.24h-2.7V3.54A1.54,1.54,0,0,0,25.71,2H12.6A4.52,4.52,0,0,0,9.94,3.06L5.63,7.11a4.08,4.08,0,0,0-1.12,2.6V28.22A1.54,1.54,0,0,0,6.05,29.76Zm21.2-1.54V7.4H30a.4.4,0,0,1,.39.38V32.46a.4.4,0,0,1-.39.38H10.29a.4.4,0,0,1-.39-.38v-2.7H25.71A1.54,1.54,0,0,0,27.25,28.22ZM6.42,8,10.73,3.9a2,2,0,0,1,.33-.24V7.2a1,1,0,0,1-1,1H6.24A1.92,1.92,0,0,1,6.42,8ZM5.66,9.71a1.59,1.59,0,0,1,.06-.38H10.1A2.14,2.14,0,0,0,12.22,7.2v-4a2.33,2.33,0,0,1,.38,0H25.71a.4.4,0,0,1,.39.38V28.22a.4.4,0,0,1-.39.38H6.05a.4.4,0,0,1-.39-.38Z" transform="translate(-4.51 -2)"/></g></g><g id="Group_4" data-name="Group 4"><g id="Group_3" data-name="Group 3"><path id="Path_5" data-name="Path 5" d="M10.29,24.36H21.47a.58.58,0,0,0,.58-.58.59.59,0,0,0-.58-.58H10.29a.59.59,0,0,0-.58.58A.58.58,0,0,0,10.29,24.36Z" transform="translate(-4.51 -2)"/></g></g><g id="Group_6" data-name="Group 6"><g id="Group_5" data-name="Group 5"><path id="Path_6" data-name="Path 6" d="M10.29,16.65H21.47a.58.58,0,1,0,0-1.16H10.29a.58.58,0,0,0,0,1.16Z" transform="translate(-4.51 -2)"/></g></g><g id="Group_8" data-name="Group 8"><g id="Group_7" data-name="Group 7"><path id="Path_7" data-name="Path 7" d="M15.3,12.8h6.17a.58.58,0,1,0,0-1.16H15.3a.58.58,0,0,0,0,1.16Z" transform="translate(-4.51 -2)"/></g></g><g id="Group_10" data-name="Group 10"><g id="Group_9" data-name="Group 9"><path id="Path_8" data-name="Path 8" d="M10.29,20.51H21.47a.58.58,0,0,0,0-1.16H10.29a.58.58,0,0,0,0,1.16Z" transform="translate(-4.51 -2)"/></g></g></g></svg>