<svg xmlns="http://www.w3.org/2000/svg" width="40" height="40" viewBox="0 0 40 40"><defs><style>.a{isolation:isolate;}.b,.c{fill:#207ebb;}.c{opacity:0.3;}</style></defs><g class="a"><path class="b" d="M17.738,1.5a1.461,1.461,0,0,0-1.5-1.5H1.5A1.461,1.461,0,0,0,0,1.5V16.242a1.461,1.461,0,0,0,1.5,1.5H16.242a1.461,1.461,0,0,0,1.5-1.5Z"/><path class="c" d="M37.138,1.5a1.461,1.461,0,0,0-1.5-1.5H20.9a1.461,1.461,0,0,0-1.5,1.5V16.242a1.461,1.461,0,0,0,1.5,1.5H35.642a1.461,1.461,0,0,0,1.5-1.5Z" transform="translate(2.862)"/><path class="c" d="M20.9,37.138H35.642a1.461,1.461,0,0,0,1.5-1.5V20.9a1.461,1.461,0,0,0-1.5-1.5H20.9a1.461,1.461,0,0,0-1.5,1.5V35.642A1.461,1.461,0,0,0,20.9,37.138Z" transform="translate(2.862 2.862)"/><path class="c" d="M16.242,19.4H1.5A1.461,1.461,0,0,0,0,20.9V35.642a1.461,1.461,0,0,0,1.5,1.5H16.242a1.461,1.461,0,0,0,1.5-1.5V20.9A1.461,1.461,0,0,0,16.242,19.4Z" transform="translate(0 2.862)"/></g></svg>