<svg id="Layer_1" data-name="Layer 1" xmlns="http://www.w3.org/2000/svg" viewBox="0 0 36 36"><path d="M15,10.47v13H2v-13H15m1-1H1v15H16Z"/><path d="M12.9,14a.36.36,0,0,0-.49,0L6.82,19.57l-2.19-2.2a.34.34,0,0,0-.49.07.36.36,0,0,0,0,.42L6.58,20.3a.36.36,0,0,0,.49,0l5.83-5.83A.36.36,0,0,0,12.9,14Z"/><path d="M34,10.47v13H21v-13H34m1-1H20v15H35Z"/><path d="M31.9,14a.36.36,0,0,0-.49,0l-5.59,5.59-2.19-2.2a.34.34,0,0,0-.49-.07.35.35,0,0,0-.07.49.46.46,0,0,0,.07.07l2.44,2.44a.36.36,0,0,0,.49,0l5.83-5.83A.36.36,0,0,0,31.9,14Z"/></svg>