<svg xmlns="http://www.w3.org/2000/svg" width="12.066" height="12" viewBox="0 0 12.066 12"><defs><style>.a{fill:gray;}</style></defs><path class="a" d="M11.267,27H.767A.709.709,0,0,1,0,26.267v-3A.718.718,0,0,1,.767,22.5a.718.718,0,0,1,.767.767v2.267h9V23.267a.767.767,0,1,1,1.533,0v3A.8.8,0,0,1,11.267,27Z" transform="translate(0 -15)"/><path class="a" d="M13.95,3.967a.705.705,0,0,0-1.033,0L11.183,5.7V.767a.767.767,0,1,0-1.533,0V5.733L7.917,4A.754.754,0,0,0,6.85,5.067l3,3c.067.067.133.167.233.167a.708.708,0,0,0,.6,0c.067-.067.133-.067.233-.167l3-3A.757.757,0,0,0,13.95,3.967Z" transform="translate(-4.417)"/></svg>