<svg xmlns="http://www.w3.org/2000/svg" width="10.056" height="10" viewBox="0 0 10.056 10"><defs><style>.a{fill:#ffffff;}</style></defs><path class="a" d="M9.389,26.305H.639A.6.6,0,0,1,0,25.685V23.148A.6.6,0,0,1,.639,22.5a.6.6,0,0,1,.639.648v1.917h7.5V23.148a.639.639,0,1,1,1.278,0v2.537A.669.669,0,0,1,9.389,26.305Z" transform="translate(0 -16.305)"/><path class="a" d="M12.675,3.354a.574.574,0,0,0-.853,0L10.39,4.82V.648a.633.633,0,1,0-1.266,0v4.2L7.692,3.383a.605.605,0,0,0-.881,0,.64.64,0,0,0,0,.9L9.289,6.822c.055.056.11.141.193.141.055.056.193.056.248.056s.193,0,.248-.056.11-.056.193-.141l2.478-2.537A.65.65,0,0,0,12.675,3.354Z" transform="translate(-4.758)"/></svg>
