<svg xmlns="http://www.w3.org/2000/svg" width="12" height="12" viewBox="0 0 12 12">
	<defs>
		<style>
			.a{fill:none;}.b{fill:#207ebb;fill-rule:evenodd;}
		</style>
	</defs>
	<rect class="a" width="12" height="12" />
	<g transform="translate(0)">
		<path class="b" d="M18.311,3.963,13.147,9.127H10.8V6.78l5.164-5.164ZM19.178.749c-.65-.65-1.444-.9-1.806-.542l-.9.9,2.347,2.347.939-.939c.325-.325.072-1.119-.578-1.769Z" transform="translate(-7.9 -0.027)" />
		<path class="b" d="M6,0H.667A.669.669,0,0,0,0,.667V11.333A.669.669,0,0,0,.667,12H11.333A.669.669,0,0,0,12,11.333V6H10.8v4.8H1.2V1.2H6Z" transform="translate(0)" />
	</g>
</svg>
