<svg xmlns="http://www.w3.org/2000/svg" width="12.5" height="10" viewBox="0 0 12.5 10"><defs><style>.a{fill:#959cb6;}</style></defs><g transform="translate(-2 -4)"><path class="a" d="M7.749,9.869a.982.982,0,0,0,1.037,0l5.73-3.591A2.543,2.543,0,0,0,12.017,4h-7.5A2.545,2.545,0,0,0,2.05,6.278Z" transform="translate(-0.017 0)"/><path class="a" d="M9.087,11.784a1.66,1.66,0,0,1-1.675,0L2,8.6v4.531A2.475,2.475,0,0,0,4.5,15.58H12a2.475,2.475,0,0,0,2.5-2.449V8.6Z" transform="translate(0 -1.58)"/></g></svg>