<svg id="Layer_1" data-name="Layer 1" xmlns="http://www.w3.org/2000/svg" viewBox="0 0 32 32"><path id="Path_37" data-name="Path 37" d="M30.33,4.67a1,1,0,0,1,1,1v18a1,1,0,0,1-1,1H15.41a2.67,2.67,0,0,0-1.88.78L10,29V27.34a2.66,2.66,0,0,0-2.67-2.67H5.67a1,1,0,0,1-1-1v-18a1,1,0,0,1,1-1Zm0-2.67H5.67A3.66,3.66,0,0,0,2,5.66H2v18a3.68,3.68,0,0,0,3.66,3.67H7.33V33a1,1,0,0,0,1,1,1,1,0,0,0,.7-.29l6.37-6.37H30.33A3.67,3.67,0,0,0,34,23.67h0v-18A3.66,3.66,0,0,0,30.34,2Z" transform="translate(-2 -2)"/><path id="Path_38" data-name="Path 38" d="M14,17.23a1,1,0,0,1,.14,1.41,1,1,0,0,1-1.42.13l-4-3.33A1,1,0,0,1,8.57,14l.12-.13,4-3.33a1,1,0,0,1,1.42.11A1,1,0,0,1,14,12.08l0,0-3.08,2.56Z" transform="translate(-2 -2)"/><path id="Path_39" data-name="Path 39" d="M19.63,10.28,17,19.61a1,1,0,0,1-1.22.69h0A1,1,0,0,1,15,19.05l2.67-9.33A1,1,0,0,1,18.93,9h0A1,1,0,0,1,19.63,10.28Z" transform="translate(-2 -2)"/><path id="Path_40" data-name="Path 40" d="M26,15.44l-4,3.33A1,1,0,0,1,20.33,18a1,1,0,0,1,.36-.78l3.08-2.56-3.08-2.56a1,1,0,0,1-.16-1.41,1,1,0,0,1,1.41-.16l0,0,4,3.33a1,1,0,0,1,.13,1.43Z" transform="translate(-2 -2)"/></svg>