<svg xmlns="http://www.w3.org/2000/svg" width="11.111" height="10" viewBox="0 0 11.111 10">
    <defs>
        <style>.a{fill:#ffffff;}</style>
    </defs>
    <path class="a" d="M16.959,4.533,13.74,1.85a.279.279,0,0,0-.388.03.424.424,0,0,0-.06.179v1.4C10.61,4.056,9,5.725,9,7.961a.267.267,0,0,0,.268.268.286.286,0,0,0,.268-.179c.447-1.371,2.266-1.908,3.756-1.967V7.424a.267.267,0,0,0,.268.268.424.424,0,0,0,.179-.06L16.959,4.95a.279.279,0,0,0,.03-.388l-.03-.03Z" transform="translate(-5.942 -1.786)" />
    <path class="a" d="M10.014,9.721a.554.554,0,0,0-.556.556h0v1.669H1.113V4.713H3.338a.556.556,0,0,0,0-1.113H.556A.554.554,0,0,0,0,4.156H0V12.5a.554.554,0,0,0,.556.556h9.457a.554.554,0,0,0,.556-.556h0V10.277a.554.554,0,0,0-.556-.556Z" transform="translate(0 -3.059)" />
</svg>