<svg xmlns="http://www.w3.org/2000/svg" width="16.155" height="16.11" viewBox="0 0 16.155 16.11"><defs><style>.a{fill:#595d6e;}</style></defs><path class="a" d="M.359,952.4a.347.347,0,0,0-.314.359v3.68A.354.354,0,0,0,.4,956.8H4.039a.354.354,0,0,0,.359-.359v-3.68a.354.354,0,0,0-.359-.359Zm.4.718H3.68v2.917H.763Zm4.712,0a.382.382,0,0,0,.045.763H15.8a.359.359,0,0,0,0-.718H5.475C5.52,953.118,5.475,953.118,5.475,953.118Zm0,2.2a.382.382,0,1,0,.045.763H15.8a.359.359,0,1,0,0-.718H5.475C5.52,955.317,5.475,955.317,5.475,955.317Zm-5.116,2.2a.347.347,0,0,0-.314.359v5.161a.354.354,0,0,0,.359.359H8.841a.354.354,0,0,0,.359-.359v-5.161a.354.354,0,0,0-.359-.359Zm10.277,0a.347.347,0,0,0-.314.359v5.161a.354.354,0,0,0,.359.359H15.8a.354.354,0,0,0,.359-.359v-5.161a.354.354,0,0,0-.359-.359Zm-9.873.763H8.482v4.4H.763Zm10.277,0h4.4v4.4h-4.4v-4.4Zm1.077,5.834a.354.354,0,0,0-.359.359v3.68a.354.354,0,0,0,.359.359H15.8a.354.354,0,0,0,.359-.359v-3.68a.354.354,0,0,0-.359-.359Zm-11.757.763a.382.382,0,1,0,.045.763H10.68a.359.359,0,0,0,0-.718H.359Zm12.116,0h2.917v2.917H12.475Zm-12.116,2.2a.382.382,0,0,0,.045.763H10.68a.359.359,0,0,0,0-.718H.359Z" transform="translate(0 -952.4)"/></svg>