<?xml version="1.0" encoding="utf-8"?>
<!-- Generator: Adobe Illustrator 24.1.2, SVG Export Plug-In . SVG Version: 6.00 Build 0)  -->
<svg version="1.1" id="Layer_1" xmlns="http://www.w3.org/2000/svg" xmlns:xlink="http://www.w3.org/1999/xlink" x="0px" y="0px"
	 viewBox="0 0 36 36" style="enable-background:new 0 0 36 36;" xml:space="preserve">
<path d="M31.6,7.4l-6.1-6.1c-0.1-0.1-0.3-0.2-0.4-0.3C25,1,24.8,1,24.7,1H8.9c-2,0-3.6,1.6-3.6,3.6c0,0,0,0,0,0l0,0v26.7
	c0,2,1.6,3.6,3.6,3.6c0,0,0,0,0,0h19.4c2,0,3.6-1.6,3.6-3.6c0,0,0,0,0,0l0,0V8.3C31.9,8,31.8,7.7,31.6,7.4z M25.9,5.2l1.9,1.9h-1.9
	V5.2z M29.5,31.4c0,0.7-0.5,1.2-1.2,1.2H8.9c-0.7,0-1.2-0.5-1.2-1.2V4.6c0-0.7,0.6-1.2,1.2-1.2h14.6v4.9c0,0.7,0.5,1.2,1.2,1.2h4.8
	L29.5,31.4z"/>
</svg>
