<svg xmlns:cc="http://creativecommons.org/ns#" xmlns:dc="http://purl.org/dc/elements/1.1/" xmlns:inkscape="http://www.inkscape.org/namespaces/inkscape" xmlns:rdf="http://www.w3.org/1999/02/22-rdf-syntax-ns#" xmlns:sodipodi="http://sodipodi.sourceforge.net/DTD/sodipodi-0.dtd" xmlns:svg="http://www.w3.org/2000/svg" xmlns="http://www.w3.org/2000/svg" xmlns:xlink="http://www.w3.org/1999/xlink" version="1.1" id="Layer_1" x="0px" y="0px" viewBox="0 0 36 36" style="enable-background:new 0 0 36 36;" xml:space="preserve">
<style type="text/css">
	.st0{fill:#ffffff;}
</style>
<g transform="translate(0,-1028.3622)">
	<path class="st0" d="M17.1,1029.4c-0.5,0-0.8,0.2-1.1,0.5c-0.3,0.3-0.4,0.5-0.6,0.8c-0.2,0.5-0.4,0.7-0.5,0.7l-3.3,1.7H7.8   c-1.2,0-2.3,1-2.3,2.3v25.9c0,1.2,1,2.3,2.3,2.3h20.5c1.2,0,2.3-1,2.3-2.3v-25.9c0-1.2-1-2.3-2.3-2.3h-3.6l-3.4-1.6   c-0.2-0.2-0.4-0.5-0.6-0.9c-0.2-0.2-0.3-0.5-0.7-0.7c-0.4-0.2-0.7-0.4-1.1-0.4H17.1L17.1,1029.4z M17.2,1031.2h1.8c0.1,0,0,0,0.1,0   c0,0,0.1,0.1,0.2,0.2c0.2,0.3,0.4,0.8,0.9,1.3l0.1,0.1l3.2,1.5v1.3c0,0.5-0.4,0.8-0.8,0.8h-9c-0.5,0-0.8-0.6-0.8-0.8v-1.2l3.1-1.6   c0.8-0.4,1-1,1.2-1.4C17.1,1031.3,17.1,1031.2,17.2,1031.2L17.2,1031.2z M7.8,1034.7h3.1v0.9c0,1.4,1.1,2.6,2.6,2.6h9   c1.4,0,2.6-1.2,2.6-2.6v-0.9h3.1c0.3,0,0.6,0.2,0.6,0.6v25.9c0,0.3-0.2,0.6-0.6,0.6H7.8c-0.3,0-0.6-0.2-0.6-0.6v-25.9   C7.2,1034.9,7.4,1034.7,7.8,1034.7z M21.1,1040.9l-4.2,4.5l-2-1.9l-1.2,1.3l3.3,3.1l5.5-5.9L21.1,1040.9z M10.8,1050.8v1.8h14.4   v-1.8H10.8z M10.8,1056.2v1.8h14.4v-1.8H10.8z"/>
</g>
</svg>
