<svg id="Layer_1" data-name="Layer 1" xmlns="http://www.w3.org/2000/svg" viewBox="0 0 24.6 32.29"><g id="slides"><path id="Path_35" data-name="Path 35" d="M30,9.7,22.45,2.13a.91.91,0,0,0-.67-.28H8.54A2.84,2.84,0,0,0,5.7,4.69V31.31a2.84,2.84,0,0,0,2.84,2.84H27.46a2.84,2.84,0,0,0,2.84-2.84V10.37A1,1,0,0,0,30,9.7ZM22.73,5.08l4.34,4.34H23.68a.94.94,0,0,1-.95-.94Zm4.73,27.18H8.54a1,1,0,0,1-.95-.95V4.69a1,1,0,0,1,.95-1h12.3V8.48a2.84,2.84,0,0,0,2.84,2.83h4.73v20A1,1,0,0,1,27.46,32.26Z" transform="translate(-5.7 -1.85)"/><path id="Path_36" data-name="Path 36" d="M23.68,16.17H12.32a.94.94,0,0,0-.94.95h0v9.46a.94.94,0,0,0,.94.94H23.68a.94.94,0,0,0,.94-.94V17.12a.94.94,0,0,0-.94-.95Zm-.95,9.46H13.27V18.06h9.46Z" transform="translate(-5.7 -1.85)"/></g></svg>