<svg xmlns="http://www.w3.org/2000/svg" width="10.867" height="11.283" viewBox="0 0 10.867 11.283"><defs><style>.a,.b{fill:#207ebb;}.a{opacity:0.3;}</style></defs><g transform="translate(0 0)"><path class="a" d="M13.319,6.931a4.046,4.046,0,0,0,2.257.564h2.131a.6.6,0,0,0,.6-.6.576.576,0,0,0-.6-.6h.063a.606.606,0,0,0,.6-.5.592.592,0,0,0-.6-.658h.063a.606.606,0,0,0,.6-.5.592.592,0,0,0-.6-.658h.094a.6.6,0,0,0,.6-.6.576.576,0,0,0-.6-.6H16.078a.157.157,0,0,1-.157-.188c.125-.815.282-1.066.376-1.912A.619.619,0,0,0,15.075.506a4.884,4.884,0,0,1-1.849,2.6.285.285,0,0,0-.125.251V6.681A.845.845,0,0,0,13.319,6.931Z" transform="translate(-9.195 -0.006)"/><path class="a" d="M7.124,10.1H5.682a.281.281,0,0,0-.282.282v3.072a.281.281,0,0,0,.282.282H7.124a.281.281,0,0,0,.282-.282V10.382A.281.281,0,0,0,7.124,10.1ZM6.4,13.109a.313.313,0,1,1,.313-.313A.314.314,0,0,1,6.4,13.109Z" transform="translate(-3.909 -6.936)"/><path class="b" d="M3.451,27.789l-.721-.063a.208.208,0,0,1-.157-.125l-.251-.658a.185.185,0,0,0-.345,0L1.7,27.6a.313.313,0,0,1-.157.125l-.721.063a.19.19,0,0,0-.094.345l.533.47a.23.23,0,0,1,.063.188l-.157.69c-.063.157.094.282.251.188l.627-.376a.2.2,0,0,1,.188,0l.627.376a.181.181,0,0,0,.282-.188l-.188-.721c0-.063,0-.157.063-.188l.564-.439A.2.2,0,0,0,3.451,27.789Z" transform="translate(-0.643 -18.419)"/><path class="b" d="M15.982,27.789l-.721-.063A.208.208,0,0,1,15.1,27.6l-.282-.658a.185.185,0,0,0-.345,0L14.2,27.6a.313.313,0,0,1-.157.125l-.721.063a.19.19,0,0,0-.094.345l.533.47a.23.23,0,0,1,.063.188l-.157.69a.185.185,0,0,0,.282.188l.627-.376a.2.2,0,0,1,.188,0l.627.376a.181.181,0,0,0,.282-.188l-.188-.721c0-.063,0-.157.063-.188l.533-.47C16.2,27.977,16.139,27.789,15.982,27.789Z" transform="translate(-9.225 -18.419)"/><path class="b" d="M28.676,28.034a.2.2,0,0,0-.094-.345l-.721-.063A.208.208,0,0,1,27.7,27.5l-.282-.658a.185.185,0,0,0-.345,0L26.8,27.5a.313.313,0,0,1-.157.125l-.721.063a.19.19,0,0,0-.094.345l.533.47c.094.031.094.094.094.188l-.157.69a.185.185,0,0,0,.282.188l.627-.376a.2.2,0,0,1,.188,0l.627.376a.181.181,0,0,0,.282-.188l-.188-.69c0-.063,0-.157.063-.188Z" transform="translate(-17.875 -18.35)"/></g></svg>