<?xml version="1.0" encoding="utf-8"?>
<!-- Generator: Adobe Illustrator 24.1.2, SVG Export Plug-In . SVG Version: 6.00 Build 0)  -->
<svg version="1.1" id="Layer_1" xmlns="http://www.w3.org/2000/svg" xmlns:xlink="http://www.w3.org/1999/xlink" x="0px" y="0px"
	 viewBox="0 0 36 36" style="enable-background:new 0 0 36 36;" xml:space="preserve">
<style type="text/css">
	.st0{fill:#207ebb;}
</style>
<g>
	<path class="st0" d="M34.3,15.1h-5.1V10c0-0.4-0.3-0.7-0.7-0.7H27c-0.4,0-0.7,0.3-0.7,0.7v5.1h-5.1c-0.4,0-0.7,0.3-0.7,0.7v1.5
		c0,0.4,0.3,0.7,0.7,0.7h5.1v5.1c0,0.4,0.3,0.7,0.7,0.7h1.5c0.4,0,0.7-0.3,0.7-0.7V18h5.1c0.4,0,0.7-0.3,0.7-0.7v-1.5
		C35,15.4,34.7,15.1,34.3,15.1z"/>
	<path class="st0" d="M17.1,19.6C16,18.9,15,17.7,15,17.4c0-0.6,0.1-0.9,1.5-2c1.8-1.4,2.8-3.3,2.8-5.3c0-1.8-0.5-3.4-1.5-4.5h0.7
		c0.1,0,0.3,0,0.4-0.1l2-1.5c0.3-0.2,0.4-0.5,0.3-0.8c-0.1-0.3-0.4-0.5-0.7-0.5h-9c-1,0-2,0.2-3,0.5c-3.3,1.1-5.6,3.9-5.6,6.8
		c0,4.1,3.2,7.2,7.4,7.3c-0.1,0.3-0.1,0.6-0.1,1c0,0.6,0.2,1.2,0.5,1.8c0,0-0.1,0-0.1,0c-4,0-7.7,2-9,4.9C1.2,25.7,1,26.5,1,27.3
		c0,0.7,0.2,1.5,0.6,2.1c0.9,1.5,2.7,2.8,5.2,3.4c1.3,0.3,2.7,0.5,4.1,0.5c1.3,0,2.5-0.2,3.7-0.5c3.6-1,5.9-3.7,5.9-6.7
		C20.5,23.1,19.6,21.4,17.1,19.6z M5.7,26.3c0-2.1,2.7-4,5.8-4h0.1c0.7,0,1.3,0.1,1.9,0.3c0.2,0.1,0.4,0.3,0.6,0.4
		c1.4,1,2.4,1.6,2.6,2.6c0.1,0.3,0.1,0.5,0.1,0.8c0,2.6-2,4-5.9,4C8,30.4,5.7,28.6,5.7,26.3z M8.5,6.3c0.5-0.5,1.1-0.8,1.8-0.8
		l0.1,0c2,0.1,3.9,2.3,4.3,5c0.2,1.5-0.1,2.9-0.9,3.8c-0.5,0.5-1.1,0.8-1.8,0.8c0,0,0,0,0,0h0c-2-0.1-3.9-2.4-4.2-5
		C7.4,8.5,7.7,7.1,8.5,6.3z"/>
</g>
</svg>
