<svg xmlns="http://www.w3.org/2000/svg" width="16.11" height="13.463" viewBox="0 0 16.11 13.463"><defs><style>.a{fill:#595d6e;}</style></defs><path class="a" d="M2.827,23.7H7.674A2.815,2.815,0,0,1,10.5,26.527v1.346H0V26.527A2.844,2.844,0,0,1,2.827,23.7Zm4.847.853H2.827A2.04,2.04,0,0,0,.808,26.572v.494H9.693v-.539A2.031,2.031,0,0,0,7.674,24.553Z" transform="translate(0 -14.411)"/><path class="a" d="M8.381,9.6a2.8,2.8,0,0,1,2.782,2.782,2.768,2.768,0,0,1-2.782,2.782,2.782,2.782,0,1,1,0-5.565Zm0,.808a1.944,1.944,0,0,0-1.93,1.93,1.93,1.93,0,0,0,3.859,0A2.006,2.006,0,0,0,8.381,10.408Z" transform="translate(-3.086 -6.638)"/><path class="a" d="M19.8,17.2h4.4a2.844,2.844,0,0,1,2.827,2.827v1.3h-4.8v-.808h4.039v-.494a2.011,2.011,0,0,0-2.019-2.019h-4.4V17.2Z" transform="translate(-10.915 -10.828)"/><path class="a" d="M20.882,3a2.8,2.8,0,0,1,2.782,2.782,2.768,2.768,0,0,1-2.782,2.782A2.74,2.74,0,0,1,18.1,5.782,2.8,2.8,0,0,1,20.882,3Zm0,.808a1.944,1.944,0,0,0-1.93,1.93,1.93,1.93,0,1,0,1.93-1.93Z" transform="translate(-9.978 -3)"/></svg>