<svg xmlns="http://www.w3.org/2000/svg" width="12.564" height="12" viewBox="0 0 12.564 12"><defs><style>.a{fill:#ea4c3a;fill-rule:evenodd;}.b{fill:none;stroke:#ea4c3a;stroke-linejoin:round;stroke-miterlimit:10;stroke-width:1.57px;}</style></defs><path class="a" d="M12.564,12H0V0H12.564V12M1.207,10.793H11.356V1.208H1.207"/><path class="b" d="M9.416,4.253c.173.075.134.189.077.723a11.1,11.1,0,0,1-.629,2.55,13.741,13.741,0,0,1-1.421,2.683,7.354,7.354,0,0,1-1.219,1.457,1.425,1.425,0,0,1-.683.366c-.143.025-.207,0-.246-.072a.5.5,0,0,1-.019-.336A1.046,1.046,0,0,1,5.6,11.1,4.269,4.269,0,0,1,6.7,10.37,11.554,11.554,0,0,1,8.383,9.74a12,12,0,0,1,1.311-.305,9.713,9.713,0,0,1,.98-.138,5.45,5.45,0,0,1,.9,0,5.546,5.546,0,0,1,.825.131,2.109,2.109,0,0,1,.636.247,1.073,1.073,0,0,1,.415.444.618.618,0,0,1,.014.5.54.54,0,0,1-.344.269.848.848,0,0,1-.519,0,2.49,2.49,0,0,1-.682-.366A6.379,6.379,0,0,1,11.07,9.8a14.8,14.8,0,0,1-1.1-1.236,8.668,8.668,0,0,1-.831-1.242,4.629,4.629,0,0,1-.383-.966,5.087,5.087,0,0,1-.175-.869,3.052,3.052,0,0,1,.013-.7,1.041,1.041,0,0,1,.13-.432.45.45,0,0,1,.221-.168.516.516,0,0,1,.143-.03.262.262,0,0,1,.137,0A1.1,1.1,0,0,1,9.416,4.253Z" transform="translate(-2.964 -2.338)"/></svg>