<?xml version="1.0" encoding="utf-8"?>
<!-- Generator: Adobe Illustrator 24.1.2, SVG Export Plug-In . SVG Version: 6.00 Build 0)  -->
<svg version="1.1" id="Layer_1" xmlns="http://www.w3.org/2000/svg" xmlns:xlink="http://www.w3.org/1999/xlink" x="0px" y="0px"
	 viewBox="0 0 36 36" style="enable-background:new 0 0 36 36;" xml:space="preserve">
<g>
	<path d="M31.8,1H4.2C2.4,1,1,2.4,1,4.2v27.6C1,33.6,2.4,35,4.2,35l0,0h27.6c1.8,0,3.2-1.4,3.2-3.2l0,0l0,0V4.2
		C35,2.4,33.6,1,31.8,1L31.8,1z M31.8,32.9H4.2c-0.6,0-1.1-0.5-1.1-1c0,0,0,0,0,0l0,0V4.2c0-0.6,0.4-1,0.9-1.1c0,0,0,0,0.1,0h27.7
		c0.6,0,1,0.4,1.1,1l0,0v27.7C32.9,32.4,32.4,32.9,31.8,32.9C31.8,32.9,31.8,32.9,31.8,32.9z"/>
	<path d="M24.1,19.4c-0.4-0.4-1.1-0.4-1.5,0l-2.4,2.4l-4.6-4.5c-0.4-0.4-1.1-0.4-1.5,0l0,0l-7.4,7.4c-0.4,0.4-0.4,1.1,0,1.5
		c0.2,0.2,0.5,0.3,0.7,0.3h21.3c0.6,0,1.1-0.5,1.1-1c0,0,0,0,0,0l0,0c0-0.3-0.1-0.6-0.3-0.8L24.1,19.4z"/>
	<circle cx="21.2" cy="12.7" r="3.2"/>
</g>
</svg>
