<svg xmlns="http://www.w3.org/2000/svg" width="16.155" height="16.155" viewBox="0 0 16.155 16.155"><defs><style>.a{fill:#595d6e;fill-rule:evenodd;}</style></defs><path class="a" d="M8.078,16.155A8.078,8.078,0,1,0,0,8.078a8.1,8.1,0,0,0,8.078,8.078Zm0-1.212a6.866,6.866,0,1,1,6.866-6.866,6.837,6.837,0,0,1-6.866,6.866Z"/><path class="a" d="M16.9,8.36a.613.613,0,0,1-.628-.628,1.019,1.019,0,0,1,.269-.718.943.943,0,0,1,.628-.314.437.437,0,0,1,.4.18.9.9,0,0,1,.135.494,1.1,1.1,0,0,1-.224.673.706.706,0,0,1-.583.314Zm-.763,7.09a.339.339,0,0,1-.045.18c-.045.09,0,.135,0,.135,0,.135.045.18.18.18A.4.4,0,0,0,16.5,15.9c.09-.045.135-.09.224-.135a.62.62,0,0,0,.18-.135.165.165,0,0,1,.135-.045c.09,0,.18.09.224.314a3.743,3.743,0,0,1-.539.359c-.18.09-.359.224-.539.314a4.373,4.373,0,0,1-.494.224,1.387,1.387,0,0,1-.359.09.832.832,0,0,1-.314-.09c-.09-.045-.135-.135-.135-.314V16.3c0-.09,0-.135.045-.18.224-1.077.359-1.93.494-2.558s.224-1.122.269-1.481a2.739,2.739,0,0,1,.135-.673.464.464,0,0,1,.045-.18c0-.135-.045-.18-.135-.18a.339.339,0,0,0-.18.045.758.758,0,0,1-.224.09.758.758,0,0,1-.224.09.339.339,0,0,1-.18.045c-.045,0-.09-.045-.135-.09s-.045-.135-.09-.224c.18-.09.359-.224.628-.359.224-.135.449-.224.673-.359.224-.09.4-.18.583-.269a.678.678,0,0,1,.359-.09c.18,0,.224.09.224.269a.4.4,0,0,1-.045.224Z" transform="translate(-8.103 -3.693)"/></svg>