<?xml version="1.0" encoding="utf-8"?>
<!-- Generator: Adobe Illustrator 24.1.2, SVG Export Plug-In . SVG Version: 6.00 Build 0)  -->
<svg version="1.1" id="Layer_1" xmlns="http://www.w3.org/2000/svg" xmlns:xlink="http://www.w3.org/1999/xlink" x="0px" y="0px"
	 viewBox="0 0 36 36" style="enable-background:new 0 0 36 36;" xml:space="preserve">
<style type="text/css">
	.st0{fill:#207ebb;}
</style>
<g>
	<path class="st0" d="M18,9.2c-4.8,0-8.8,3.9-8.8,8.8s3.9,8.8,8.8,8.8s8.8-4,8.8-8.8S22.8,9.2,18,9.2z M18,23.6
		c-3.1,0-5.6-2.5-5.6-5.6s2.5-5.6,5.6-5.6s5.6,2.5,5.6,5.6S21.1,23.6,18,23.6z"/>
	<circle class="st0" cx="27.1" cy="9" r="2"/>
	<path class="st0" d="M32.3,3.8C30.5,2,27.9,1,25.1,1H10.9C5,1,1,5,1,10.9V25c0,2.9,1,5.5,2.9,7.3C5.7,34.1,8.2,35,11,35h14
		c2.9,0,5.4-1,7.2-2.7C34,30.5,35,28,35,25.1V10.9C35,8.1,34,5.6,32.3,3.8z M32,25.1c0,2.1-0.8,3.8-2,5s-2.9,1.8-5,1.8H11
		c-2.1,0-3.8-0.6-5-1.8c-1.2-1.2-1.9-2.9-1.9-5.1V10.9c0-2.1,0.6-3.8,1.9-5C7.2,4.8,9,4.2,11,4.2h14.1c2.1,0,3.8,0.6,5,1.9
		C31.3,7.2,32,9,32,10.9V25.1L32,25.1z"/>
</g>
</svg>
