<svg xmlns="http://www.w3.org/2000/svg" width="24.492" height="30" viewBox="0 0 24.492 30"><defs><style>.a{fill:gray;}</style></defs><g transform="translate(-6.7)"><g transform="translate(6.7)"><path class="a" d="M29.69,0H11.832a1.5,1.5,0,0,0-1.5,1.5v2.17H8.2a1.5,1.5,0,0,0-1.5,1.5V28.5A1.5,1.5,0,0,0,8.2,30H26.018a1.5,1.5,0,0,0,1.5-1.5V26.37h2.17a1.5,1.5,0,0,0,1.5-1.5V1.5A1.5,1.5,0,0,0,29.69,0ZM26.561,28.5a.526.526,0,0,1-.542.542H8.16a.526.526,0,0,1-.542-.542V5.174a.526.526,0,0,1,.542-.542h2.128V24.868a1.5,1.5,0,0,0,1.5,1.5H26.519l.042,2.128Zm3.672-3.672a.57.57,0,0,1-.584.584H11.832a.57.57,0,0,1-.584-.584V1.5a.57.57,0,0,1,.584-.584H29.69a.57.57,0,0,1,.584.584V24.826Z" transform="translate(-6.7)"/><path class="a" d="M32.512,19.318,35.035,16.8l1.283,1.283a.445.445,0,0,0,.684,0l2.693-2.693.47.47a.219.219,0,0,0,.385-.128l.257-1.881a.2.2,0,0,0-.257-.257l-1.881.257a.222.222,0,0,0-.128.385l.47.47-2.351,2.351-1.283-1.283a.445.445,0,0,0-.684,0l-2.907,2.864a.445.445,0,0,0,0,.684A.576.576,0,0,0,32.512,19.318Z" transform="translate(-21.373 -7.947)"/><path class="a" d="M37.929,40.3H27.07a.47.47,0,1,0,0,.941h10.9a.474.474,0,0,0,.47-.47A.484.484,0,0,0,37.929,40.3Z" transform="translate(-18.48 -23.498)"/><path class="a" d="M37.929,50.6H27.07a.47.47,0,0,0,0,.941h10.9a.474.474,0,0,0,.47-.47A.484.484,0,0,0,37.929,50.6Z" transform="translate(-18.48 -29.504)"/><path class="a" d="M37.929,19.18H27.541V11.57a.47.47,0,1,0-.941,0v8.08a.474.474,0,0,0,.47.47h10.9a.474.474,0,0,0,.47-.47A.484.484,0,0,0,37.929,19.18Z" transform="translate(-18.48 -6.516)"/></g></g></svg>