<svg id="Layer_1" data-name="Layer 1" xmlns="http://www.w3.org/2000/svg" viewBox="0 0 36 36"><title>List</title><path d="M4.38,34.65a1.86,1.86,0,0,0,1,.28l21.91-3.54a6.35,6.35,0,0,0,5.23-6.22V2.76A1.84,1.84,0,0,0,30.65.93H5.35A1.84,1.84,0,0,0,3.5,2.76V33.09A1.81,1.81,0,0,0,4.38,34.65ZM7.21,4.59H28.79V25.17a2.69,2.69,0,0,1-5.37,0,1.84,1.84,0,0,0-1.85-1.84,1.93,1.93,0,0,0-.82.19L7.22,30.14Zm7,9.62a1.38,1.38,0,0,1,1.39-1.38h9.16a1.38,1.38,0,1,1,0,2.76H15.62a1.38,1.38,0,0,1-1.39-1.38Zm0-5a1.38,1.38,0,0,1,1.39-1.38h9.16a1.38,1.38,0,1,1,0,2.76H15.62a1.38,1.38,0,0,1-1.39-1.38Zm-1.6,0a1.4,1.4,0,1,1-1.39-1.38h0A1.38,1.38,0,0,1,12.63,9.26Zm0,5a1.4,1.4,0,1,1-1.39-1.38,1.38,1.38,0,0,1,1.39,1.38Zm0,9.91a1.4,1.4,0,1,1-1.39-1.38,1.38,1.38,0,0,1,1.39,1.38ZM24.8,20.55H15.62a1.38,1.38,0,1,1,0-2.76h9.16a1.38,1.38,0,1,1,0,2.76ZM12.63,19.17a1.4,1.4,0,1,1-1.39-1.38,1.38,1.38,0,0,1,1.39,1.38Z"/></svg>