<svg xmlns:cc="http://creativecommons.org/ns#" xmlns:dc="http://purl.org/dc/elements/1.1/" xmlns:inkscape="http://www.inkscape.org/namespaces/inkscape" xmlns:rdf="http://www.w3.org/1999/02/22-rdf-syntax-ns#" xmlns:sodipodi="http://sodipodi.sourceforge.net/DTD/sodipodi-0.dtd" xmlns:svg="http://www.w3.org/2000/svg" xmlns="http://www.w3.org/2000/svg" xmlns:xlink="http://www.w3.org/1999/xlink" version="1.1" id="Layer_1" x="0px" y="0px" viewBox="0 0 24 24" style="enable-background:new 0 0 24 24;" xml:space="preserve">
	<defs>
		<style>path{fill:#ffffff;}</style>
	</defs>
	<path d="M20.1,4.8H3.9c-1.3,0-2.3,1-2.3,2.3v9.8c0,1.3,1,2.3,2.3,2.3h16.1c1.3,0,2.3-1,2.3-2.3V7.1C22.3,5.8,21.3,4.8,20.1,4.8z   M11.7,12.9L4.5,6.5h15.1l-7.2,6.4C12.2,13.1,11.9,13.1,11.7,12.9z M10.5,14.3c0.8,0.7,2.1,0.7,3,0l1.2-1.1l4.5,4.3H4.9l4.5-4.3  L10.5,14.3z M8.1,12l-4.7,4.5V7.8L8.1,12z M16,12l4.7-4.2v8.7L16,12z"/>
</svg>
