<?xml version="1.0" encoding="utf-8" ?>
<svg xmlns="http://www.w3.org/2000/svg" width="21.827" height="14.893" viewBox="0 0 21.827 14.893"><defs><style>.a{fill:gray;}</style></defs><g transform="translate(0 0)"><path class="a" d="M3.118,958.8A2.137,2.137,0,0,0,1,960.918v10.656a2.137,2.137,0,0,0,2.118,2.118h17.59a2.137,2.137,0,0,0,2.118-2.118V960.918a2.137,2.137,0,0,0-2.118-2.118Zm0,1.027h17.59a.925.925,0,0,1,.449.129l-8.6,7.639a.931.931,0,0,1-1.348,0l-8.538-7.639a1.188,1.188,0,0,1,.449-.128Zm-1.027.963,6.1,5.457-6.034,5.778a1.21,1.21,0,0,1-.128-.514l.064-10.721Zm19.644,0v10.785a1.209,1.209,0,0,1-.128.514l-5.97-5.778,6.1-5.521ZM14.8,966.953l5.906,5.649H3.118l5.906-5.649,1.6,1.412a2.219,2.219,0,0,0,2.76,0l1.412-1.412Z" transform="translate(-1 -958.8)"/></g></svg>