<svg xmlns="http://www.w3.org/2000/svg" width="604.487" height="468.987" viewBox="0 0 604.487 468.987">
  <g id="Group_2359" data-name="Group 2359" transform="translate(-608.98 -141.098)">
    <path id="Path_7768" data-name="Path 7768" d="M2189.837,156.2v.033l-.731-.033Z" transform="translate(-976.37 -15.101)" fill="#fff"/>
    <path id="Path_7769" data-name="Path 7769" d="M2187.977,156.2l-.7.033V156.2Z" transform="translate(-975.241 -15.101)" fill="#fff"/>
    <ellipse id="Ellipse_339" data-name="Ellipse 339" cx="289.768" cy="9.114" rx="289.768" ry="9.114" transform="translate(608.98 591.857)" fill="#dceffe"/>
    <g id="Group_2333" data-name="Group 2333" transform="translate(1062.569 434.28)">
      <path id="Path_7771" data-name="Path 7771" d="M1796.094,991.381l12.338,16.223,7.281-5.538-12.338-16.223Zm6.655,1.194a1.4,1.4,0,1,1,.267-1.962A1.394,1.394,0,0,1,1802.749,992.575Z" transform="translate(-1796.094 -962.023)" fill="#f9ed32"/>
      <path id="Path_7772" data-name="Path 7772" d="M1830.1,962.1l11.177-8.5a9.075,9.075,0,0,0,1.73-12.717l-4.734-6.225h0a4.526,4.526,0,0,0,.863-6.342h0a4.526,4.526,0,0,0-6.342-.863l-9.205,7.158-.919-7.408a4.088,4.088,0,0,0-6.323-2.972l-.058.043,2.169,22.516Z" transform="translate(-1808.571 -923.502)" fill="#f9ed32"/>
    </g>
    <g id="Group_2339" data-name="Group 2339" transform="translate(982.014 481.432)">
      <g id="Group_2338" data-name="Group 2338" transform="translate(18.613 9.082)">
        <path id="Path_7795" data-name="Path 7795" d="M1635.805,1175.144l-1.824-.04a180.978,180.978,0,0,1,36.585-104.43l1.453,1.1A179.16,179.16,0,0,0,1635.805,1175.144Z" transform="translate(-1633.981 -1070.674)" fill="#13bc2f"/>
      </g>
      <path id="Path_7796" data-name="Path 7796" d="M1721.691,1102.245c-5.725-.091-10.612-4.466-10.612-4.466a16.819,16.819,0,0,1,3.05-2.295,14.14,14.14,0,0,1,7.483-1.989,14.921,14.921,0,0,1,7.311,2.7,20.629,20.629,0,0,1,3,2.4A17.019,17.019,0,0,1,1721.691,1102.245Z" transform="translate(-1663.008 -1075.685)" fill="#13bc2f"/>
      <path id="Path_7797" data-name="Path 7797" d="M1668.179,1092.18a13.856,13.856,0,0,0,5.435,5.653,18.462,18.462,0,0,0,3.464,1.667,19.04,19.04,0,0,0,.622-3.8,17.289,17.289,0,0,0-1.182-7.866c-2.365-5.425-8.47-7.863-8.47-7.863a21.035,21.035,0,0,0-.964,4.057A15.22,15.22,0,0,0,1668.179,1092.18Z" transform="translate(-1635.743 -1067.335)" fill="#13bc2f"/>
      <path id="Path_7798" data-name="Path 7798" d="M1703.879,1063.243c1.384,3.641,5.347,5.371,5.347,5.371a12.522,12.522,0,0,0,.629-2.458,11.211,11.211,0,0,0-.322-5.19c-1.258-3.651-5.122-5.58-5.122-5.58a13.213,13.213,0,0,0-.817,2.535A9.83,9.83,0,0,0,1703.879,1063.243Z" transform="translate(-1658.238 -1052.146)" fill="#13bc2f"/>
      <path id="Path_7799" data-name="Path 7799" d="M1729.656,1050.729c-2.3,3.219-1.583,7.485-1.583,7.485s4.2-.912,6.4-3.972c2.271-3,1.819-7.337,1.819-7.337A11.487,11.487,0,0,0,1729.656,1050.729Z" transform="translate(-1673.444 -1046.905)" fill="#13bc2f"/>
      <path id="Path_7800" data-name="Path 7800" d="M1697.762,1146.823a20.423,20.423,0,0,1-9.418-1.693,23.041,23.041,0,0,1-4.164-2.236,17.736,17.736,0,0,1,3.436-3.2,16.083,16.083,0,0,1,8.813-3.43,18.523,18.523,0,0,1,9.271,2.368,25.978,25.978,0,0,1,3.979,2.546,19.133,19.133,0,0,1-3.377,2.571A18.674,18.674,0,0,1,1697.762,1146.823Z" transform="translate(-1646.386 -1102.108)" fill="#13bc2f"/>
      <path id="Path_7801" data-name="Path 7801" d="M1631.291,1144.574a16.853,16.853,0,0,0,7.548,6.031,22.675,22.675,0,0,0,4.489,1.462,28.176,28.176,0,0,0,.121-4.742,21.765,21.765,0,0,0-2.625-9.424,18.53,18.53,0,0,0-7.121-6.569,20.463,20.463,0,0,0-4.367-1.8,26.568,26.568,0,0,0-.577,5.181A18.308,18.308,0,0,0,1631.291,1144.574Z" transform="translate(-1612.139 -1097.961)" fill="#13bc2f"/>
      <path id="Path_7802" data-name="Path 7802" d="M1672.927,1206.309a20.376,20.376,0,0,1-9.578-.3,22.967,22.967,0,0,1-4.443-1.6,21.928,21.928,0,0,1,2.9-3.686,16.781,16.781,0,0,1,8.222-4.687,18.482,18.482,0,0,1,9.529.98,25.839,25.839,0,0,1,4.307,1.931,25.208,25.208,0,0,1-2.928,3.059A19.7,19.7,0,0,1,1672.927,1206.309Z" transform="translate(-1630.769 -1138.888)" fill="#13bc2f"/>
      <path id="Path_7803" data-name="Path 7803" d="M1606.038,1217.034a17.008,17.008,0,0,0,8.364,4.86,22.75,22.75,0,0,0,4.66.786,24.045,24.045,0,0,0-.636-4.723,20.147,20.147,0,0,0-3.972-8.938,18.385,18.385,0,0,0-7.974-5.442,20.51,20.51,0,0,0-4.588-1.14,20.509,20.509,0,0,0,.2,5.213C1602.553,1210.624,1603.53,1214.252,1606.038,1217.034Z" transform="translate(-1595.491 -1143.009)" fill="#13bc2f"/>
      <path id="Path_7804" data-name="Path 7804" d="M1658.021,1265.537a20.631,20.631,0,0,1-9.558,1.049,22.893,22.893,0,0,1-4.621-.955s3.08-7.53,9.879-9.841a18.364,18.364,0,0,1,9.531-.372,26.026,26.026,0,0,1,4.542,1.31S1664.475,1262.94,1658.021,1265.537Z" transform="translate(-1621.461 -1175.467)" fill="#13bc2f"/>
      <path id="Path_7805" data-name="Path 7805" d="M1591.483,1289.009a16.8,16.8,0,0,0,8.938,3.613,22.847,22.847,0,0,0,4.727.11s-1.18-7.914-6.456-12.867a18.7,18.7,0,0,0-8.724-4.274,20.464,20.464,0,0,0-4.7-.48,26.891,26.891,0,0,0,.972,5.151A17.727,17.727,0,0,0,1591.483,1289.009Z" transform="translate(-1585.268 -1187.911)" fill="#13bc2f"/>
    </g>
    <g id="Group_2342" data-name="Group 2342" transform="translate(610.374 195.128)">
      <circle id="Ellipse_340" data-name="Ellipse 340" cx="6.73" cy="6.73" r="6.73" transform="translate(237.703 4.884)" fill="#ff9a00"/>
      <circle id="Ellipse_341" data-name="Ellipse 341" cx="6.73" cy="6.73" r="6.73" transform="translate(540.804 121.195)" fill="#ff9a00"/>
      <circle id="Ellipse_342" data-name="Ellipse 342" cx="4.034" cy="4.034" r="4.034" transform="translate(505.062 134.547)" fill="#ff9a00"/>
      <circle id="Ellipse_343" data-name="Ellipse 343" cx="3.405" cy="3.405" r="3.405" transform="translate(309.733 69.674)" fill="#ff9a00"/>
      <circle id="Ellipse_344" data-name="Ellipse 344" cx="3.405" cy="3.405" r="3.405" transform="translate(0 98.856) rotate(-76.718)" fill="#ff9a00"/>
      <circle id="Ellipse_345" data-name="Ellipse 345" cx="3.405" cy="3.405" r="3.405" transform="matrix(0.23, -0.973, 0.973, 0.23, 330.42, 189.226)" fill="#ff9a00"/>
      <circle id="Ellipse_346" data-name="Ellipse 346" cx="3.405" cy="3.405" r="3.405" transform="translate(157.626 4.815) rotate(-45)" fill="#ff9a00"/>
      <circle id="Ellipse_347" data-name="Ellipse 347" cx="3.405" cy="3.405" r="3.405" transform="matrix(0.23, -0.973, 0.973, 0.23, 480.22, 7.347)" fill="#ff9a00"/>
    </g>
    <g id="Group_2345" data-name="Group 2345" transform="translate(868.949 274.021)">
      <g id="Group_2343" data-name="Group 2343" transform="translate(0 0)">
        <path id="Rectangle_2094" data-name="Rectangle 2094" d="M2.741,0H177.193a2.742,2.742,0,0,1,2.742,2.742V324.463a2.742,2.742,0,0,1-2.742,2.742H2.742A2.742,2.742,0,0,1,0,324.463V2.741A2.741,2.741,0,0,1,2.741,0Z" transform="translate(179.934 327.205) rotate(180)" fill="#4e3654"/>
        <rect id="Rectangle_2095" data-name="Rectangle 2095" width="152.31" height="261.131" transform="translate(166.122 286.248) rotate(180)" fill="#7dacc6"/>
        <circle id="Ellipse_348" data-name="Ellipse 348" cx="10.932" cy="10.932" r="10.932" transform="translate(79.035 294.979)" fill="#39283d"/>
        <rect id="Rectangle_2096" data-name="Rectangle 2096" width="57.489" height="5.947" rx="0.446" transform="translate(118.712 14.304) rotate(180)" fill="#39283d"/>
      </g>
      <path id="Path_7817" data-name="Path 7817" d="M1496.755,817.58a24.152,24.152,0,1,1-19.741-38.054,23.343,23.343,0,0,1,10.3,2.359l3.49-4.354a29.234,29.234,0,0,0-13.792-3.423,29.579,29.579,0,1,0,24.328,46.4Z" transform="translate(-1387.035 -670.933)" fill="#f9ed32"/>
      <g id="Group_2344" data-name="Group 2344" transform="translate(58.247 222.249)">
        <path id="Path_7818" data-name="Path 7818" d="M1444.78,1087.883l-1.744,9.94h3.872l-.153.847H1441.8l1.9-10.786Z" transform="translate(-1441.8 -1087.065)" fill="#fff"/>
        <path id="Path_7819" data-name="Path 7819" d="M1462.765,1102.408a3.288,3.288,0,0,1-3.534-3.46,5.049,5.049,0,0,1,5.035-5.215,3.3,3.3,0,0,1,3.545,3.46A5.065,5.065,0,0,1,1462.765,1102.408Zm.124-.908a4.009,4.009,0,0,0,3.816-4.245,2.423,2.423,0,0,0-2.6-2.6,3.969,3.969,0,0,0-3.765,4.244A2.4,2.4,0,0,0,1462.889,1101.5Z" transform="translate(-1452.571 -1090.679)" fill="#fff"/>
        <path id="Path_7820" data-name="Path 7820" d="M1490.005,1093.733a2.84,2.84,0,0,1,2.98,1.975l.322-1.851h1.084l-1.484,8.427h-1.078l.322-1.868a4.319,4.319,0,0,1-3.686,1.992c-2.3,0-3.72-1.716-3.257-4.352A4.936,4.936,0,0,1,1490.005,1093.733Zm.034.943a3.8,3.8,0,0,0-3.72,3.381c-.389,2.128.757,3.409,2.512,3.409a3.9,3.9,0,0,0,3.736-3.392C1492.952,1095.974,1491.767,1094.676,1490.039,1094.676Z" transform="translate(-1468.568 -1090.679)" fill="#fff"/>
        <path id="Path_7821" data-name="Path 7821" d="M1517.262,1089.1a2.982,2.982,0,0,1,2.98,1.947l.847-4.815h1.078l-2.021,11.419h-1.078l.339-1.885a4.338,4.338,0,0,1-3.691,2.009c-2.314,0-3.731-1.716-3.268-4.352A4.94,4.94,0,0,1,1517.262,1089.1Zm.017.943a3.8,3.8,0,0,0-3.72,3.381c-.39,2.128.756,3.409,2.512,3.409a3.9,3.9,0,0,0,3.737-3.392C1520.192,1091.337,1519.007,1090.038,1517.28,1090.038Z" transform="translate(-1485.4 -1086.042)" fill="#fff"/>
        <path id="Path_7822" data-name="Path 7822" d="M1540.664,1088.919h1.078l-1.485,8.427h-1.078Zm.181-2.394a.942.942,0,0,1,.925-.784.618.618,0,0,1,.638.784.955.955,0,0,1-.915.8A.64.64,0,0,1,1540.845,1086.525Z" transform="translate(-1501.972 -1085.741)" fill="#fff"/>
        <path id="Path_7823" data-name="Path 7823" d="M1555.576,1097.424c.322-1.868-.508-2.828-2.055-2.828-1.575,0-2.856.988-3.212,3.043v-.045l-.818,4.645h-1.078l1.484-8.427h1.078l-.265,1.45a3.814,3.814,0,0,1,3.183-1.6c1.9,0,3.206,1.174,2.777,3.641l-.881,4.939h-1.067Z" transform="translate(-1507.677 -1090.634)" fill="#fff"/>
        <path id="Path_7824" data-name="Path 7824" d="M1578.626,1093.733a2.864,2.864,0,0,1,2.98,1.959l.322-1.834h1.084l-1.513,8.642a4.619,4.619,0,0,1-4.634,3.923c-2.173,0-3.489-1.112-3.516-2.873h1.067c.152,1.146,1.061,1.931,2.625,1.931a3.4,3.4,0,0,0,3.375-2.98l.355-2.083a4.313,4.313,0,0,1-3.675,1.992c-2.314,0-3.731-1.716-3.268-4.352A4.936,4.936,0,0,1,1578.626,1093.733Zm.034.943a3.8,3.8,0,0,0-3.72,3.381c-.389,2.128.757,3.409,2.512,3.409a3.9,3.9,0,0,0,3.736-3.392C1581.573,1095.974,1580.388,1094.676,1578.66,1094.676Z" transform="translate(-1523.085 -1090.679)" fill="#fff"/>
        <path id="Path_7825" data-name="Path 7825" d="M1600.569,1113.746a.649.649,0,0,1-.649-.807.973.973,0,0,1,.926-.785.629.629,0,0,1,.649.785A.993.993,0,0,1,1600.569,1113.746Z" transform="translate(-1539.496 -1102.062)" fill="#fff"/>
        <path id="Path_7826" data-name="Path 7826" d="M1607.926,1113.746a.648.648,0,0,1-.649-.807.972.972,0,0,1,.925-.785.629.629,0,0,1,.649.785A.993.993,0,0,1,1607.926,1113.746Z" transform="translate(-1544.042 -1102.062)" fill="#fff"/>
        <path id="Path_7827" data-name="Path 7827" d="M1615.268,1113.746a.648.648,0,0,1-.649-.807.972.972,0,0,1,.925-.785.629.629,0,0,1,.649.785A.993.993,0,0,1,1615.268,1113.746Z" transform="translate(-1548.578 -1102.062)" fill="#fff"/>
      </g>
      <path id="Path_7828" data-name="Path 7828" d="M1571.055,809.224a29.484,29.484,0,0,1-5.218,16.817l-4.587-2.924a24.131,24.131,0,0,0-9.438-35.695l3.49-4.354A29.568,29.568,0,0,1,1571.055,809.224Z" transform="translate(-1451.53 -676.468)" fill="#608da0"/>
    </g>
    <g id="Group_2346" data-name="Group 2346" transform="translate(665.985 564.077)">
      <path id="Path_7829" data-name="Path 7829" d="M815.356,1288.6c-7.258-20.909-32.141-25.4-32.141-25.4s5.7,23.674,15.9,30.932H816.22Z" transform="translate(-773.646 -1263.202)" fill="#1b687a"/>
      <path id="Path_7830" data-name="Path 7830" d="M829.777,1312.3s-7.373-15.667-15.207-19.7c0,0,7.949,9.331,12.212,19.7Z" transform="translate(-793.02 -1281.366)" fill="#155263"/>
      <path id="Path_7831" data-name="Path 7831" d="M763.938,1307.827c-9.158-10.022-4.666-22.464-4.666-22.464s22.292,8.813,26.439,22.464Z" transform="translate(-758.17 -1276.895)" fill="#d19b3b"/>
      <path id="Path_7832" data-name="Path 7832" d="M791.712,1326.643l-9.1-10.829,5.53,10.829Z" transform="translate(-773.273 -1295.712)" fill="#bc7731"/>
    </g>
    <g id="Group_2348" data-name="Group 2348" transform="translate(1100.817 557.907)">
      <path id="Path_7833" data-name="Path 7833" d="M1948.617,1284.837c9.489-16.045,3.8-37.784,3.8-37.784s-15.355,5-22.6,37.784Z" transform="translate(-1916.967 -1247.053)" fill="#1b687a"/>
      <g id="Group_2347" data-name="Group 2347" transform="translate(23.023 15.585)">
        <path id="Path_7834" data-name="Path 7834" d="M1956.452,1310.041c3.911-16.563,19.784-22.2,19.784-22.2s-.69,14.377-7.361,22.2Z" transform="translate(-1956.452 -1287.842)" fill="#155263"/>
      </g>
      <path id="Path_7835" data-name="Path 7835" d="M1946.97,1310.227c3.45-14.722,9.029-22.084,9.029-22.084s-6.441,14.377-7.131,22.084Z" transform="translate(-1927.569 -1272.443)" fill="#155263"/>
      <path id="Path_7836" data-name="Path 7836" d="M1967.4,1322.573l9.144-14.449-7.16,14.449Z" transform="translate(-1940.194 -1284.789)" fill="#123f49"/>
      <path id="Path_7837" data-name="Path 7837" d="M1915.98,1310.041c-3.911-16.563-19.784-22.2-19.784-22.2s.691,14.377,7.361,22.2Z" transform="translate(-1896.196 -1272.257)" fill="#155263"/>
      <path id="Path_7838" data-name="Path 7838" d="M1922.236,1322.573l-9.144-14.449,7.16,14.449Z" transform="translate(-1906.636 -1284.789)" fill="#123f49"/>
    </g>
    <g id="Group_2350" data-name="Group 2350" transform="translate(992.33 500.253)">
      <path id="Path_7839" data-name="Path 7839" d="M1753.025,1197.62c25.48-43.085,10.192-101.457,10.192-101.457s-41.231,13.435-60.689,101.457Z" transform="translate(-1668.04 -1096.163)" fill="#1b687a"/>
      <g id="Group_2349" data-name="Group 2349" transform="translate(61.821 41.849)">
        <path id="Path_7840" data-name="Path 7840" d="M1774.063,1265.3c10.5-44.474,53.122-59.608,53.122-59.608s-1.853,38.606-19.767,59.608Z" transform="translate(-1774.063 -1205.688)" fill="#155263"/>
      </g>
      <path id="Path_7841" data-name="Path 7841" d="M1748.6,1265.795c9.265-39.532,24.245-59.3,24.245-59.3s-17.3,38.606-19.149,59.3Z" transform="translate(-1696.51 -1164.338)" fill="#155263"/>
      <path id="Path_7842" data-name="Path 7842" d="M1803.465,1298.946l24.553-38.8-19.226,38.8Z" transform="translate(-1730.41 -1197.49)" fill="#123f49"/>
      <path id="Path_7843" data-name="Path 7843" d="M1665.39,1265.3c-10.5-44.474-53.122-59.608-53.122-59.608s1.853,38.606,19.767,59.608Z" transform="translate(-1612.268 -1163.839)" fill="#155263"/>
      <path id="Path_7844" data-name="Path 7844" d="M1682.188,1298.946l-24.554-38.8,19.226,38.8Z" transform="translate(-1640.3 -1197.49)" fill="#123f49"/>
    </g>
    <g id="Group_2351" data-name="Group 2351" transform="translate(705.317 317.613)">
      <circle id="Ellipse_349" data-name="Ellipse 349" cx="18.342" cy="18.342" r="18.342" transform="translate(8.606 12.803)" fill="#f9ed32"/>
      <circle id="Ellipse_350" data-name="Ellipse 350" cx="10.5" cy="10.5" r="10.5" transform="translate(0)" fill="#f9ed32"/>
    </g>
    <g id="Group_2352" data-name="Group 2352" transform="translate(702.742 524.549)">
      <path id="Path_7845" data-name="Path 7845" d="M992.2,1220.977c-17.493-50.4-77.47-61.226-77.47-61.226s13.745,57.061,38.319,74.554h41.234Z" transform="translate(-891.668 -1159.751)" fill="#1b687a"/>
      <path id="Path_7846" data-name="Path 7846" d="M1026.963,1278.087s-17.771-37.763-36.652-47.482c0,0,19.159,22.491,29.433,47.482Z" transform="translate(-938.368 -1203.532)" fill="#155263"/>
      <path id="Path_7847" data-name="Path 7847" d="M868.27,1267.31c-22.075-24.157-11.245-54.146-11.245-54.146s53.729,21.242,63.726,54.146Z" transform="translate(-854.369 -1192.755)" fill="#d19b3b"/>
      <path id="Path_7848" data-name="Path 7848" d="M935.215,1312.662l-21.936-26.1,13.328,26.1Z" transform="translate(-890.77 -1238.108)" fill="#bc7731"/>
    </g>
    <g id="Group_2357" data-name="Group 2357" transform="translate(710.851 349.436)">
      <path id="Path_7849" data-name="Path 7849" d="M1054.469,792.164l-3.078,19.623,7.57,2.087,6.926-20.777Z" transform="translate(-984.219 -757.503)" fill="#e29779"/>
      <path id="Path_7850" data-name="Path 7850" d="M1074.3,750.684c.611,16.814-2.2,23.4-11.365,23.038S1044.9,760.14,1050.4,753.907,1074.048,743.683,1074.3,750.684Z" transform="translate(-982.559 -729.586)" fill="#feac84"/>
      <path id="Path_7851" data-name="Path 7851" d="M1103.859,1346.245l-2.656,11.96h26.777s.958-8.7-15.414-9.879l-5.143-2.9Z" transform="translate(-1014.998 -1099.364)" fill="#d84178"/>
      <path id="Path_7852" data-name="Path 7852" d="M880.882,1346.245l-2.656,11.96H905s.958-8.7-15.414-9.879l-5.144-2.9Z" transform="translate(-877.219 -1099.364)" fill="#d84178"/>
      <path id="Path_7853" data-name="Path 7853" d="M980.617,1124.474H965.892c.405-28.319,6.024-56.726,6.024-70.439l-30.476-40.611-6.01,46.228a22.183,22.183,0,0,1-4.044,10.169l-32.62,55.1-15.891-3.18,31.423-61.1,8.707-72.928,26.524-4.563,37.083,54.224a28.741,28.741,0,0,1,4.654,20.782Z" transform="translate(-880.093 -875.514)" fill="#4e3654"/>
      <path id="Path_7854" data-name="Path 7854" d="M1084.99,875.2l18.476,37.71a6.371,6.371,0,0,1-3.456,8.758h0a6.371,6.371,0,0,1-7.976-3.132l-9.727-19.68Z" transform="translate(-1003.322 -808.814)" fill="#7d7def"/>
      <g id="Group_2355" data-name="Group 2355" transform="translate(38.031 44.15)">
        <g id="Group_2354" data-name="Group 2354">
          <g id="Group_2353" data-name="Group 2353">
            <path id="Path_7855" data-name="Path 7855" d="M1003.238,817s-20.678,40.173-24.319,62.837c-.283,1.762-3.676,12.629-3.8,14.243l38.174-2.668s8.464-55.95,7.459-64.164C1019.654,818.226,1003.238,817,1003.238,817Z" transform="translate(-975.124 -817)" fill="#8383fc"/>
          </g>
        </g>
      </g>
      <path id="Path_7856" data-name="Path 7856" d="M1011.341,871.484c-6.883,15.815,7.148,52.293,7.148,52.293l-15.541-2.887L998.6,888.754l-3.739-12.566Z" transform="translate(-949.286 -806.516)" fill="#7d7def"/>
      <path id="Path_7857" data-name="Path 7857" d="M1047.512,735.746s18.33,1.709,21.54-9.6-11.962-11.106-11.962-11.106-.323-1.975-.323,2.917c0,0-26.374,2.314-16.592,25.242a22.633,22.633,0,0,0,5.044,7.68Z" transform="translate(-975.944 -709.604)" fill="#4e3654"/>
      <path id="Path_7858" data-name="Path 7858" d="M1056.744,781.035c-3.21-3.9-6.191-1.834-4.356,3.9s4.929,2.178,4.929,2.178Z" transform="translate(-984.488 -749.391)" fill="#feac84"/>
      <g id="Group_2356" data-name="Group 2356" transform="translate(0)">
        <path id="Path_7859" data-name="Path 7859" d="M1305.816,782.7l-24.269-60.146a72.245,72.245,0,0,1,100.089-1.857l-68.722,24.336Z" transform="translate(-1126.434 -701.452)" fill="#fff"/>
        <path id="Path_7860" data-name="Path 7860" d="M1019.8,890.556,889.455,936.714a20.8,20.8,0,0,0-12.665,26.553h0a20.8,20.8,0,0,0,26.553,12.665l130.344-46.158Z" transform="translate(-875.591 -818.301)" fill="#fff"/>
        <path id="Path_7861" data-name="Path 7861" d="M1011.959,954.964h0a15.024,15.024,0,0,0-19.178-9.147l-79.975,28.321a15.024,15.024,0,0,0-9.147,19.178h0a15.024,15.024,0,0,0,19.178,9.147l79.974-28.321A15.024,15.024,0,0,0,1011.959,954.964Z" transform="translate(-892.4 -851.911)" fill="#e1e1ff"/>
        <circle id="Ellipse_351" data-name="Ellipse 351" cx="4.895" cy="4.895" r="4.895" transform="translate(18.191 140.11) rotate(-73.6)" fill="#ffd9e8"/>
        <path id="Path_7862" data-name="Path 7862" d="M1322.322,875.931A72.24,72.24,0,0,1,1247.2,756.688l24.269,60.146,29.518,25.646,68.723-24.336A72.19,72.19,0,0,1,1322.322,875.931Z" transform="translate(-1092.09 -735.583)" fill="#fff"/>
      </g>
      <path id="Path_7863" data-name="Path 7863" d="M1004.244,840.729a9.27,9.27,0,0,0,.055-10.49c-2.435-3.458-6.09-3.423-10.586,1.684-4.428,5.03-13.142,15.753-18.29,22.132a10.667,10.667,0,0,0-1.453,11.018l17.517,39.6,8.194-5.37-8.693-38.977Z" transform="translate(-935.815 -779.545)" fill="#8383fc"/>
      <path id="Path_7864" data-name="Path 7864" d="M1201.2,1009.044a2.984,2.984,0,0,0,.717,4.143c4.736,3.28,10.245,1.39,12.947-2.778,3.119-4.81-.481-8.8-5.588-8.008C1205.926,1002.923,1202.892,1006.586,1201.2,1009.044Z" transform="translate(-1076.456 -887.348)" fill="#feac84"/>
      <path id="Path_7865" data-name="Path 7865" d="M1022,1007.31c-8.7-1.842-16.119,1.429-16.394,7.021a7.55,7.55,0,0,0,10,7.728c5.257-1.643,5.421-11.006,5.421-11.006a3.735,3.735,0,0,0,3.568.994C1026.673,1011.446,1022,1007.31,1022,1007.31Z" transform="translate(-955.922 -890.125)" fill="#feac84"/>
    </g>
    <path id="Path_7866" data-name="Path 7866" d="M1392.441,275.8a3.681,3.681,0,0,1,2.661.156l2.18,1.013-6.393,13.753,13.76,6.4-.658,1.419a3.666,3.666,0,0,1-1.927,1.831,5.38,5.38,0,1,0,7.189,3.349,3.676,3.676,0,0,1,.155-2.663l.658-1.418,13.745,6.388,6.4-13.765-1.157-.538a3.661,3.661,0,0,0-2.664-.131,5.406,5.406,0,0,1-6.9-6.291,5.385,5.385,0,0,1,7.535-3.714,5.3,5.3,0,0,1,2.7,2.814,3.763,3.763,0,0,0,1.829,1.928l1.158.538,6.4-13.765-13.7-6.37a3.65,3.65,0,0,1,1.792-1.646,5.38,5.38,0,1,0-7.188-3.348,3.677,3.677,0,0,1-.1,2.439l-13.722-6.378L1399.8,271.55l-2.18-1.013a3.657,3.657,0,0,1-1.832-1.926,5.379,5.379,0,1,0-3.348,7.188Z" transform="translate(-479.777 -75.984)" fill="#f9ed32"/>
    <g id="Group_2358" data-name="Group 2358" transform="translate(754.496 248.986)">
      <path id="Path_7867" data-name="Path 7867" d="M994.741,484.747l7.244,7.244,5.769-5.769a21.019,21.019,0,0,0,6.129,2.531v8.172h10.239v-8.172a21.478,21.478,0,0,0,6.129-2.531l5.769,5.769,7.232-7.232-5.769-5.769a21.765,21.765,0,0,0,2.542-6.141l8.161.011V462.622l-8.161-.012a21.428,21.428,0,0,0-2.542-6.117l5.769-5.769-7.244-7.244-5.769,5.769a21.625,21.625,0,0,0-6.117-2.542v-8.149h-10.239v8.149a21.728,21.728,0,0,0-6.129,2.553l-5.769-5.769-7.232,7.232,5.77,5.769a21.44,21.44,0,0,0-2.542,6.117l-8.16.012V472.86l8.16-.011a21.207,21.207,0,0,0,2.531,6.129Zm15.253-26.026a12.739,12.739,0,1,1,0,18.016A12.738,12.738,0,0,1,1009.994,458.722Z" transform="translate(-989.819 -438.558)" fill="#f9ed32"/>
    </g>
  </g>
</svg>
