<svg id="map_view" xmlns="http://www.w3.org/2000/svg" width="18.004" height="18.004" viewBox="0 0 18.004 18.004">
  <path id="Path_1767" data-name="Path 1767" d="M10,9.5A1.5,1.5,0,1,1,11.5,8,1.5,1.5,0,0,1,10,9.5Zm4.5-1.35a4.5,4.5,0,1,0-9,0c0,1.755,1.463,4.081,4.5,6.856C13.039,12.232,14.5,9.907,14.5,8.151ZM10,2a5.967,5.967,0,0,1,6,6.151Q16,11.887,10,17q-6-5.12-6-8.852A5.967,5.967,0,0,1,10,2Z" transform="translate(-0.999 -0.5)" fill="#207ebb"/>
  <path id="Path_1768" data-name="Path 1768" d="M0,0H18V18H0Z" fill="none"/>
</svg>
