<svg id="Layer_1" data-name="Layer 1" xmlns="http://www.w3.org/2000/svg" viewBox="0 0 22.5 32"><g id="pin"><g id="Group_22" data-name="Group 22"><g id="Group_21" data-name="Group 21"><path id="Path_33" data-name="Path 33" d="M18,2A11.25,11.25,0,0,0,8.43,19.17l8.93,14.39a.94.94,0,0,0,.8.44h0a.94.94,0,0,0,.8-.46L27.66,19A11.25,11.25,0,0,0,18,2Zm8.05,16.05L18.14,31.26,10,18.18a9.38,9.38,0,1,1,17.36-4.93A9.33,9.33,0,0,1,26.05,18.05Z" transform="translate(-6.75 -2)"/></g></g><g id="Group_24" data-name="Group 24"><g id="Group_23" data-name="Group 23"><path id="Path_34" data-name="Path 34" d="M18,7.62a5.63,5.63,0,1,0,5.63,5.63A5.62,5.62,0,0,0,18,7.62ZM18,17a3.76,3.76,0,1,1,3.76-3.77h0A3.77,3.77,0,0,1,18,17Z" transform="translate(-6.75 -2)"/></g></g></g></svg>