<?xml version="1.0" encoding="utf-8"?>
<!-- Generator: Adobe Illustrator 24.0.2, SVG Export Plug-In . SVG Version: 6.00 Build 0)  -->
<svg version="1.1" id="Layer_1" xmlns="http://www.w3.org/2000/svg" xmlns:xlink="http://www.w3.org/1999/xlink" x="0px" y="0px"
	 viewBox="0 0 36 36" style="enable-background:new 0 0 36 36;" xml:space="preserve">
<title>Text Message</title>
<path d="M32.4,1.8H3.6C1.6,1.8,0,3.4,0,5.4v19.5c0,1.8,1.5,3.3,3.3,3.3c0,0,0,0,0,0l-0.9,4.6c-0.1,0.7,0.4,1.3,1,1.4
	c0.3,0,0.6,0,0.8-0.2l9.4-5.8h18.8c2,0,3.6-1.6,3.6-3.6V5.4C36,3.4,34.4,1.8,32.4,1.8z M33.6,24.6c0,0.7-0.5,1.2-1.2,1.2H13.6
	c-0.4,0-0.9,0.1-1.3,0.4l-7,4.4l0.4-1.8c0.3-1.3-0.6-2.6-1.9-2.8c-0.2,0-0.3,0-0.5,0c-0.5,0-0.9-0.4-0.9-0.9V5.4
	c0-0.7,0.5-1.2,1.2-1.2h28.8c0.7,0,1.2,0.5,1.2,1.2V24.6z M30,9c0,0.7-0.5,1.2-1.2,1.2H7.2C6.5,10.2,6,9.7,6,9
	c0-0.7,0.5-1.2,1.2-1.2h21.6C29.5,7.8,30,8.4,30,9z M30,15c0,0.7-0.5,1.2-1.2,1.2H7.2C6.5,16.2,6,15.7,6,15c0-0.7,0.5-1.2,1.2-1.2
	h21.6C29.5,13.8,30,14.4,30,15z M24,21c0,0.7-0.5,1.2-1.2,1.2H7.2C6.5,22.2,6,21.7,6,21s0.5-1.2,1.2-1.2h15.6
	C23.5,19.8,24,20.4,24,21z"/>
</svg>
