<svg xmlns="http://www.w3.org/2000/svg" width="9.328" height="10.3" viewBox="0 0 9.328 10.3"><defs><style>.a{fill:#207ebb;stroke:#207ebb;stroke-width:0.3px;}</style></defs><g transform="translate(0.15 0.15)"><g transform="translate(0)"><path class="a" d="M7.728,8.667a1.51,1.51,0,0,1-3,0H2.144A.439.439,0,0,1,1.7,8.222V7.694a.984.984,0,0,1,.972-.972.074.074,0,0,0,.083-.083V4.528A3.435,3.435,0,0,1,5.144,1.25V1.056A1.1,1.1,0,0,1,6.228,0,1.055,1.055,0,0,1,7.283,1.056v.167A3.435,3.435,0,0,1,9.672,4.5V6.611a.074.074,0,0,0,.083.083.984.984,0,0,1,.972.972v.528a.439.439,0,0,1-.444.444H7.728Zm-.556,0H5.256a.973.973,0,0,0,1.917,0ZM10.2,7.694a.439.439,0,0,0-.444-.444.617.617,0,0,1-.611-.611V4.528A2.943,2.943,0,0,0,6.95,1.694l-.194-.056V1.056a.528.528,0,0,0-1.056,0v.583l-.194.056A2.943,2.943,0,0,0,3.311,4.528V6.639A.617.617,0,0,1,2.7,7.25a.439.439,0,0,0-.444.444v.444h7.972V7.694Z" transform="translate(-1.7)"/></g></g></svg>