<svg xmlns="http://www.w3.org/2000/svg" width="16.685" height="16" viewBox="0 0 16.685 16"><defs><style>.a{fill:gray;}</style></defs><path class="a" d="M17.23,13.6l-3.09-2.8a1.163,1.163,0,0,0-.981-.343,1.222,1.222,0,0,0-.834.392L11.051,12.28a7.2,7.2,0,0,1-2.8-1.667A6.546,6.546,0,0,1,6.393,7.964L7.668,6.542a1.163,1.163,0,0,0,.343-.981,1.222,1.222,0,0,0-.392-.834L4.48,1.932a1.229,1.229,0,0,0-.932-.245,1.344,1.344,0,0,0-.883.392L1.39,3.551l-.1.1V3.7c0,.049-.049.049-.049.1A7.659,7.659,0,0,0,1.93,9.288a16.634,16.634,0,0,0,3.923,5A14.968,14.968,0,0,0,11.1,17.331a7.423,7.423,0,0,0,2.256.343,4.345,4.345,0,0,0,2.55-.736c.049-.049.1-.049.147-.147l1.275-1.422a1.163,1.163,0,0,0,.343-.981A1.058,1.058,0,0,0,17.23,13.6ZM6.883,5.855,5.363,7.572a.522.522,0,0,0-.1.588,7.741,7.741,0,0,0,2.354,3.384,8.493,8.493,0,0,0,3.58,2.011.659.659,0,0,0,.588-.147l1.52-1.716c.049-.049.049-.049.1-.049s.049,0,.1.049l3.09,2.844c.049.049.049.049.049.1s0,.049-.049.1l-1.275,1.422a4.523,4.523,0,0,1-3.825.245,14,14,0,0,1-4.806-2.844,14.272,14.272,0,0,1-3.629-4.61A6.718,6.718,0,0,1,2.42,4.139L3.6,2.815a.18.18,0,0,1,.147.049l3.09,2.8c.049.049.049.049.049.1C6.932,5.757,6.883,5.806,6.883,5.855Z" transform="translate(-0.996 -1.675)"/></svg>