<svg xmlns="http://www.w3.org/2000/svg" width="18.064" height="18" viewBox="0 0 18.064 18"><defs><style>.a{fill:#207ebb;}</style></defs><path class="a" d="M17.951,14.769l-2.422-1.73a2.188,2.188,0,0,0-3.027.519l-.346.519a20.545,20.545,0,0,1-2.681-2.249A18.439,18.439,0,0,1,7.226,9.147L7.745,8.8A2.02,2.02,0,0,0,8.61,7.417a2.269,2.269,0,0,0-.432-1.643L6.534,3.351A2.206,2.206,0,0,0,4.8,2.4a3.55,3.55,0,0,0-2.076.951,4.735,4.735,0,0,0-.951,1.73C1.085,7.849,2.814,11.915,6.188,15.2c2.768,2.768,6.141,4.5,8.823,4.5a9,9,0,0,0,1.3-.173A4.133,4.133,0,0,0,18.9,17.191,2.324,2.324,0,0,0,17.951,14.769ZM5.842,8.455c-.086,0-.173.173-.259.346a1.025,1.025,0,0,0,.086.692,26.959,26.959,0,0,0,2.768,3.46,23.4,23.4,0,0,0,3.46,2.854.94.94,0,0,0,.432.087c.259,0,.432-.173.432-.259l.778-1.124c.173-.173.346-.259.432-.346a.823.823,0,0,1,.605.173L17,16.067c.346.259.432.519.346.778a3.648,3.648,0,0,1-1.557,1.471,6.487,6.487,0,0,1-1.038.086c-2.162,0-5.19-1.643-7.7-4.152C4.2,11.482,2.468,7.763,3.074,5.6a7.6,7.6,0,0,1,.605-1.124,1.482,1.482,0,0,1,1.038-.692h0a.787.787,0,0,1,.692.346l1.73,2.422a1.6,1.6,0,0,1,.173.605c0,.173-.173.346-.346.519Z" transform="translate(-1.626 -1.7)"/><path class="a" d="M18.188,4.4h0a9.292,9.292,0,0,0-6.3-2.8.715.715,0,0,0-.788.7.652.652,0,0,0,.263.613.668.668,0,0,0,.438.175A8.274,8.274,0,0,1,17.225,5.45a8.656,8.656,0,0,1,2.45,5.338.753.753,0,0,0,.7.7.771.771,0,0,0,.7-.788A11.6,11.6,0,0,0,18.188,4.4Z" transform="translate(-3.012 -1.6)"/><path class="a" d="M11.5,5.575h0a6.052,6.052,0,0,1,3.938,1.75,5.838,5.838,0,0,1,1.75,3.85.753.753,0,0,0,.7.7.771.771,0,0,0,.7-.788A7.241,7.241,0,0,0,16.4,6.275,7.156,7.156,0,0,0,11.5,4a.644.644,0,0,0-.7.7A.852.852,0,0,0,11.5,5.575Z" transform="translate(-2.974 -1.9)"/><path class="a" d="M11.425,8.213A4.437,4.437,0,0,1,13.963,9.35,4.256,4.256,0,0,1,15.1,11.8a.753.753,0,0,0,.7.7.771.771,0,0,0,.7-.788,5.508,5.508,0,0,0-1.488-3.325A5.1,5.1,0,0,0,11.688,6.9a1.265,1.265,0,0,0-.613.175c-.175.088-.175.35-.175.438a.74.74,0,0,0,.175.525C11.075,8.125,11.163,8.213,11.425,8.213Z" transform="translate(-2.914 -2.336)"/></svg>