<svg xmlns="http://www.w3.org/2000/svg" width="18.363" height="12.866" viewBox="0 0 18.363 12.866"><defs><style>.a{fill:#207ebb;stroke:#fff;stroke-width:0.3px;}</style></defs><path class="a" d="M17.743,4.8H3.607A1.975,1.975,0,0,0,1.6,6.807v8.552a1.975,1.975,0,0,0,2.007,2.007H17.656a1.975,1.975,0,0,0,2.007-2.007V6.807A1.957,1.957,0,0,0,17.743,4.8Zm-7.33,7.068L4.131,6.283H17.307l-6.283,5.585A.422.422,0,0,1,10.413,11.868ZM9.366,13.09a2.1,2.1,0,0,0,2.618,0l1.047-.96,3.927,3.752H4.48L8.406,12.13ZM7.272,11.083l-4.1,3.927V7.418Zm6.894,0,4.1-3.665V15.01Z" transform="translate(-1.45 -4.65)"/></svg>