<svg xmlns="http://www.w3.org/2000/svg" width="15.959" height="16" viewBox="0 0 15.959 16"><defs><style>.a{fill:gray;}</style></defs><path class="a" d="M16.482,8.482H9.518V1.518A.522.522,0,0,0,9,1H1.518A.522.522,0,0,0,1,1.518V16.435A.534.534,0,0,0,1.518,17H16.435a.522.522,0,0,0,.518-.518V9A.457.457,0,0,0,16.482,8.482Zm-14.4-6.4h6.4V15.965h-1.6V13.847a.522.522,0,0,0-.518-.518H4.2a.522.522,0,0,0-.518.518v2.118h-1.6ZM4.718,15.918v-1.6H5.8v1.6Zm11.2,0h-6.4v-6.4h6.4ZM4.2,4.2H3.118V3.118H4.2Zm1.6,0H4.718V3.118H5.8Zm1.6,0H6.318V3.118H7.4ZM4.2,5.8H3.118V4.718H4.2Zm1.6,0H4.718V4.718H5.8Zm1.6,0H6.318V4.718H7.4ZM4.2,7.4H3.118V6.318H4.2Zm1.6,0H4.718V6.318H5.8Zm1.6,0H6.318V6.318H7.4ZM4.2,9H3.118V7.918H4.2ZM5.8,9H4.718V7.918H5.8ZM7.4,9H6.318V7.918H7.4ZM4.2,10.6H3.118V9.518H4.2Zm1.6,0H4.718V9.518H5.8Zm1.6,0H6.318V9.518H7.4ZM4.2,12.2H3.118V11.118H4.2Zm1.6,0H4.718V11.118H5.8Zm1.6,0H6.318V11.118H7.4Zm4.282-.518H10.6V10.6h1.082Zm1.6,0H12.2V10.6h1.082Zm1.6,0H13.8V10.6h1.082Zm-3.2,1.6H10.6V12.2h1.082Zm1.6,0H12.2V12.2h1.082Zm1.6,0H13.8V12.2h1.082Zm-3.2,1.6H10.6V13.8h1.082Zm1.6,0H12.2V13.8h1.082Zm1.6,0H13.8V13.8h1.082Z" transform="translate(-1 -1)"/></svg>