<?xml version="1.0" encoding="utf-8"?>
<!-- Generator: Adobe Illustrator 24.0.2, SVG Export Plug-In . SVG Version: 6.00 Build 0)  -->
<svg version="1.1" id="Layer_1" xmlns="http://www.w3.org/2000/svg" xmlns:xlink="http://www.w3.org/1999/xlink" x="0px" y="0px"
	 viewBox="0 0 36 36" style="enable-background:new 0 0 36 36;" xml:space="preserve">
<title>A49</title>
<path d="M32.1,6.6c-0.9-0.3-1.9-0.1-2.6,0.6c-0.2,0.2-16.9,16.9-17.1,17.1c-0.2,0.2-0.3,0.3-0.3,0.6L11.3,30
	c-0.1,0.5,0.3,1.1,0.8,1.1c0.1,0,0.2,0,0.3,0l4.3-0.7c0.9-0.1,1.3-0.2,1.5-0.5l17-17c0.7-0.7,0.9-1.7,0.6-2.6
	C35.3,8.5,33.9,7.1,32.1,6.6z M13.5,28.9l0.4-2.8l2.4,2.4C15.5,28.6,14.4,28.8,13.5,28.9z M18,27.4l-2.9-2.9l13.3-13.3l2.9,2.9
	L18,27.4z M33.8,11.5l-1.2,1.2l-2.9-2.9l1.2-1.2c0.1-0.1,0.2-0.2,0.7-0.1c1.1,0.4,1.9,1.2,2.3,2.3C34.1,11.3,33.9,11.4,33.8,11.5z
	 M26.4,23.8l2-2v13.8c0,0.2-0.2,0.4-0.4,0.4H0.4C0.2,36,0,35.8,0,35.6c0,0,0,0,0,0V0.4C0,0.2,0.2,0,0.4,0c0,0,0,0,0,0H28
	c0.2,0,0.4,0.2,0.4,0.4v5.9l-2,2V2H2v32h24.4V23.8z"/>
</svg>
