<svg xmlns="http://www.w3.org/2000/svg" xmlns:xlink="http://www.w3.org/1999/xlink" version="1.1" id="Layer_1" x="0px" y="0px" viewBox="0 0 36 36" style="enable-background:new 0 0 36 36;" xml:space="preserve">
<style type="text/css">
	.st0{fill:#959cb6;}
</style>
<path class="st0" d="M30.4,7.8l-6.4-6.3C23.9,1.2,23.6,1,23.1,1H6.5C5.8,1,5.3,1.4,5.3,2v31.8c0,0.7,0.5,1.1,1.1,1.1h23.1  c0.6,0,1.1-0.4,1.1-1.1V9C30.7,8.5,30.7,8.2,30.4,7.8z M24.2,7.9V4.8l3.1,3.1H24.2z M23,10.2h5.4l0.1,22.6H7.6V3.2h14.3V9  C21.9,9.7,22.4,10.2,23,10.2z"/>
</svg>
