<svg xmlns="http://www.w3.org/2000/svg" width="20" height="20" viewBox="0 0 20 20"><defs><style>.a{fill:none;}.b,.c{fill:#207ebb;fill-rule:evenodd;}.b{opacity:0.3;}</style></defs><g transform="translate(0.333)"><rect class="a" width="20" height="20" transform="translate(-0.333)"/><g transform="translate(2.021 2.042)"><path class="b" d="M.337,8.175l1.75-1.75a1.208,1.208,0,0,1,1.75,0l1.75,1.75a1.208,1.208,0,0,1,0,1.75l-1.75,1.75a1.208,1.208,0,0,1-1.75,0L.337,9.925A1.38,1.38,0,0,1,.337,8.175Zm10,0,1.75-1.75a1.208,1.208,0,0,1,1.75,0l1.75,1.75a1.208,1.208,0,0,1,0,1.75l-1.75,1.75a1.208,1.208,0,0,1-1.75,0l-1.75-1.75A1.38,1.38,0,0,1,10.337,8.175Z" transform="translate(-0.025 -1.05)"/><path class="c" d="M6.337,12.175l1.75-1.75a1.208,1.208,0,0,1,1.75,0l1.75,1.75a1.208,1.208,0,0,1,0,1.75l-1.75,1.75a1.208,1.208,0,0,1-1.75,0l-1.75-1.75A1.38,1.38,0,0,1,6.337,12.175Zm0-10L8.087.425a1.208,1.208,0,0,1,1.75,0l1.75,1.75a1.208,1.208,0,0,1,0,1.75l-1.75,1.75a1.208,1.208,0,0,1-1.75,0l-1.75-1.75A1.38,1.38,0,0,1,6.337,2.175Z" transform="translate(-1.025 -0.05)"/></g></g></svg>