<svg xmlns="http://www.w3.org/2000/svg" width="14.585" height="16.155" viewBox="0 0 14.585 16.155"><defs><style>.a{fill:#595d6e;}</style></defs><g transform="translate(0)"><path class="a" d="M11.438,14a2.44,2.44,0,0,1-4.847,0H2.418a.709.709,0,0,1-.718-.718v-.853A1.59,1.59,0,0,1,3.271,10.86a.119.119,0,0,0,.135-.135V7.315a5.55,5.55,0,0,1,3.859-5.3V1.705A1.773,1.773,0,0,1,9.015,0,1.7,1.7,0,0,1,10.72,1.705v.269a5.55,5.55,0,0,1,3.859,5.3V10.68a.119.119,0,0,0,.135.135,1.59,1.59,0,0,1,1.571,1.571v.853a.709.709,0,0,1-.718.718H11.438Zm-.9,0h-3.1a1.572,1.572,0,0,0,3.1,0Zm4.891-1.571a.709.709,0,0,0-.718-.718,1,1,0,0,1-.987-.987V7.315a4.754,4.754,0,0,0-3.545-4.577l-.314-.09V1.705a.853.853,0,0,0-1.705,0v.942l-.314.09A4.754,4.754,0,0,0,4.3,7.315v3.411a1,1,0,0,1-.987.987.709.709,0,0,0-.718.718v.718H15.477v-.718Z" transform="translate(-1.7)"/></g></svg>