<svg xmlns="http://www.w3.org/2000/svg" width="42.311" height="40" viewBox="0 0 42.311 40"><defs><style>.a{opacity:0.3;}.b{fill:#417d1a;}</style></defs><g transform="translate(-1 -2.3)"><g class="a" transform="translate(13.423 2.3)"><g transform="translate(2.555 2.379)"><path class="b" d="M18.352,5a.352.352,0,1,0,.352.352A.379.379,0,0,0,18.352,5Z" transform="translate(-18 -5)"/></g><g transform="translate(20.088 9.956)"><path class="b" d="M38.252,13.6a.352.352,0,1,0,.352.352.379.379,0,0,0-.352-.352Z" transform="translate(-37.9 -13.6)"/></g><g transform="translate(7.489 2.379)"><path class="b" d="M27.741,5A4.136,4.136,0,0,0,23.6,9.141a4.185,4.185,0,0,0,8.37.088A4.153,4.153,0,0,0,27.829,5Z" transform="translate(-23.6 -5)"/></g><g transform="translate(3.877 3.877)"><path class="b" d="M41.791,6.7H40.733v8.282A2.764,2.764,0,0,1,38,17.8H19.5v1.145a.72.72,0,0,0,.7.793H41.791a.869.869,0,0,0,.881-.793V7.669A1.026,1.026,0,0,0,41.791,6.7Z" transform="translate(-19.5 -6.7)"/></g><path class="b" d="M38.36,14.547V3.093a.79.79,0,0,0-.793-.793H15.893a.79.79,0,0,0-.793.793V14.547a.79.79,0,0,0,.793.793H37.479A.937.937,0,0,0,38.36,14.547ZM18.007,7.322a2.333,2.333,0,0,1-2.291-2.291,2.333,2.333,0,0,1,2.291-2.291A2.4,2.4,0,0,1,20.3,5.031a2.275,2.275,0,0,1-2.291,2.291ZM26.73,14.9A6.079,6.079,0,1,1,32.809,8.82h0A5.981,5.981,0,0,1,26.73,14.9Zm8.811-.088a2.291,2.291,0,1,1,2.291-2.291h0A2.222,2.222,0,0,1,35.541,14.811Z" transform="translate(-15.1 -2.3)"/></g><path class="b" d="M42.674,29.082h0l-.264-.264h0A2.079,2.079,0,0,0,41,28.2a2.623,2.623,0,0,0-1.938.529l-6.167,5.022a4.06,4.06,0,0,1-2.291.881l-6.079.176a4.427,4.427,0,0,1-2.115-.529l-.529-.352a.9.9,0,0,1-.441-.7.955.955,0,0,1,.7-.969l5.022-.969a2.524,2.524,0,0,0,1.674-.969,2.417,2.417,0,0,0,.529-1.85,2.524,2.524,0,0,0-.969-1.674,2.22,2.22,0,0,0-1.762-.529L20.119,26a14.029,14.029,0,0,0-7.048,1.586L8.93,29.523v-.441A1.994,1.994,0,0,0,6.9,27.056H3.026A1.994,1.994,0,0,0,1,29.082V43.091a1.994,1.994,0,0,0,2.026,2.026H6.9A1.994,1.994,0,0,0,8.93,43.091V42.034l4.141-.793a12.8,12.8,0,0,1,3.172-.176l9.956.441a13.984,13.984,0,0,0,9.339-3.172l6.872-5.727A2.428,2.428,0,0,0,42.674,29.082ZM7.256,43.091a.379.379,0,0,1-.352.352H3.026a.379.379,0,0,1-.352-.352V29.082a.379.379,0,0,1,.352-.352H6.9a.379.379,0,0,1,.352.352V43.091Zm34.1-11.718L34.48,37.1a11.993,11.993,0,0,1-8.194,2.731l-9.956-.441a16.829,16.829,0,0,0-3.612.176l-2.467.529V30.668l3.524-1.762a12.784,12.784,0,0,1,6.256-1.41l6.52.264h.176a.833.833,0,0,1,.969.793.743.743,0,0,1-.176.617.892.892,0,0,1-.617.352l-5.022.969a2.564,2.564,0,0,0-2.026,2.643,2.775,2.775,0,0,0,1.233,2.026l.529.352a5.047,5.047,0,0,0,3,.7l6.079-.176a5.185,5.185,0,0,0,3.26-1.233l6.167-5.022a.949.949,0,0,1,.7-.176.892.892,0,0,1,.617.352l.264.352A1.4,1.4,0,0,1,41.352,31.373Zm.7-1.762.441-.352.088-.088Z" transform="translate(0 -2.818)"/></g></svg>