<svg xmlns="http://www.w3.org/2000/svg" width="32.917" height="40" viewBox="0 0 32.917 40"><defs><style>.a{fill:none;}.b,.c{fill:#6a9f3a;}.c{opacity:0.3;}</style></defs><g transform="translate(-5.3 -1)"><g transform="translate(5.3 1)"><path class="a" d="M8,7.046A3.107,3.107,0,0,0,10.831,9.3V9.221H34.392V3.7H11.58C10,3.7,8.333,4.453,8,5.875Z" transform="translate(-5.741 -1.441)"/><path class="a" d="M11.315,12.9a5.611,5.611,0,0,1-3.331-1L7.9,37.831c0,1.757,1.916,2.677,3.665,2.677l24.735.167.083-27.855L11.315,12.9Z" transform="translate(-5.725 -2.934)"/><path class="b" d="M38.133,8.75h-2V1H10.717C8.05,1.167,5.3,2.833,5.3,5.917v30h0v.333h0c.25,3,3.083,4.583,5.833,4.583l27,.167.083-30h0Zm-27-5.5H33.967V8.833l-23.583.083h0A3.326,3.326,0,0,1,7.55,6.583V5.417C7.883,4,9.55,3.25,11.133,3.25Zm24.75,35.5-24.75-.167c-1.75,0-3.667-.917-3.667-2.667L7.55,10.083a5.631,5.631,0,0,0,3.333,1h0L35.967,11Z" transform="translate(-5.3 -1)"/><g transform="translate(8.575 2.844)"><path class="b" d="M37.493,4.4H22.353a.753.753,0,0,0,0,1.506H37.493a.753.753,0,1,0,0-1.506Z" transform="translate(-16.665 -4.4)"/><path class="b" d="M25.487,7.4H16.453a.753.753,0,1,0,0,1.506h9.034a.753.753,0,1,0,0-1.506Z" transform="translate(-15.7 -4.891)"/></g></g><path class="c" d="M34.1,24.279l-8.153.084L22.7,16.5l-3.245,7.863L11.3,24.279,17.623,28.8l-4.076,9.787,9.151-6.19,9.151,6.19L27.772,28.8Z" transform="translate(-0.981 -2.686)"/></g></svg>