<svg xmlns="http://www.w3.org/2000/svg" width="11.997" height="16" viewBox="0 0 11.997 16"><defs><style>.a{fill:gray;}</style></defs><g transform="translate(-23.998 -15.984)"><path class="a" d="M36,21.986a6,6,0,1,0-9.5,4.869v4.629a.5.5,0,0,0,.657.475L30,31.011l2.842.947a.482.482,0,0,0,.157.025.5.5,0,0,0,.5-.5V26.855A6,6,0,0,0,36,21.986Zm-3.5,8.805-2.342-.782a.52.52,0,0,0-.315,0l-2.342.782V27.437a5.981,5.981,0,0,0,5,0ZM30,26.985a5,5,0,1,1,5-5A5,5,0,0,1,30,26.985Z" transform="translate(0 0)"/></g></svg>