<?xml version="1.0" encoding="utf-8"?>
<!-- Generator: Adobe Illustrator 24.1.2, SVG Export Plug-In . SVG Version: 6.00 Build 0)  -->
<svg version="1.1" id="Layer_1" xmlns="http://www.w3.org/2000/svg" xmlns:xlink="http://www.w3.org/1999/xlink" x="0px" y="0px"
	 viewBox="0 0 36 36" style="enable-background:new 0 0 36 36;" xml:space="preserve">
<g>
	<path d="M6.1,6.5h1.8L12,18h-1.7l-1.2-3.4H4.6L3.3,18H1.7L6.1,6.5z M8.6,13.2L6.9,8.2L5,13.2L8.6,13.2z"/>
	<path d="M12.6,18.4H10l-1.2-3.4H4.9l-1.2,3.4H1.2L5.8,6.1h2.3L12.6,18.4z M10.6,17.6h0.9L7.6,6.9H6.3l-4,10.7h0.7l1.2-3.4h5.1
		L10.6,17.6L10.6,17.6z M9.2,13.6H4.5L6.9,7C6.9,7,9.2,13.6,9.2,13.6z M5.6,12.8h2.5L6.9,9.4L5.6,12.8z"/>
	<polygon points="35,9.1 15.9,9.1 15.9,6.7 35,6.7 	"/>
	<polygon points="35,16.1 15.9,16.1 15.9,13.7 35,13.7 	"/>
	<polygon points="35,23 1,23 1,20.6 35,20.6 	"/>
	<polygon points="35,29.9 1,29.9 1,27.5 35,27.5 	"/>
</g>
</svg>
