<svg xmlns="http://www.w3.org/2000/svg" width="20.518" height="14" viewBox="0 0 20.518 14"><defs><style>.a{fill:gray;}</style></defs><path class="a" d="M2.991,958.8A2.009,2.009,0,0,0,1,960.791v10.017A2.009,2.009,0,0,0,2.991,972.8H19.526a2.009,2.009,0,0,0,1.991-1.991V960.791a2.009,2.009,0,0,0-1.991-1.991Zm0,.965H19.526a.869.869,0,0,1,.422.121l-8.086,7.181a.875.875,0,0,1-1.267,0l-8.026-7.181a1.116,1.116,0,0,1,.422-.121Zm-.966.905L7.759,965.8l-5.672,5.431a1.137,1.137,0,0,1-.121-.483l.06-10.078Zm18.466,0v10.138a1.137,1.137,0,0,1-.121.483l-5.612-5.431,5.733-5.19Zm-6.517,5.793,5.552,5.31H2.991l5.552-5.31,1.509,1.327a2.086,2.086,0,0,0,2.595,0l1.328-1.327Z" transform="translate(-1 -958.8)"/></svg>