<svg xmlns="http://www.w3.org/2000/svg" width="14.658" height="16.158" viewBox="0 0 14.658 16.158"><defs><style>.a{fill:#595d6e;}</style></defs><path class="a" d="M2.843,14.85a1.584,1.584,0,0,0,1.526,1.3h.224L12.4,15.03a1.542,1.542,0,0,0,1.3-1.705v-.09h.18a1.547,1.547,0,0,0,1.526-1.346l.9-7.808a1.55,1.55,0,0,0-1.346-1.705l-4.218-.494.045-.628A1.206,1.206,0,0,0,9.619,0,1.248,1.248,0,0,0,8.363.983L8.093,3.541a1.2,1.2,0,0,0,2.378.314V3.811a.406.406,0,0,0-.808-.09h0a.37.37,0,0,1-.449.314.431.431,0,0,1-.314-.4l.314-2.6A.37.37,0,0,1,9.664.714a.431.431,0,0,1,.314.4L9.889,2.2a.38.38,0,0,0,.359.449l4.622.539a.7.7,0,0,1,.628.763l-.9,7.808a.7.7,0,0,1-.763.628h0l-7.853-.9a.7.7,0,0,1-.628-.763l.9-7.808a.7.7,0,0,1,.763-.628h0l.224.045a.38.38,0,0,0,.449-.359.38.38,0,0,0-.359-.449h0l-.224-.045A1.55,1.55,0,0,0,5.4,2.823l-.224,1.93-2.2.314a1.509,1.509,0,0,0-1.3,1.705h0ZM2.664,6.1a.6.6,0,0,1,.449-.269l1.975-.269L4.5,10.587A1.55,1.55,0,0,0,5.85,12.292l7,.808.045.314a.7.7,0,0,1-.583.763L4.459,15.344a.716.716,0,0,1-.808-.583h0L2.484,6.683A.828.828,0,0,1,2.664,6.1Z" transform="translate(-1.657 0.007)"/></svg>