<svg xmlns="http://www.w3.org/2000/svg" width="10" height="10" viewBox="0 0 10 10">
    <defs>
        <style>.a{fill:#ffffff;}</style>
    </defs>
    <path class="a" d="M8,1.556H2V.306A.308.308,0,0,1,2.306,0H7.722a.308.308,0,0,1,.306.306h0v1.25Zm2,1.667V6.806A1.215,1.215,0,0,1,8.778,8.028H8.444V5.472H1.556V8.028H1.222A1.215,1.215,0,0,1,0,6.806H0V3.222A1.215,1.215,0,0,1,1.222,2H8.806A1.192,1.192,0,0,1,10,3.222Zm-1.111.444a.556.556,0,1,0-.556.556A.557.557,0,0,0,8.889,3.667ZM2.306,10A.308.308,0,0,1,2,9.694V5.889H8V9.694A.308.308,0,0,1,7.694,10Zm.361-3.167a.262.262,0,0,0,.278.278H7.056a.278.278,0,0,0,0-.556H2.944a.262.262,0,0,0-.278.278Zm0,1.111a.262.262,0,0,0,.278.278H7.056a.278.278,0,1,0,0-.556H2.944a.262.262,0,0,0-.278.278Zm0,1.111a.262.262,0,0,0,.278.278H7.056a.278.278,0,0,0,0-.556H2.944a.262.262,0,0,0-.278.278Z" />
</svg>