<svg xmlns="http://www.w3.org/2000/svg" width="16.155" height="14.36" viewBox="0 0 16.155 14.36"><defs><style>.a{fill:#595d6e;fill-rule:evenodd;}</style></defs><g transform="translate(7.376 2.844)"><path class="a" d="M19.427,8.365a.467.467,0,0,0-.583.269l-2.378,6.013a.454.454,0,1,0,.853.314L19.7,8.949A.514.514,0,0,0,19.427,8.365Z" transform="translate(-16.437 -8.337)"/></g><g transform="translate(5.53 4.454)"><path class="a" d="M15.05,16.671l-1.885-4.443a.431.431,0,0,0-.583-.269.445.445,0,0,0-.224.583l1.885,4.443a.445.445,0,0,0,.583.224A.383.383,0,0,0,15.05,16.671Z" transform="translate(-12.323 -11.925)"/></g><g transform="translate(1.795 6.821)"><path class="a" d="M6.782,17.2H4.449a.449.449,0,1,0,0,.9H6.782a.449.449,0,1,0,0-.9Z" transform="translate(-4 -17.2)"/></g><g transform="translate(4.228 4.452)"><path class="a" d="M11.252,11.957a.473.473,0,0,0-.583.18L9.457,14.56a.432.432,0,0,0,.763.4l1.212-2.423A.4.4,0,0,0,11.252,11.957Z" transform="translate(-9.422 -11.922)"/></g><g transform="translate(9.715 2.894)"><path class="a" d="M23.78,12.645,22.7,8.83a.539.539,0,1,0-1.032.314l1.077,3.814a.538.538,0,0,0,.673.359A.6.6,0,0,0,23.78,12.645Z" transform="translate(-21.648 -8.448)"/></g><g transform="translate(11.129 6.821)"><path class="a" d="M27.582,17.2H25.249a.449.449,0,1,0,0,.9h2.334a.449.449,0,1,0,0-.9Z" transform="translate(-24.8 -17.2)"/></g><g transform="translate(0 0)"><path class="a" d="M14.36,2H1.8A1.8,1.8,0,0,0,0,3.8V12.77a1.8,1.8,0,0,0,1.8,1.8H14.36a1.8,1.8,0,0,0,1.8-1.8V3.8A1.8,1.8,0,0,0,14.36,2Zm.9,10.591c0,.9-.18,1.077-1.077,1.077H1.975A.952.952,0,0,1,.9,12.591V3.975A.952.952,0,0,1,1.975,2.9H14.181a.952.952,0,0,1,1.077,1.077Z" transform="translate(0 -2)"/></g><g transform="translate(3.59 13.463)"><path class="a" d="M16.526,32H8.449a.449.449,0,1,0,0,.9h8.078a.449.449,0,1,0,0-.9Z" transform="translate(-8 -32)"/></g><g transform="translate(6.283 12.924)"><path class="a" d="M17.141,30.8H14.449a.449.449,0,1,0,0,.9h2.693a.449.449,0,1,0,0-.9Z" transform="translate(-14 -30.8)"/></g></svg>