<?xml version="1.0" encoding="utf-8"?>
<!-- Generator: Adobe Illustrator 24.1.2, SVG Export Plug-In . SVG Version: 6.00 Build 0)  -->
<svg version="1.1" id="Layer_1" xmlns="http://www.w3.org/2000/svg" xmlns:xlink="http://www.w3.org/1999/xlink" x="0px" y="0px"
	width="15" height="15" viewBox="0 0 36 36" style="enable-background:new 0 0 36 36;" xml:space="preserve">
<g>
	<path  style="fill:#aeaeae" d="M12.8,34.9L12.8,34.9c1.1-0.4,1.4-1.7,0.5-2.5c-0.9-0.8-1.8-1.8-2.7-2.7c0-0.1-0.2-0.2-0.3-0.4c0.1-0.1,0.3-0.2,0.3-0.3
		c2.2-2.2,4.5-4.5,6.7-6.7c0.6-0.6,0.6-0.8,0-1.4c-0.7-0.7-1.4-1.4-2.2-2.2c-0.6-0.6-0.8-0.6-1.4,0c-1.8,1.8-3.6,3.6-5.3,5.3
		c-0.6,0.6-1.2,1.2-1.9,1.9c-0.1-0.1-0.2-0.3-0.3-0.4c-0.9-0.9-1.9-2-2.8-2.8c-0.6-0.6-1.4-0.6-2,0c-0.2,0.2-0.3,0.5-0.5,0.7
		c0,3.5,0,7,0,10.5c0,0.4,0,0.7,0,1.1c0.4,0,0.7,0,1.1,0C5.7,34.9,9.3,34.9,12.8,34.9z"/>
	<path  style="fill:#aeaeae" d="M33.4,1.1c-3.2,0-6.4,0-9.6,0c-0.7,0-1.2,0.3-1.4,0.8c-0.3,0.6-0.1,1.1,0.4,1.6c0.5,0.5,1,1,1.5,1.5c0.6,0.6,1,1,1.6,1.6
		c-0.1,0.1-0.2,0.2-0.3,0.3c-2.2,2.3-4.6,4.6-6.8,6.9c-0.5,0.5-0.5,0.7,0,1.2c0.7,0.7,1.5,1.5,2.2,2.2c0.6,0.6,0.8,0.6,1.4,0
		c1.7-1.7,3.4-3.4,5.1-5.1c0.7-0.7,1.3-1.3,2-2c0.1,0.1,0.2,0.2,0.3,0.3c0.9,0.9,1.9,1.9,2.8,2.8c0.6,0.6,1.1,0.7,1.7,0.4
		c0.6-0.3,0.8-0.7,0.8-1.4c0-3.2,0-6.4,0-9.6C34.9,1.7,34.3,1.1,33.4,1.1z"/>
</g>
</svg>
