<svg xmlns="http://www.w3.org/2000/svg" width="37.586" height="30.513" viewBox="0 0 37.586 30.513"><defs><style>.a{fill:gray;stroke:#fff;stroke-width:0.5px;}</style></defs><g transform="translate(0.285 -6.538)"><path class="a" d="M29.235,13.924,18.892,6.954a.854.854,0,0,0-.978,0C12.1,10.9,6.284,14.846.418,18.741A.868.868,0,1,0,1.4,20.176C7.056,16.384,12.768,12.54,18.428,8.7L35.667,20.227c.978.615,1.955-.82.978-1.435Z" transform="translate(0 0)"/><path class="a" d="M36.325,24.263l-13.19-8.908a.853.853,0,0,0-.979,0L8.864,24.263a.957.957,0,0,0-.464.772V40.02a.9.9,0,0,0,.876.875H35.964a.9.9,0,0,0,.876-.875V25.035A.793.793,0,0,0,36.325,24.263ZM18.292,39.144h-8.14V25.5L22.62,17.105,35.088,25.5V39.144h-8.14V28.794a.9.9,0,0,0-.876-.875h-6.9a.9.9,0,0,0-.876.875Zm1.752,0V29.67H25.2v9.475H20.044Z" transform="translate(-4.089 -4.095)"/></g></svg>