<svg id="Layer_1" data-name="Layer 1" xmlns="http://www.w3.org/2000/svg" viewBox="0 0 36 36"><defs><style>.cls-1{stroke:#000;stroke-miterlimit:10;stroke-width:0.4px;}</style></defs><title>List</title><circle cx="4.32" cy="30.02" r="1.11"/><path d="M22.63,23a2.68,2.68,0,0,0-2.88-2.54H14.84a10.11,10.11,0,0,0,.63-3.7c-.17-1.83-1-3.08-2.25-3.25-1-.14-1.82.76-2.28,2.41a14.45,14.45,0,0,1-1.21,2.79L7.1,21.19a2.14,2.14,0,0,0-1.56-.67H3.1A2.15,2.15,0,0,0,1,22.66V31.2A2.15,2.15,0,0,0,3.1,33.35H5.54A2.11,2.11,0,0,0,7,32.8,9.37,9.37,0,0,0,9.8,34a33.63,33.63,0,0,0,5.69.43h0c3.84,0,4.77-.63,5.15-1.17a3,3,0,0,0,.51-1.79,3.36,3.36,0,0,0,.78-1.35,4,4,0,0,0,.05-2,2.93,2.93,0,0,0,.57-1.64,3.76,3.76,0,0,0-.25-1.69l0-.1A4.76,4.76,0,0,0,22.63,23ZM5.54,31.87H3.1a.67.67,0,0,1-.67-.67V22.66A.67.67,0,0,1,3.1,22H5.54a.67.67,0,0,1,.67.67V31.2A.67.67,0,0,1,5.54,31.87Zm15.39-7.65c0,.14-.09.27-.12.41a.67.67,0,0,0,0,.42l.07.18a2.48,2.48,0,0,1,.19,1.16,1.53,1.53,0,0,1-.38,1l-.13.18a.71.71,0,0,0-.09.66,2.61,2.61,0,0,1,0,1.52,2.11,2.11,0,0,1-.62.91.72.72,0,0,0-.23.53,1.28,1.28,0,0,0,0,.19,1.54,1.54,0,0,1-.25,1s-.52.55-3.93.55a33.37,33.37,0,0,1-5.34-.39,7.86,7.86,0,0,1-2.46-1.06V22.66l3.14-3A1,1,0,0,0,11,19.5a16.16,16.16,0,0,0,1.4-3.23A2.84,2.84,0,0,1,13,14.93c.39.06.87.68,1,1.93a10.23,10.23,0,0,1-.91,4,.73.73,0,0,0,.07.69.72.72,0,0,0,.61.33h6c.39,0,1.41.19,1.41,1.07A3.33,3.33,0,0,1,20.93,24.22Z"/><path d="M31,1.43H21.1a3.92,3.92,0,0,0-3.92,3.91V12a3.92,3.92,0,0,0,2.91,3.77V18.3a.73.73,0,0,0,.46.68.67.67,0,0,0,.28.06.74.74,0,0,0,.52-.22l3-3H31A3.92,3.92,0,0,0,35,12V5.34A3.92,3.92,0,0,0,31,1.43ZM33.48,12A2.45,2.45,0,0,1,31,14.39H24a.73.73,0,0,0-.52.22l-1.92,1.91V15.11a.74.74,0,0,0-.68-.73A2.44,2.44,0,0,1,18.65,12V5.34A2.45,2.45,0,0,1,21.09,2.9H31a2.45,2.45,0,0,1,2.45,2.44V12Z"/><path class="cls-1" d="M23.81,12.6a.44.44,0,0,1-.25-.08.44.44,0,0,1-.17-.45l.52-2.31L22.13,8.2A.42.42,0,0,1,22,7.74a.41.41,0,0,1,.37-.29l2.35-.22.93-2.17a.44.44,0,0,1,.4-.26.43.43,0,0,1,.4.26l.93,2.17,2.36.22A.43.43,0,0,1,30,8.2L28.22,9.76l.52,2.31a.44.44,0,0,1-.17.45.42.42,0,0,1-.47,0l-2-1.21-2,1.21A.43.43,0,0,1,23.81,12.6Zm2.25-1.8a.46.46,0,0,1,.23.06L28.2,12l-.49-2.18a.42.42,0,0,1,.14-.42l1.68-1.47-2.23-.2a.44.44,0,0,1-.36-.27l-.88-2-.88,2.06a.44.44,0,0,1-.35.26l-2.23.2,1.68,1.47a.42.42,0,0,1,.14.42L23.92,12l1.92-1.15A.46.46,0,0,1,26.06,10.8ZM24.72,7.28Zm2.69,0h0Z"/></svg>