<svg id="redeem" xmlns="http://www.w3.org/2000/svg" width="17.815" height="17.815" viewBox="0 0 17.815 17.815">
  <path id="Path_7872" data-name="Path 7872" d="M15.362,4.969H13.743A2.222,2.222,0,0,0,9.794,3l-.371.5-.371-.5A2.222,2.222,0,0,0,5.1,4.969H3.485A1.473,1.473,0,0,0,2.007,6.454L2,14.619A1.479,1.479,0,0,0,3.485,16.1H15.362a1.479,1.479,0,0,0,1.485-1.485V6.454A1.479,1.479,0,0,0,15.362,4.969ZM11.65,3.485a.742.742,0,1,1-.742.742A.744.744,0,0,1,11.65,3.485Zm-4.454,0a.742.742,0,1,1-.742.742A.744.744,0,0,1,7.2,3.485Zm8.165,11.135H3.485V13.135H15.362Zm0-3.712H3.485V6.454H7.256l-1.544,2.1,1.2.869L8.681,7.018l.742-1.01.742,1.01,1.767,2.405,1.2-.869-1.544-2.1h3.771Z" transform="translate(-0.515 -0.515)" fill="#207ebb"/>
  <path id="Path_7873" data-name="Path 7873" d="M0,0H17.815V17.815H0Z" fill="none"/>
</svg>
