<?xml version="1.0" encoding="utf-8"?>
<!-- Generator: Adobe Illustrator 24.1.1, SVG Export Plug-In . SVG Version: 6.00 Build 0)  -->
<svg version="1.1" id="Layer_1" xmlns="http://www.w3.org/2000/svg" xmlns:xlink="http://www.w3.org/1999/xlink" x="0px" y="0px"
	 viewBox="0 0 36 36" style="enable-background:new 0 0 36 36;" xml:space="preserve">
<path d="M18,35c9.3,0,16.8-7.4,17-16.6c0-0.2-0.2-0.4-0.4-0.4l0,0h-3c-0.2,0-0.4,0.2-0.4,0.4c-0.2,7.3-6.3,13-13.6,12.8
	c-7.3-0.2-13-6.3-12.8-13.6s6.3-13,13.6-12.8c2.5,0.1,4.7,0.8,6.8,2.1l-3.7,3.7c-0.1,0.1-0.1,0.2,0,0.3c0,0,0.1,0.1,0.2,0.1h9.4
	c0.1,0,0.2-0.1,0.2-0.2V1.3c0-0.2-0.1-0.3-0.2-0.3C31,1,31,1,30.9,1.1l-3.1,3.1C20.3-1.3,9.6,0.4,4.2,8.1S0.4,26.4,8.1,31.8
	C11,33.9,14.4,35,18,35z" fill="#207ebb"/>
</svg>
