<svg xmlns="http://www.w3.org/2000/svg" width="34" height="30.6" viewBox="0 0 34 30.6" style="&#10;    fill: #fff;&#10;">
  <g id="Replace" transform="translate(-8 -12)">
    <g id="Group_28" data-name="Group 28" transform="translate(8 12)">
      <g id="Group_27" data-name="Group 27" transform="translate(0 0)">
        <g id="Group_26" data-name="Group 26">
          <path id="Path_48" data-name="Path 48" d="M28.5,15.4H35.3a5.1,5.1,0,0,1,5.1,5.107V30.677h3.4V20.507A8.5,8.5,0,0,0,35.3,12H28.5v3.4ZM35.3,39.2H28.5a5.111,5.111,0,0,1-5.1-5.1V25.6H20v8.5a8.511,8.511,0,0,0,8.5,8.5H35.3V39.2Z" transform="translate(-14.9 -12)" fill-rule="evenodd"/>
          <path id="Path_49" data-name="Path 49" d="M16,36.5a1.7,1.7,0,0,0-2.4,0L8.5,41.6A1.7,1.7,0,0,0,10.9,44l3.9-3.752L18.7,44a1.7,1.7,0,0,0,2.4-2.4Z" transform="translate(-8 -25.8)" fill-rule="evenodd"/>
          <path id="Path_50" data-name="Path 50" d="M62.8,44.25,58.9,40.5a1.7,1.7,0,0,0-2.4,2.4L61.6,48A1.7,1.7,0,0,0,64,48l5.1-5.1a1.7,1.7,0,0,0-2.4-2.4Z" transform="translate(-35.6 -28.1)" fill-rule="evenodd"/>
        </g>
      </g>
    </g>
  </g>
</svg>
