<svg xmlns="http://www.w3.org/2000/svg" width="30.965" height="34" viewBox="0 0 30.965 34" style="&#10;    fill: gray;&#10;">
  <g id="Request_a_file" data-name="Request a file" transform="translate(-2.263)">
    <g id="Group_14" data-name="Group 14" transform="translate(26.249 27.022)">
      <g id="Group_13" data-name="Group 13">
        <path id="Path_30" data-name="Path 30" d="M40,40.081a2.183,2.183,0,0,0-2.18,2.18v4.8L44.8,40.081Z" transform="translate(-37.818 -40.081)"/>
      </g>
    </g>
    <g id="Group_16" data-name="Group 16" transform="translate(8.368 4.361)">
      <g id="Group_15" data-name="Group 15" transform="translate(0)">
        <path id="Path_31" data-name="Path 31" d="M11.313,6.465v25.28A4.373,4.373,0,0,0,15.674,36.1H27.014V31.309a4.373,4.373,0,0,1,4.361-4.359h4.8V6.465H11.313ZM24.4,24.117h-7.85V21.938H24.4Zm6.543-5.23H16.546V16.708H30.938v2.179Zm0-5.231H16.546V11.477H30.938v2.179Z" transform="translate(-11.313 -6.465)"/>
      </g>
    </g>
    <g id="Group_18" data-name="Group 18" transform="translate(2.263)">
      <g id="Group_17" data-name="Group 17">
        <path id="Path_32" data-name="Path 32" d="M2.263,0V25.28a4.375,4.375,0,0,0,3.925,4.337V2.179H27.123V0Z" transform="translate(-2.263)"/>
      </g>
    </g>
  </g>
</svg>
