<svg xmlns="http://www.w3.org/2000/svg" width="12.141" height="12" viewBox="0 0 12.141 12"><defs><style>.a{fill:none;}.b,.c{fill:#207ebb;fill-rule:evenodd;}.b{opacity:0.3;}</style></defs><g transform="translate(0 -0.117)"><rect class="a" width="12" height="12" transform="translate(0.141 0.117)"/><path class="b" d="M2.023,14.059h.506a.506.506,0,0,1,0,1.012H2.023a.506.506,0,0,1,0-1.012ZM.506,11.529H2.529a.506.506,0,1,1,0,1.012H.506a.506.506,0,0,1,0-1.012ZM1.518,9H2.529a.506.506,0,1,1,0,1.012H1.518A.506.506,0,1,1,1.518,9Z" transform="translate(0 -5.988)"/><path class="c" d="M13.012,9h6.07a.994.994,0,0,1,1.012,1.012v4.047a.994.994,0,0,1-1.012,1.012h-6.07A.994.994,0,0,1,12,14.059V10.012A.994.994,0,0,1,13.012,9Zm5.6,1.045-2.563,1.349-2.563-1.349a.332.332,0,0,0-.438.135.293.293,0,0,0,.135.4L15.912,12a.468.468,0,0,0,.3,0l2.732-1.416a.293.293,0,0,0,.135-.4A.384.384,0,0,0,18.61,10.045Z" transform="translate(-7.953 -5.988)"/></g></svg>