<svg xmlns="http://www.w3.org/2000/svg" width="10.028" height="10" viewBox="0 0 10.028 10">
    <defs>
        <style>.a{fill:#959cb6;}</style>
    </defs>
    <path class="a" d="M8.639,3.722l-.167-.417c.583-1.333.556-1.389.444-1.5l-.75-.75L8.083,1H8c-.056,0-.194,0-1.306.528l-.417-.167C5.722,0,5.667,0,5.5,0H4.444c-.167,0-.222,0-.722,1.361l-.417.167a8.257,8.257,0,0,0-1.333-.5H1.889l-.806.806c-.111.139-.167.167.444,1.5l-.167.417C0,4.278,0,4.333,0,4.5V5.556c0,.167,0,.222,1.361.722l.167.417c-.583,1.333-.556,1.389-.444,1.5l.75.75L1.917,9H2c.056,0,.167,0,1.306-.528l.417.167C4.25,10,4.306,10,4.472,10H5.556c.167,0,.222,0,.722-1.361l.417-.167a7.362,7.362,0,0,0,1.333.5h.111l.806-.806C9.056,8.056,9.111,8,8.5,6.694l.167-.417c1.361-.556,1.361-.611,1.361-.778V4.444C10,4.278,10,4.222,8.639,3.722ZM5,6.75A1.75,1.75,0,1,1,6.75,5h0A1.743,1.743,0,0,1,5,6.75Z" />
</svg>