<svg xmlns="http://www.w3.org/2000/svg" width="14.902" height="34" viewBox="0 0 14.902 34" style="&#10;    fill: #808080;&#10;">
  <g id="Group_2" data-name="Group 2" transform="translate(-24.56 -58.058)">
    <path id="Path_4" data-name="Path 4" d="M39.462,68.78a.843.843,0,1,0-1.685,0v16.7a5.647,5.647,0,0,1-3.11,4.3,6.481,6.481,0,0,1-5.313,0,5.371,5.371,0,0,1-3.109-4.3V63.466a4.129,4.129,0,0,1,2.462-3.416,4.839,4.839,0,0,1,3.757,0,4.389,4.389,0,0,1,2.462,3.416V84.973a2.712,2.712,0,0,1-1.684,2.4h0a4.521,4.521,0,0,1-2.592,0h0a2.425,2.425,0,0,1-1.555-2.4V68.78a.909.909,0,0,0-1.814,0V84.973A4.445,4.445,0,0,0,30,88.895h-.129a5.852,5.852,0,0,0,4.146,0h0A4.5,4.5,0,0,0,36.611,85.1V63.466a5.716,5.716,0,0,0-3.369-4.934,7.681,7.681,0,0,0-5.313,0,5.557,5.557,0,0,0-3.369,4.934V85.479a7.146,7.146,0,0,0,4.017,5.82,8.148,8.148,0,0,0,6.868,0,7.185,7.185,0,0,0,4.017-5.693Z"/>
  </g>
</svg>
