<svg xmlns="http://www.w3.org/2000/svg" width="34" height="32.708" viewBox="0 0 34 32.708" style="&#10;    fill: #fff;&#10;">
  <g id="Documents" transform="translate(-2 -3)">
    <g id="Group_21" data-name="Group 21" transform="translate(2 3)">
      <path id="Path_41" data-name="Path 41" d="M7.95,21.132H9.792V13.666a.763.763,0,0,1,.708-.711H23.533c.071,0,.142.071.212.142L28,17.363a.77.77,0,0,1,.213.5v3.2H30.05a5.985,5.985,0,0,0,.5-11.946A5.391,5.391,0,0,0,25.3,4.92,5.46,5.46,0,0,0,21.267,6.7,6.681,6.681,0,0,0,15.246,3a6.851,6.851,0,0,0-6.8,6.186h-.5A5.891,5.891,0,0,0,2,15.088,6.059,6.059,0,0,0,7.95,21.132Z" transform="translate(-2 -3)"/>
      <path id="Path_42" data-name="Path 42" d="M15,19V40.331H30.643V23.266H27.088a.765.765,0,0,1-.711-.711V19ZM27.941,36.065H17.986a.711.711,0,0,1,0-1.422h9.955a.711.711,0,0,1,0,1.422Zm0-4.266H17.986a.711.711,0,0,1,0-1.422h9.955a.711.711,0,0,1,0,1.422Zm0-5.688a.711.711,0,0,1,0,1.422H17.986a.711.711,0,0,1,0-1.422Z" transform="translate(-5.822 -7.623)"/>
      <path id="Path_43" data-name="Path 43" d="M33,22.249h1.849L33,20.4Z" transform="translate(-11.046 -8.028)"/>
    </g>
  </g>
</svg>
