<?xml version="1.0" encoding="utf-8"?>
<!-- Generator: Adobe Illustrator 24.1.2, SVG Export Plug-In . SVG Version: 6.00 Build 0)  -->
<svg version="1.1" id="Layer_1" xmlns="http://www.w3.org/2000/svg" xmlns:xlink="http://www.w3.org/1999/xlink" x="0px" y="0px"
	 viewBox="0 0 36 36" style="enable-background:new 0 0 36 36;" xml:space="preserve">
<g>
	<path d="M1,10.7v14h34v-14H1z M34,23.7H2v-12h32V23.7z"/>
	<path d="M4.7,20.7c0.5,0,0.9-0.2,1.4-0.6c0.1,0.4,0.4,0.6,0.8,0.6c0.1,0,0.3,0,0.6-0.1l-0.1-0.5c-0.1,0-0.2,0-0.2,0
		c-0.2,0-0.3,0-0.3-0.1s-0.1-0.3-0.1-0.5v-1.8c0-0.5-0.1-0.9-0.3-1.1c-0.2-0.2-0.6-0.3-1.1-0.3c-0.5,0-1,0.1-1.5,0.3v0.7
		c0.5-0.3,0.9-0.4,1.4-0.4c0.3,0,0.5,0.1,0.7,0.2S6,17.4,6,17.7v0.4H5.5c-0.6,0-1.2,0.1-1.5,0.4s-0.6,0.6-0.6,1.1
		c0,0.3,0.1,0.6,0.4,0.8S4.3,20.7,4.7,20.7z M5.7,18.6H6v1.1c-0.4,0.3-0.7,0.5-1.1,0.5c-0.2,0-0.4-0.1-0.5-0.2s-0.2-0.3-0.2-0.5
		C4.2,18.9,4.7,18.6,5.7,18.6z"/>
	<path d="M9.1,20.2c0.3,0.4,0.7,0.6,1.2,0.6c0.5,0,1-0.2,1.3-0.7s0.5-1,0.5-1.7c0-0.6-0.1-1.1-0.4-1.5s-0.7-0.6-1.1-0.6
		c-0.6,0-1,0.3-1.4,0.9v-2.7H8.3v6.2h0.6L9.1,20.2z M9.1,17.8c0.4-0.5,0.8-0.8,1.2-0.8c0.6,0,0.9,0.5,0.9,1.5c0,0.5-0.1,1-0.3,1.3
		s-0.4,0.4-0.8,0.4c-0.3,0-0.7-0.2-1.1-0.6V17.8z"/>
	<path d="M15.4,20.7c0.5,0,0.9-0.1,1.4-0.2v-0.6c-0.5,0.2-0.9,0.3-1.3,0.3c-0.5,0-0.9-0.1-1.2-0.4s-0.4-0.7-0.4-1.2
		c0-0.5,0.1-0.9,0.4-1.2s0.6-0.4,1.1-0.4c0.4,0,0.8,0.1,1.3,0.3v-0.6c-0.5-0.1-0.9-0.2-1.4-0.2c-0.7,0-1.3,0.2-1.6,0.6
		s-0.6,0.9-0.6,1.6c0,0.7,0.2,1.3,0.6,1.6S14.7,20.7,15.4,20.7z"/>
</g>
</svg>
