<svg id="Layer_1" data-name="Layer 1" xmlns="http://www.w3.org/2000/svg" viewBox="0 0 23.83 31.28"><g id="information"><path id="Path_24" data-name="Path 24" d="M29.65,10,22.31,2.63a.91.91,0,0,0-.64-.27H8.83A2.75,2.75,0,0,0,6.09,5.11V30.89a2.75,2.75,0,0,0,2.74,2.75H27.17a2.75,2.75,0,0,0,2.74-2.75V10.61A.91.91,0,0,0,29.65,10ZM22.58,5.49l4.21,4.2H23.5a.92.92,0,0,1-.92-.92Zm4.59,26.32H8.83a.92.92,0,0,1-.91-.92V5.11a.92.92,0,0,1,.91-.92H20.75V8.77a2.75,2.75,0,0,0,2.75,2.75h4.58V30.89A.92.92,0,0,1,27.17,31.81Z" transform="translate(-6.09 -2.36)"/><path id="Path_25" data-name="Path 25" d="M23.5,17.14H14.33a.92.92,0,0,0,0,1.84H23.5a.92.92,0,0,0,0-1.84Z" transform="translate(-6.09 -2.36)"/><path id="Path_26" data-name="Path 26" d="M23.5,20.81H14.33a.92.92,0,0,0,0,1.83H23.5a.92.92,0,1,0,0-1.83Z" transform="translate(-6.09 -2.36)"/><path id="Path_27" data-name="Path 27" d="M23.5,24.48H14.33a.92.92,0,0,0,0,1.83H23.5a.92.92,0,1,0,0-1.83Z" transform="translate(-6.09 -2.36)"/><circle id="Ellipse_2" data-name="Ellipse 2" cx="4.58" cy="15.7" r="0.92"/><circle id="Ellipse_3" data-name="Ellipse 3" cx="4.58" cy="19.37" r="0.92"/><circle id="Ellipse_4" data-name="Ellipse 4" cx="4.58" cy="23.04" r="0.92"/></g></svg>