<svg xmlns="http://www.w3.org/2000/svg" width="8.194" height="10.172" viewBox="0 0 8.194 10.172"><defs><style>.a{fill:#959cb6;}</style></defs><path class="a" d="M6.184,5.086a2.235,2.235,0,0,0,.622,1.526,1.3,1.3,0,0,1-.424.565c-.057.057-.057.141.028.141a1.5,1.5,0,0,0,1.045-.2,2.961,2.961,0,0,0,1.5.4,2.6,2.6,0,0,0,2.741-2.4,2.58,2.58,0,0,0-2.741-2.4A2.585,2.585,0,0,0,6.184,5.086Zm1.95.254a.254.254,0,1,1,.254-.254A.253.253,0,0,1,8.134,5.34Zm1.611-.509a.254.254,0,1,1-.254.254A.253.253,0,0,1,9.745,4.832Zm-.565.254a.254.254,0,1,1-.254-.254A.237.237,0,0,1,9.18,5.086ZM4.6,10.172H8.36a1.128,1.128,0,0,0,1.1-1.13v-.9a3.462,3.462,0,0,1-.537.057,2.431,2.431,0,0,1-.452-.028v.48H4.489V1.582H8.473v.48a1.435,1.435,0,0,1,.48-.085,1.739,1.739,0,0,1,.537.057v-.9A1.128,1.128,0,0,0,8.388,0H4.6A1.128,1.128,0,0,0,3.5,1.13V9.042A1.128,1.128,0,0,0,4.6,10.172ZM5.9,9.1H6.976a.29.29,0,0,1,.283.311.309.309,0,0,1-.283.311H5.9a.312.312,0,0,1,0-.622Z" transform="translate(-3.5)"/></svg>