<svg xmlns="http://www.w3.org/2000/svg" width="16.155" height="16.155" viewBox="0 0 16.155 16.155"><defs><style>.a{fill:#595d6e;}</style></defs><path class="a" d="M23.161,0a.539.539,0,0,0-.539.4h0L18.045,15.392c0,.045-.045.09-.045.18a.594.594,0,0,0,.583.583.539.539,0,0,0,.539-.4h0L23.744.763c0-.045.045-.135.045-.18A.635.635,0,0,0,23.161,0Z" transform="translate(-9.922)"/><path class="a" d="M10.306,0a.539.539,0,0,0-.539.4h0L5.145,15.392c0,.045-.045.09-.045.18a.594.594,0,0,0,.583.583.539.539,0,0,0,.539-.4h0L10.844.763a.27.27,0,0,0,.045-.18A.594.594,0,0,0,10.306,0Z" transform="translate(-2.811)"/><path class="a" d="M.583,10.3h0a.583.583,0,1,0,0,1.167H15.572a.583.583,0,1,0,0-1.167H.583Z" transform="translate(0 -5.678)"/><path class="a" d="M.583,23.1h0a.583.583,0,1,0,0,1.167H15.572a.583.583,0,1,0,0-1.167H.583Z" transform="translate(0 -12.734)"/></svg>