<svg id="Layer_1" data-name="Layer 1" xmlns="http://www.w3.org/2000/svg" viewBox="0 0 36 36"><title>List</title><rect x="12.72" y="20.93" width="10.55" height="1.17"/><path d="M23.86,23.28H12.14a.58.58,0,0,0-.59.58v2.35a.58.58,0,0,0,.59.58H23.86a.58.58,0,0,0,.59-.58V23.86A.58.58,0,0,0,23.86,23.28Zm-2.93,2.34H19.76V24.45h1.17Zm2.35,0H22.1V24.45h1.18Z"/><path d="M23.86,16.24H12.14a.58.58,0,0,0-.59.59v2.34a.58.58,0,0,0,.59.59H23.86a.58.58,0,0,0,.59-.59V16.83A.58.58,0,0,0,23.86,16.24Zm-2.93,2.35H19.76V17.41h1.17Zm2.35,0H22.1V17.41h1.18Z"/><rect x="12.72" y="13.9" width="10.55" height="1.17"/><path d="M23.86,9.21H12.14a.58.58,0,0,0-.59.58v2.35a.58.58,0,0,0,.59.58H23.86a.58.58,0,0,0,.59-.58V9.79A.58.58,0,0,0,23.86,9.21Zm-10,2.34H12.72V10.38H13.9Zm2.34,0H15.07V10.38h1.17Z"/><path d="M5.1,21.52V28H1v7h9.38V28H6.28V21.52A1.75,1.75,0,0,1,8,19.76h2.35V18.59H8A2.93,2.93,0,0,0,5.1,21.52ZM8.62,33.24H2.76V32.07H8.62Zm0-2.34H2.76V29.72H8.62Z"/><path d="M25.62,1V8h4.1v6.45A1.75,1.75,0,0,1,28,16.24H25.62v1.17H28a2.93,2.93,0,0,0,2.93-2.93V8H35V1Zm7.62,5.28H27.38V5.1h5.86Zm0-2.35H27.38V2.76h5.86Z"/><path d="M1,8H5.1v6.45A2.93,2.93,0,0,0,8,17.41h2.35V16.24H8a1.75,1.75,0,0,1-1.75-1.76V8h4.1V1H1ZM2.76,2.76H8.62V3.93H2.76Zm0,2.34H8.62V6.28H2.76Z"/><path d="M30.9,21.52A2.93,2.93,0,0,0,28,18.59H25.62v1.17H28a1.75,1.75,0,0,1,1.75,1.76V28h-4.1v7H35V28H30.9Zm2.34,11.72H27.38V32.07h5.86Zm0-2.34H27.38V29.72h5.86Z"/></svg>