<svg xmlns="http://www.w3.org/2000/svg" width="8.588" height="10" viewBox="0 0 8.588 10"><defs><style>.a,.b{fill:#207ebb;}.a{opacity:0.3;}</style></defs><path class="a" d="M12.937,8.837c1.136,0,1.967-1.828,1.967-2.8a1.953,1.953,0,0,0-3.906,0C10.971,7.009,11.8,8.837,12.937,8.837Z" transform="translate(-8.671 -2.964)"/><path class="a" d="M8.711,23.6h-.97A3.263,3.263,0,0,0,4.5,26.841a.238.238,0,0,0,.222.222h7.036a.238.238,0,0,0,.222-.222A3.269,3.269,0,0,0,8.711,23.6Z" transform="translate(-3.974 -17.063)"/><path class="b" d="M10.218,2.6h-.3A2.842,2.842,0,0,0,6.866,0,2.885,2.885,0,0,0,3.791,2.6H3.514a.922.922,0,0,0-.914.914v.416a.922.922,0,0,0,.914.914h.5a.218.218,0,0,0,.222-.222V2.8h0A2.42,2.42,0,0,1,6.894.443,2.42,2.42,0,0,1,9.553,2.8h0V4.626a.218.218,0,0,0,.222.222h.5a.922.922,0,0,0,.914-.914V3.518A.99.99,0,0,0,10.218,2.6Z" transform="translate(-2.6)"/><path class="b" d="M6.3,19.028,6.271,19H5.8l.083.194a.683.683,0,0,0,.637.443h1a.2.2,0,0,0,.222-.222.218.218,0,0,0-.222-.222h-.97A.242.242,0,0,1,6.3,19.028Z" transform="translate(-4.914 -13.737)"/></svg>