<svg id="table_chart" xmlns="http://www.w3.org/2000/svg" width="18" height="18" viewBox="0 0 18 18">
  <path id="Path_1760" data-name="Path 1760" d="M0,0H18V18H0Z" fill="none"/>
  <path id="Path_1761" data-name="Path 1761" d="M15.725,3H4.5A1.5,1.5,0,0,0,3,4.5V14.97a1.5,1.5,0,0,0,1.5,1.5H15.725a1.5,1.5,0,0,0,1.5-1.5V4.5A1.5,1.5,0,0,0,15.725,3Zm0,1.5V6.741H4.5V4.5ZM11.982,14.97H8.24V8.237h3.743ZM4.5,8.237H6.743V14.97H4.5Zm8.982,6.733V8.237h2.246V14.97Z" transform="translate(-0.733 -0.733)" fill="#207ebb"/>
</svg>
