<svg id="Layer_1" data-name="Layer 1" xmlns="http://www.w3.org/2000/svg" viewBox="0 0 32 32"><g id="grid-45"><path id="Path_13" data-name="Path 13" d="M15.22,2H2.7a.7.7,0,0,0-.7.7V15.22a.69.69,0,0,0,.7.69H15.22a.69.69,0,0,0,.69-.69V2.7A.69.69,0,0,0,15.22,2Z" transform="translate(-2 -2)"/><path id="Path_14" data-name="Path 14" d="M33.3,2H20.78a.69.69,0,0,0-.69.7V15.22a.69.69,0,0,0,.69.69H33.3a.69.69,0,0,0,.7-.69V2.7A.7.7,0,0,0,33.3,2Z" transform="translate(-2 -2)"/><path id="Path_15" data-name="Path 15" d="M15.22,20.09H2.7a.69.69,0,0,0-.7.69V33.3a.7.7,0,0,0,.7.7H15.22a.69.69,0,0,0,.69-.7V20.78A.69.69,0,0,0,15.22,20.09Z" transform="translate(-2 -2)"/><path id="Path_16" data-name="Path 16" d="M33.3,20.09H20.78a.69.69,0,0,0-.69.69V33.3a.69.69,0,0,0,.69.7H33.3a.7.7,0,0,0,.7-.7V20.78A.69.69,0,0,0,33.3,20.09Z" transform="translate(-2 -2)"/></g></svg>