<svg xmlns="http://www.w3.org/2000/svg" width="10.052" height="16.2" viewBox="0 0 10.052 16.2"><defs><style>.a{fill:#595d6e;}</style></defs><path class="a" d="M16.5,0H7.259A.367.367,0,0,0,6.9.4V15.8a.458.458,0,0,0,.224.359.623.623,0,0,0,.4,0l4.4-2.917,4.4,2.917a.336.336,0,0,0,.224.045.27.27,0,0,0,.18-.045.355.355,0,0,0,.224-.359V.4C16.862.18,16.728,0,16.5,0Zm-.4,15.033-4.039-2.693a.336.336,0,0,0-.224-.045c-.09,0-.135.045-.224.045L7.573,15.033V5.385h4.308a.4.4,0,1,0,0-.808H7.663V2.693h4.218a.4.4,0,0,0,.4-.4.367.367,0,0,0-.4-.359H7.663V.763h8.481v14.27Z" transform="translate(-6.9)"/></svg>