<svg xmlns="http://www.w3.org/2000/svg" width="14.755" height="14.836" viewBox="0 0 14.755 14.836">
    <defs>
        <style>.a{fill:#f8bf3d;}.b{opacity:0.3;}</style>
    </defs>
    <path class="a" d="M15.976,3.646q0-.062-.123-.123l-1.108-.164a.263.263,0,0,1-.246-.328c0-.041.041-.082.082-.164l.657-.9a.125.125,0,0,0,0-.164A4.392,4.392,0,0,0,14.17.732a.125.125,0,0,0-.164,0l-.9.657a.328.328,0,0,1-.451-.082c-.041-.041-.041-.082-.082-.164L12.406.035q0-.062-.123-.123a4.711,4.711,0,0,0-1.518,0q-.062,0-.123.123l-.164,1.108a.394.394,0,0,1-.369.287c-.041,0-.082-.041-.164-.082L9.081.773a.125.125,0,0,0-.164,0A4.392,4.392,0,0,0,7.85,1.84v.123l.657.9a.328.328,0,0,1-.082.451c-.041.041-.082.041-.164.082l-1.067.205c-.041,0-.082.041-.082.123a4.711,4.711,0,0,0,0,1.518q0,.062.123.123l1.108.164A.394.394,0,0,1,8.63,5.9c0,.041-.041.082-.082.164l-.7.9v.123A4.392,4.392,0,0,0,8.917,8.16a.125.125,0,0,0,.164,0l.9-.657a.328.328,0,0,1,.451.082c.041.041.041.082.082.164l.164,1.108q0,.062.123.123a4.711,4.711,0,0,0,1.518,0q.062,0,.123-.123l.164-1.108a.394.394,0,0,1,.369-.287c.041,0,.082.041.164.082l.9.657a.125.125,0,0,0,.164,0,4.392,4.392,0,0,0,1.067-1.067.125.125,0,0,0,0-.164l-.657-.9a.328.328,0,0,1,.082-.451c0-.082.041-.082.082-.123l1.108-.164q.062,0,.123-.123A6.615,6.615,0,0,0,15.976,3.646ZM11.544,6.191a1.765,1.765,0,1,1,1.765-1.765A1.752,1.752,0,0,1,11.544,6.191Z" transform="translate(-4.157 0.15)" />
    <g class="b" transform="translate(0 9.929)">
        <path class="a" d="M17.15,24.97a2.635,2.635,0,0,1-.534.41c0,.205-1.149.985-1.313,1.108-.575.41-1.149.821-1.765,1.19A17.2,17.2,0,0,1,9.8,28.869a24.322,24.322,0,0,1-4.391-.451,3.531,3.531,0,0,0-1.313,0V25.052h0A3.634,3.634,0,0,1,5.5,24.4a7.454,7.454,0,0,1,2.339,0,5.828,5.828,0,0,0,1.888,0c.492-.041,1.026-.164,1.518-.246.534-.164.862-.164,1.067.205.164.287,0,.534-.246.739a4.788,4.788,0,0,1-1.272.7c-.534.164-1.97.369-2.052.41a12.28,12.28,0,0,0,1.313.328,9.062,9.062,0,0,0,2.791-.164c.985-.246,2.462-1.518,3.078-1.724a1.3,1.3,0,0,1,1.026-.082C17.068,24.6,17.233,24.888,17.15,24.97Z" transform="translate(-2.417 -24.044)" />
        <path class="a" d="M.862,29.986H.205A.188.188,0,0,1,0,29.822V25.964A.177.177,0,0,1,.164,25.8H.821a.177.177,0,0,1,.164.164v3.858C1.026,29.9.944,29.986.862,29.986Z" transform="translate(0 -25.079)" />
    </g>
</svg>