<svg xmlns="http://www.w3.org/2000/svg" width="11.284" height="8.4" viewBox="0 0 11.284 8.4"><defs><style>.a,.b{fill:#207ebb;}.a{opacity:0.3;}</style></defs><ellipse class="a" cx="1.16" cy="1.16" rx="1.16" ry="1.16" transform="translate(0.815 0)"/><path class="a" d="M3.981,13.446a.843.843,0,0,0-.846-.846H.846A.843.843,0,0,0,0,13.446v2.727a.214.214,0,0,0,.219.219.214.214,0,0,0,.219-.219V13.446a.415.415,0,0,1,.407-.407v5.234a.214.214,0,0,0,.219.219h.5a.214.214,0,0,0,.219-.219V15.985a.214.214,0,0,1,.219-.219.2.2,0,0,1,.188.188v2.288a.214.214,0,0,0,.219.219h.533a.214.214,0,0,0,.219-.219v-5.2a.415.415,0,0,1,.407.407v.219a.214.214,0,0,0,.219.219H4.42v-.407H3.981Z" transform="translate(0 -10.093)"/><path class="b" d="M20.269,6.7H14.627A.629.629,0,0,0,14,7.327v2.1h1.254a.219.219,0,1,1,0,.439H14V11.5a.629.629,0,0,0,.627.627h5.642A.629.629,0,0,0,20.9,11.5V7.327A.629.629,0,0,0,20.269,6.7ZM16.915,7.734h1.473a.219.219,0,1,1,0,.439H16.915a.214.214,0,0,1-.219-.219A.264.264,0,0,1,16.915,7.734Zm-1.034,3.134h0a.219.219,0,1,1,.219-.219A.214.214,0,0,1,15.881,10.869Zm0-.846h0A.219.219,0,1,1,16.1,9.8.214.214,0,0,1,15.881,10.022Zm0-.815h0a.219.219,0,1,1,.219-.219A.214.214,0,0,1,15.881,9.207Zm3.354,1.661H16.508a.219.219,0,1,1,0-.439h2.727a.214.214,0,0,1,.219.219A.264.264,0,0,1,19.235,10.869Zm0-.846H16.508a.219.219,0,1,1,0-.439h2.727a.214.214,0,0,1,.219.219A.264.264,0,0,1,19.235,10.022Zm0-.815H16.508a.219.219,0,1,1,0-.439h2.727a.214.214,0,0,1,.219.219A.236.236,0,0,1,19.235,9.207Z" transform="translate(-9.612 -6.042)"/></svg>