<svg xmlns="http://www.w3.org/2000/svg" width="16.117" height="13.193" viewBox="0 0 16.117 13.193"><defs><style>.a{fill:#595d6e;}</style></defs><path class="a" d="M15.8,3.3H.359A.354.354,0,0,0,0,3.659V6.217a.354.354,0,0,0,.359.359H.718v9.558a.354.354,0,0,0,.359.359H15.033a.354.354,0,0,0,.359-.359V6.576h.359a.354.354,0,0,0,.359-.359V3.659A.3.3,0,0,0,15.8,3.3ZM14.674,15.775H1.481v-9.2H14.719v9.2Zm.763-9.917H.718V4.018H15.392v1.84Z" transform="translate(0 -3.3)"/><path class="a" d="M9.345,15.644h7.719a.354.354,0,0,0,.359-.359.386.386,0,0,0-.359-.359H10.243l1.212-1.212a.369.369,0,0,0-.045-.539.352.352,0,0,0-.494,0l-1.84,1.84a.408.408,0,0,0,0,.539A.638.638,0,0,0,9.345,15.644Z" transform="translate(-4.947 -8.688)"/><path class="a" d="M9.359,22.018H16.18L14.968,23.23a.382.382,0,1,0,.494.583l.045-.045,1.84-1.84a.408.408,0,0,0,0-.539.638.638,0,0,0-.269-.09H9.359A.354.354,0,0,0,9,21.659.386.386,0,0,0,9.359,22.018Z" transform="translate(-4.961 -13.222)"/></svg>