<svg xmlns="http://www.w3.org/2000/svg" width="17.224" height="13.997" viewBox="0 0 17.224 13.997">
	<defs>
		<style>
			.a{fill:#207ebb;}
		</style>
	</defs>
	<path class="a" d="M20.8,11.983a7.031,7.031,0,0,1-2.03.556,3.54,3.54,0,0,0,1.554-1.955,7.074,7.074,0,0,1-2.244.858,3.537,3.537,0,0,0-6.021,3.223,10.033,10.033,0,0,1-7.284-3.692,3.538,3.538,0,0,0,1.094,4.718,3.524,3.524,0,0,1-1.6-.442c0,.015,0,.03,0,.045A3.536,3.536,0,0,0,7.1,18.758a3.553,3.553,0,0,1-.931.124,3.5,3.5,0,0,1-.665-.064,3.537,3.537,0,0,0,3.3,2.454,7.13,7.13,0,0,1-5.231,1.463,10.049,10.049,0,0,0,15.471-8.466q0-.23-.01-.458A7.157,7.157,0,0,0,20.8,11.983Z" transform="translate(-3.574 -10.326)" />
</svg>
