<svg xmlns="http://www.w3.org/2000/svg" width="12.768" height="12.697" viewBox="0 0 12.768 12.697"><defs><style>.a{fill:#959cb6;}</style></defs><path class="a" d="M11.921,27.261H.811A.75.75,0,0,1,0,26.485V23.311A.759.759,0,0,1,.811,22.5a.759.759,0,0,1,.811.811v2.4h9.523v-2.4a.811.811,0,0,1,1.622,0v3.174A.845.845,0,0,1,11.921,27.261Z" transform="translate(0 -14.564)"/><path class="a" d="M14.34,3.421,11.166.247C11.06.141,10.99.141,10.919.071a.749.749,0,0,0-.635,0c-.106,0-.176.106-.247.176L6.863,3.421A.8.8,0,0,0,7.992,4.55L9.826,2.716V7.971a.759.759,0,0,0,.811.811.759.759,0,0,0,.811-.811V2.751l1.834,1.834a.746.746,0,0,0,1.093,0A.8.8,0,0,0,14.34,3.421Z" transform="translate(-4.288)"/></svg>
