<svg xmlns="http://www.w3.org/2000/svg" width="10.056" height="10" viewBox="0 0 10.056 10">
    <defs>
        <style>.a{fill:#ffffff;}</style>
    </defs>
    <path class="a" d="M9.389,26.25H.639A.591.591,0,0,1,0,25.639v-2.5A.6.6,0,0,1,.639,22.5a.6.6,0,0,1,.639.639v1.889h7.5V23.139a.639.639,0,1,1,1.278,0v2.5A.665.665,0,0,1,9.389,26.25Z" transform="translate(0 -16.25)" />
    <path class="a" d="M12.7,2.694,10.2.194c-.083-.083-.139-.083-.194-.139a.59.59,0,0,0-.5,0c-.083,0-.139.083-.194.139l-2.5,2.5a.629.629,0,1,0,.889.889L9.146,2.139V6.278a.639.639,0,0,0,1.278,0V2.167l1.444,1.444a.588.588,0,0,0,.861,0A.631.631,0,0,0,12.7,2.694Z" transform="translate(-4.785)" />
</svg>