<svg xmlns="http://www.w3.org/2000/svg" width="27.625" height="34" viewBox="0 0 27.625 34" style="&#10;    fill: gray;&#10;">
  <g id="Upload_File" data-name="Upload File" transform="translate(-3)">
    <g id="Group_12" data-name="Group 12" transform="translate(3)">
      <path id="Path_25" data-name="Path 25" d="M20.563,17.375a1.06,1.06,0,0,1-.751-.311l-3.5-3.5-3.5,3.5a1.062,1.062,0,1,1-1.5-1.5l4.25-4.25a1.061,1.061,0,0,1,1.5,0l4.25,4.25a1.063,1.063,0,0,1-.751,1.814Z" transform="translate(-2.5 0.687)"/>
      <path id="Path_26" data-name="Path 26" d="M16.063,23.75A1.062,1.062,0,0,1,15,22.688V12.063a1.063,1.063,0,0,1,2.125,0V22.688A1.062,1.062,0,0,1,16.063,23.75Z" transform="translate(-2.25 0.688)"/>
      <path id="Path_27" data-name="Path 27" d="M22.813,27.125H10.063a1.063,1.063,0,0,1,0-2.125h12.75a1.063,1.063,0,0,1,0,2.125Z" transform="translate(-2.625 1.563)"/>
      <path id="Path_28" data-name="Path 28" d="M27.9,34H5.728A2.7,2.7,0,0,1,3,31.341V9.514A3.537,3.537,0,0,1,4.027,7.033l6-6A3.484,3.484,0,0,1,12.514,0H27.9a2.7,2.7,0,0,1,2.726,2.657V31.343A2.7,2.7,0,0,1,27.9,34ZM12.514,2.125a1.374,1.374,0,0,0-.979.4L5.53,8.535a1.394,1.394,0,0,0-.4.979V31.341a.573.573,0,0,0,.6.534H27.9a.571.571,0,0,0,.6-.532V2.657a.571.571,0,0,0-.6-.532Z" transform="translate(-3)"/>
      <path id="Path_29" data-name="Path 29" d="M10.781,10.438H7.063a1.063,1.063,0,0,1,0-2.125h3.719a.531.531,0,0,0,.531-.531V4.063a1.063,1.063,0,0,1,2.125,0V7.781A2.66,2.66,0,0,1,10.781,10.438Z" transform="translate(-2.813 0.188)"/>
    </g>
  </g>
</svg>
