<svg id="Layer_1" data-name="Layer 1" xmlns="http://www.w3.org/2000/svg" viewBox="0 0 32.08 32"><g id="ic_slow_motion_video_48px" data-name="ic slow motion video 48px"><path id="Path_20" data-name="Path 20" d="M19.65,14.45l-4.91-3.69V25.24l4.91-3.69L24.39,18Zm0,0-4.91-3.69V25.24l4.91-3.69L24.39,18Zm0,0-4.91-3.69V25.24l4.91-3.69L24.39,18Zm-3.3-9.2V2A16,16,0,0,0,7.8,5.55l2.28,2.3A12.69,12.69,0,0,1,16.35,5.25ZM7.81,10.12,5.51,7.84A16,16,0,0,0,2,16.39H5.21A12.69,12.69,0,0,1,7.81,10.12Zm-2.6,9.49H2a16,16,0,0,0,3.55,8.55l2.3-2.3A12.62,12.62,0,0,1,5.21,19.61ZM7.8,30.45A16,16,0,0,0,16.35,34V30.75a12.69,12.69,0,0,1-6.27-2.6ZM34,18A16.1,16.1,0,0,1,19.65,34V30.75a12.86,12.86,0,0,0,0-25.5V2A16.1,16.1,0,0,1,34,18Z" transform="translate(-1.96 -2)"/></g></svg>