<svg xmlns="http://www.w3.org/2000/svg" width="34" height="21.798" viewBox="0 0 34 21.798">
  <g id="view" transform="translate(0 -92.835)">
    <g id="Group_31" data-name="Group 31" transform="translate(0 92.835)">
      <g id="Group_30" data-name="Group 30" transform="translate(0)">
        <path id="Path_52" data-name="Path 52" d="M33.784,103.069c-.3-.418-7.541-10.234-16.784-10.234S.519,102.651.216,103.068a1.134,1.134,0,0,0,0,1.331c.3.418,7.541,10.234,16.784,10.234s16.48-9.816,16.784-10.233A1.133,1.133,0,0,0,33.784,103.069ZM17,112.378c-6.809,0-12.706-6.515-14.451-8.645C4.292,101.6,10.177,95.09,17,95.09s12.7,6.514,14.451,8.645C29.708,105.866,23.823,112.378,17,112.378Z" transform="translate(0 -92.835)"/>
      </g>
    </g>
    <g id="Group_33" data-name="Group 33" transform="translate(10.235 96.969)">
      <g id="Group_32" data-name="Group 32">
        <path id="Path_53" data-name="Path 53" d="M161.487,154.725a6.765,6.765,0,1,0,6.765,6.765A6.773,6.773,0,0,0,161.487,154.725Zm0,11.275a4.51,4.51,0,1,1,4.51-4.51A4.515,4.515,0,0,1,161.487,166Z" transform="translate(-154.722 -154.725)"/>
      </g>
    </g>
  </g>
</svg>
