<svg xmlns="http://www.w3.org/2000/svg" width="24" height="24" viewBox="0 0 24 24"><defs><style>.a{fill:gray;}</style></defs><path class="a" d="M23.775,1.283h0A2.25,2.25,0,0,0,22.74.24h0A2.25,2.25,0,0,0,21.75,0H2.25A2.25,2.25,0,0,0,0,2.25v19.5a2.25,2.25,0,0,0,.225.968h0a2.25,2.25,0,0,0,1.02,1.02h0A2.25,2.25,0,0,0,2.25,24h19.5A2.25,2.25,0,0,0,24,21.75V2.25a2.25,2.25,0,0,0-.225-.967ZM1.5,21.443V2.25a.75.75,0,0,1,.75-.75H21.443Zm21,.307a.75.75,0,0,1-.75.75H2.558L22.5,2.558Z"/><path class="a" d="M8.75,7.25V5H7.25V7.25H5v1.5H7.25V11h1.5V8.75H11V7.25Z" transform="translate(-1.25 -1.25)"/><rect class="a" width="6" height="1" transform="translate(14 17)"/></svg>