<svg xmlns="http://www.w3.org/2000/svg" width="12.556" height="10" viewBox="0 0 12.556 10"><defs><style>.a{fill:none;}.b{fill:gray;}</style></defs><g transform="translate(0 -3.7)"><path class="a" d="M7.543,19.673a.155.155,0,0,0-.176.035l-.985.985a.956.956,0,0,1-1.372,0l-1.056-.95c-.035-.035-.141-.07-.176-.035A2.246,2.246,0,0,0,2.3,21.819V23.3H9.02V21.784A2.317,2.317,0,0,0,7.543,19.673Z" transform="translate(-1.491 -10.376)"/><path class="a" d="M8.948,9.1A1.562,1.562,0,0,0,10.5,7.548,1.539,1.539,0,0,0,8.948,6a1.548,1.548,0,0,0,0,3.1Z" transform="translate(-4.807 -1.491)"/><path class="b" d="M7.457,8.415A2.357,2.357,0,1,0,5.1,6.057,2.358,2.358,0,0,0,7.457,8.415Zm0-3.906A1.548,1.548,0,1,1,5.909,6.057,1.562,1.562,0,0,1,7.457,4.509Z" transform="translate(-3.306)"/><path class="b" d="M8.339,22.336v-1.9a3.039,3.039,0,0,0-2.006-2.85.925.925,0,0,0-1.02.246l-.985.985a.17.17,0,0,1-.246,0L3.1,17.832a1.009,1.009,0,0,0-1.02-.246A2.934,2.934,0,0,0,0,20.4v1.9a.39.39,0,0,0,.387.387h7.53A.371.371,0,0,0,8.339,22.336Zm-.809-.422H.809V20.4a2.246,2.246,0,0,1,1.478-2.111.155.155,0,0,1,.176.035l.985.985a.956.956,0,0,0,1.372,0l.985-.985c.035-.035.141-.07.176-.035A2.246,2.246,0,0,1,7.459,20.4l.07,1.513Z" transform="translate(0 -8.992)"/><path class="b" d="M22.387,11.306a.387.387,0,1,0,0,.774h1.654v1.689a.387.387,0,1,0,.774,0V12.115h1.654a.387.387,0,0,0,0-.774H24.815V9.687a.387.387,0,1,0-.774,0v1.618Z" transform="translate(-14.3 -3.642)"/></g></svg>