<svg xmlns="http://www.w3.org/2000/svg" width="8.097" height="11" viewBox="0 0 8.097 11"><defs><style>.a{fill:gray;}</style></defs><g transform="translate(-4.8 -1028.4)"><path class="a" d="M8.528,1028.4a.506.506,0,0,0-.367.153,1.275,1.275,0,0,0-.183.245c-.061.153-.122.214-.153.214l-1.069.55H5.533a.743.743,0,0,0-.733.733v8.372a.744.744,0,0,0,.733.733h6.63a.744.744,0,0,0,.733-.733v-8.372a.743.743,0,0,0-.733-.733H11l-1.1-.519a.883.883,0,0,1-.183-.306c-.061-.061-.092-.153-.214-.214a.748.748,0,0,0-.367-.122Zm.031.581h.611l.061.061a1.408,1.408,0,0,0,.306.428l.031.031,1.039.489v.428a.274.274,0,0,1-.275.275h-2.9a.322.322,0,0,1-.275-.275v-.4l1.008-.519a.893.893,0,0,0,.4-.458c-.031-.03-.031-.061,0-.061Zm-3.025,1.13H6.542v.306a.854.854,0,0,0,.856.855h2.9a.874.874,0,0,0,.856-.855v-.306h1.008a.176.176,0,0,1,.183.183v8.372a.176.176,0,0,1-.183.183H5.533a.176.176,0,0,1-.183-.183v-8.372A.162.162,0,0,1,5.533,1030.111Zm4.308,2.017-1.375,1.467-.642-.611-.4.428,1.069,1.008,1.772-1.894Zm-3.33,3.208v.581h4.644v-.581Zm0,1.741v.581h4.644v-.581Z" transform="translate(0)"/></g></svg>