<?xml version="1.0" encoding="utf-8"?>
<!-- Generator: Adobe Illustrator 24.1.2, SVG Export Plug-In . SVG Version: 6.00 Build 0)  -->
<svg version="1.1" id="Layer_1" xmlns="http://www.w3.org/2000/svg" xmlns:xlink="http://www.w3.org/1999/xlink" x="0px" y="0px"
	 viewBox="0 0 36 36" style="enable-background:new 0 0 36 36;" xml:space="preserve">
<style type="text/css">
	.st0{fill-rule:evenodd;clip-rule:evenodd;fill:#595D6E;}
</style>
<path class="st0" d="M34.8,15.1l-0.3-0.6l-0.5-0.4c-0.6-0.5-3.8,0-4.6-0.7c-0.6-0.6-0.7-1.6-0.9-2.9c-0.3-2.6-0.6-2.8-1-3.6
	c-1.5-3.2-5.5-5.5-8.3-5.9h-7.5C5.9,1,1.1,5.8,1.1,11.7v12.5C1.1,30.2,5.9,35,11.8,35h12.3c5.9,0,10.7-4.8,10.7-10.7l0.1-8.7
	L34.8,15.1z M11.9,9.8h6c1.1,0,2.1,0.9,2.1,2c0,1.1-0.9,2.1-2.1,2.1h-6c-1.1,0-2.1-0.9-2.1-2.1C9.9,10.7,10.8,9.8,11.9,9.8z
	 M24,26.2H11.9c-1.1,0-2.1-0.9-2.1-2c0-1.1,0.9-2,2.1-2H24c1.1,0,2,0.9,2,2C26.1,25.2,25.2,26.2,24,26.2z"/>
</svg>
