<?xml version="1.0" encoding="utf-8"?>
<!-- Generator: Adobe Illustrator 24.1.2, SVG Export Plug-In . SVG Version: 6.00 Build 0)  -->
<svg version="1.1" id="Layer_1" xmlns="http://www.w3.org/2000/svg" xmlns:xlink="http://www.w3.org/1999/xlink" x="0px" y="0px"
	 viewBox="0 0 36 36" style="enable-background:new 0 0 36 36;" xml:space="preserve">
<style type="text/css">
	.st0{fill:#595D6E;}
</style>
<g>
	<rect x="1.2" y="10.6" class="st0" width="7.3" height="24.3"/>
	<path class="st0" d="M32.7,13.8c-1.5-1.7-3.5-2.4-6-2.4c-3.2,0-5.6,1.7-7.1,4.1h-0.2L19,10.7h-5.7c0.1,2.4,0,24.3,0,24.3h7.3
		c0,0,0-12.1,0-15.2c0.6-1.9,1.8-2.8,3.7-2.8c2.4,0,3.6,1.6,3.6,5v12.9H35V21.2C35,17.9,34.2,15.5,32.7,13.8z"/>
	<path class="st0" d="M4.8,1C2.7,1,1,2.6,1,4.6s1.7,3.6,3.8,3.6s3.8-1.6,3.8-3.6S6.9,1,4.8,1z"/>
</g>
</svg>
