<?xml version="1.0" encoding="utf-8"?>
<!-- Generator: Adobe Illustrator 24.1.2, SVG Export Plug-In . SVG Version: 6.00 Build 0)  -->
<svg version="1.1" id="Layer_1" xmlns="http://www.w3.org/2000/svg" xmlns:xlink="http://www.w3.org/1999/xlink" x="0px" y="0px"
	 viewBox="0 0 36 36" style="enable-background:new 0 0 36 36;" xml:space="preserve">
<style type="text/css">
	.st0{fill:#595D6E;}
</style>
<path class="st0" d="M35,7.5c-1.2,0.6-2.6,0.9-4,1.1c1.4-0.9,2.5-2.2,3.1-3.9c-1.3,0.8-2.8,1.4-4.4,1.7c-1.3-1.4-3.1-2.2-5.1-2.2
	c-3.9,0-7,3.1-7,7c0,0.5,0.1,1.1,0.2,1.6C12.1,12.5,7,9.7,3.5,5.5C2.9,6.5,2.6,7.7,2.6,9c0,2.4,1.2,4.6,3.1,5.8
	c-1.1,0-2.2-0.4-3.2-0.9V14c0,3.4,2.4,6.2,5.6,6.8c-0.7,0.2-1.3,0.3-1.9,0.3c-0.4,0-0.9,0-1.3-0.1c0.9,2.8,3.5,4.8,6.5,4.8
	c-2.4,1.9-5.4,3-8.7,3c-0.6,0-1.1,0-1.7-0.1c3.1,2,6.8,3.1,10.7,3.1c12.8,0,19.7-10.6,19.7-19.7c0-0.3,0-0.6,0-0.9
	C32.8,10.1,34,8.9,35,7.5z"/>
</svg>
