<?xml version="1.0" encoding="utf-8"?>
<!-- Generator: Adobe Illustrator 24.1.2, SVG Export Plug-In . SVG Version: 6.00 Build 0)  -->
<svg version="1.1" id="Capa_1" xmlns="http://www.w3.org/2000/svg" xmlns:xlink="http://www.w3.org/1999/xlink" x="0px" y="0px"
	 viewBox="0 0 36 36" style="enable-background:new 0 0 36 36;" xml:space="preserve">
<style type="text/css">
	.st0{fill:#595D6E;}
</style>
<g>
	<g>
		<path id="WordPress" class="st0" d="M1,18c0,9.4,7.6,17,17,17s17-7.6,17-17c0-9.4-7.6-17-17-17C8.6,1,1,8.6,1,18z M2.3,18
			c0-2.3,0.5-4.4,1.4-6.4l7.5,20.5C5.9,29.6,2.3,24.2,2.3,18z M18,33.7c-1.5,0-3-0.2-4.4-0.6l4.7-13.7l4.8,13.2
			c0,0.1,0.1,0.2,0.1,0.2C21.6,33.4,19.8,33.7,18,33.7z M30.7,17.7c0.9-2.2,1.2-4,1.2-5.6c0-0.6,0-1.1-0.1-1.6
			c1.2,2.2,1.9,4.8,1.9,7.5c0,5.8-3.1,10.8-7.8,13.6L30.7,17.7z M27.3,12.9c0.6,1,1.3,2.4,1.3,4.3c0,1.3-0.4,3-1.2,5.1l-1.6,5.2
			l-5.7-16.9c0.9-0.1,1.8-0.2,1.8-0.2c0.8-0.1,0.7-1.3-0.1-1.3c0,0-2.5,0.2-4.2,0.2c-1.5,0-4.1-0.2-4.1-0.2c-0.8,0-0.9,1.2-0.1,1.3
			c0,0,0.8,0.1,1.6,0.2l2.4,6.7l-3.4,10.3l-5.7-17c0.9-0.1,1.8-0.2,1.8-0.2c0.8-0.1,0.7-1.3-0.1-1.3c0,0-2.5,0.2-4.2,0.2
			c-0.3,0-0.6,0-1,0C7.7,5.1,12.5,2.3,18,2.3c4.1,0,7.8,1.6,10.6,4.1c-0.1,0-0.1,0-0.2,0c-1.5,0-2.6,1.3-2.6,2.8
			C25.8,10.5,26.5,11.6,27.3,12.9z"/>
	</g>
</g>
</svg>
