<?xml version="1.0" encoding="utf-8"?>
<!-- Generator: Adobe Illustrator 24.1.2, SVG Export Plug-In . SVG Version: 6.00 Build 0)  -->
<svg version="1.1" id="Layer_1" xmlns:sketch="http://www.bohemiancoding.com/sketch/ns"
	 xmlns="http://www.w3.org/2000/svg" xmlns:xlink="http://www.w3.org/1999/xlink" x="0px" y="0px" viewBox="0 0 36 36"
	 style="enable-background:new 0 0 36 36;" xml:space="preserve">
<style type="text/css">
	.st0{fill-rule:evenodd;clip-rule:evenodd;fill:#595D6E;}
</style>
<desc></desc>
<g id="black">
	<g id="slice" transform="translate(-500.000000, -100.000000)">
	</g>
	<g id="youtube" transform="translate(10.000000, 16.000000)">
		<path id="Fill-195" class="st0" d="M24.7-4.2c0,0-0.3-2.3-1.4-3.4C22-8.9,20.6-8.9,19.9-9C15.2-9.4,8-9.4,8-9.4h0
			c0,0-7.1,0-11.9,0.3C-4.5-8.9-6-8.9-7.3-7.6c-1,1-1.4,3.4-1.4,3.4S-9-1.5-9,1.3v2.6c0,2.8,0.3,5.5,0.3,5.5s0.3,2.3,1.4,3.4
			c1.3,1.4,3,1.3,3.7,1.5C-0.8,14.5,8,14.5,8,14.5s7.1,0,11.9-0.4c0.7-0.1,2.1-0.1,3.4-1.4c1-1,1.4-3.4,1.4-3.4S25,6.6,25,3.9V1.3
			C25-1.5,24.7-4.2,24.7-4.2z M4.5,7l0-9.6l9.2,4.8L4.5,7z"/>
	</g>
</g>
</svg>
