<svg xmlns="http://www.w3.org/2000/svg" width="14.815" height="14.774" viewBox="0 0 14.815 14.774"><defs><style>.a,.b{fill:#207ebb;}.a{opacity:0.3;}</style></defs><path class="a" d="M14.282,5.787H13.133a4.988,4.988,0,0,0-.575-1.354l.821-.821a.472.472,0,0,0,0-.7L11.819,1.354a.472.472,0,0,0-.7,0l-.821.821A6.72,6.72,0,0,0,8.947,1.6V.492A.474.474,0,0,0,8.454,0H6.279a.474.474,0,0,0-.492.492V1.642a4.988,4.988,0,0,0-1.354.575L3.611,1.4a.472.472,0,0,0-.7,0L1.4,2.914a.472.472,0,0,0,0,.7l.821.821a6.72,6.72,0,0,0-.575,1.354H.492A.474.474,0,0,0,0,6.279V8.454a.474.474,0,0,0,.492.492H1.642A4.988,4.988,0,0,0,2.216,10.3l-.821.821a.472.472,0,0,0,0,.7l1.559,1.559a.472.472,0,0,0,.7,0l.821-.821a6.72,6.72,0,0,0,1.354.575v1.149a.474.474,0,0,0,.492.492H8.5a.474.474,0,0,0,.492-.492V13.133a4.988,4.988,0,0,0,1.354-.575l.821.821a.472.472,0,0,0,.7,0l1.559-1.559a.472.472,0,0,0,0-.7L12.6,10.3a6.721,6.721,0,0,0,.575-1.354h1.149a.474.474,0,0,0,.492-.492V6.279A.57.57,0,0,0,14.282,5.787Zm-6.895,5.13a3.529,3.529,0,1,1,3.529-3.529A3.529,3.529,0,0,1,7.387,10.916Z"/><path class="b" d="M15.534,13.632a.346.346,0,0,0-.534.287v2.955a.346.346,0,0,0,.534.287l2.38-1.477a.345.345,0,0,0,0-.575Z" transform="translate(-8.844 -8.009)"/></svg>