<svg xmlns="http://www.w3.org/2000/svg" width="12.804" height="14.774" viewBox="0 0 12.804 14.774"><defs><style>.a,.b{fill:#207ebb;}.b{opacity:0.3;}</style></defs><path class="a" d="M2.4,1.19V13.543a1.191,1.191,0,0,0,1.19,1.19h.821V0H3.59A1.191,1.191,0,0,0,2.4,1.19Z" transform="translate(-2.4)"/><path class="b" d="M18.613,0H10.2V14.774h8.413a1.191,1.191,0,0,0,1.19-1.19V1.19A1.191,1.191,0,0,0,18.613,0ZM14.961,9.521H11.8c0-1.6,2.134-1.929,2.134-1.929.164-.082.246-.328.328-.575a2.566,2.566,0,0,1-.9-1.97A1.55,1.55,0,0,1,15,3.406a1.55,1.55,0,0,1,1.642,1.642,2.566,2.566,0,0,1-.9,1.97c.082.246.164.492.328.575,0,0,2.134.369,2.134,1.929Z" transform="translate(-6.999)"/></svg>