<svg xmlns="http://www.w3.org/2000/svg" width="14.774" height="14.774" viewBox="0 0 14.774 14.774"><defs><style>.a,.b{fill:#207ebb;}.b{opacity:0.3;}</style></defs><path class="a" d="M6.813.575A.561.561,0,0,0,6.238,0H.575A.561.561,0,0,0,0,.575V6.238a.561.561,0,0,0,.575.575H6.238a.561.561,0,0,0,.575-.575Z"/><path class="b" d="M26.213.575A.561.561,0,0,0,25.638,0H19.975A.561.561,0,0,0,19.4.575V6.238a.561.561,0,0,0,.575.575h5.663a.561.561,0,0,0,.575-.575Z" transform="translate(-11.438)"/><path class="b" d="M19.975,26.213h5.663a.561.561,0,0,0,.575-.575V19.975a.561.561,0,0,0-.575-.575H19.975a.561.561,0,0,0-.575.575v5.663A.561.561,0,0,0,19.975,26.213Z" transform="translate(-11.438 -11.438)"/><path class="b" d="M6.238,19.4H.575A.561.561,0,0,0,0,19.975v5.663a.561.561,0,0,0,.575.575H6.238a.561.561,0,0,0,.575-.575V19.975A.561.561,0,0,0,6.238,19.4Z" transform="translate(0 -11.438)"/></svg>