<svg xmlns="http://www.w3.org/2000/svg" width="13.169" height="14.774" viewBox="0 0 13.169 14.774">
  <g id="noun_manager_1589837" transform="translate(-2 -0.1)">
    <g id="Group_1461" data-name="Group 1461" transform="translate(2 11.582)">
      <g id="Group_1460" data-name="Group 1460">
        <path id="Path_320" data-name="Path 320" d="M10.231,28H6.938v3.292h3.292ZM5.292,28H2v3.292H5.292Zm9.877,0H11.877v3.292h3.292Z" transform="translate(-2 -28)" fill="#207ebb"/>
      </g>
    </g>
    <path id="Path_321" data-name="Path 321" d="M15.877,9.977H6V8.742c0-1.152,1.564-2.1,3.663-2.387a1.34,1.34,0,0,0,.165-.576A1.139,1.139,0,0,0,9.7,5.244,2.81,2.81,0,0,1,8.469,2.9,2.668,2.668,0,0,1,10.938.1a2.642,2.642,0,0,1,2.469,2.8,2.959,2.959,0,0,1-1.193,2.387,1.139,1.139,0,0,0-.123.535.945.945,0,0,0,.165.576c2.1.288,3.663,1.235,3.663,2.387V9.977Z" transform="translate(-2.354)" fill="#207ebb" opacity="0.3"/>
  </g>
</svg>
