<svg xmlns="http://www.w3.org/2000/svg" width="12.754" height="12.683" viewBox="0 0 12.754 12.683">
  <path id="Union_4" data-name="Union 4" d="M11205,2657.683v-4.358c.071-.07.107-.175.178-.245a.508.508,0,0,1,.737,0c.35.315.7.7,1.054,1.053.036.037.07.107.106.141.245-.245.49-.493.7-.7q1-1,2-2c.211-.211.317-.211.526,0,.281.281.526.529.808.808.211.211.211.318,0,.529l-2.528,2.528c0,.034-.07.07-.106.1.036.07.106.107.106.141.353.352.668.7,1.02,1.019a.541.541,0,0,1-.175.949c-1.3,0-2.635,0-4.006.036Zm7.483-6.6c-.281-.281-.563-.563-.842-.845-.178-.175-.178-.281,0-.456.842-.878,1.721-1.72,2.564-2.6.034-.037.07-.071.1-.107l-.6-.6c-.178-.175-.389-.386-.563-.563a.5.5,0,0,1-.141-.6.513.513,0,0,1,.526-.315h3.618c.352,0,.563.211.6.634v3.581a.543.543,0,0,1-.318.526.506.506,0,0,1-.631-.138l-1.056-1.056-.1-.1c-.244.245-.492.49-.737.738l-1.9,1.9c-.105.1-.185.156-.263.156S11212.588,2651.182,11212.482,2651.078Z" transform="translate(-11204.999 -2645)" fill="gray"/>
</svg>
