<svg xmlns="http://www.w3.org/2000/svg" width="12.453" height="12.458" viewBox="0 0 12.453 12.458">
  <path id="Union_1" data-name="Union 1" d="M11205.2,2655.76a2.786,2.786,0,0,1,.588-2.976c.794-.83,1.627-1.624,2.455-2.455a.715.715,0,1,1,1,1c-.8.76-1.557,1.557-2.354,2.32a1.314,1.314,0,0,0-.414,1.416,1.3,1.3,0,0,0,2.108.625c.659-.588,1.281-1.247,1.9-1.869l.692-.693a.746.746,0,0,1,1-.034.678.678,0,0,1,0,1q-1.3,1.3-2.593,2.6a2.587,2.587,0,0,1-1.87.763A2.669,2.669,0,0,1,11205.2,2655.76Zm3.84-2.007a.629.629,0,0,1-.414-.622.692.692,0,0,1,.208-.518c1.244-1.247,2.525-2.525,3.77-3.772a.71.71,0,0,1,1,1.005c-1.245,1.278-2.525,2.525-3.77,3.77a.671.671,0,0,1-.479.22A.705.705,0,0,1,11209.042,2653.753Zm4.118-1.591a.721.721,0,0,1,.034-1.039c.8-.794,1.591-1.591,2.354-2.351a1.415,1.415,0,0,0,.414-1.489,1.314,1.314,0,0,0-2.075-.588,1.124,1.124,0,0,0-.278.276q-1.141,1.144-2.283,2.286a.726.726,0,0,1-1.039.034.754.754,0,0,1,0-1.039c.833-.831,1.661-1.695,2.528-2.525a2.627,2.627,0,0,1,1.729-.726,2.808,2.808,0,0,1,2.7,1.695,2.722,2.722,0,0,1-.552,2.942q-1.25,1.246-2.494,2.492a.773.773,0,0,1-.547.237A.688.688,0,0,1,11213.16,2652.163Z" transform="translate(-11205 -2645)" fill="gray"/>
</svg>
