<svg xmlns="http://www.w3.org/2000/svg" width="13.203" height="13.157" viewBox="0 0 13.203 13.157">
  <g id="minimise" transform="translate(0.15 -0.05)">
    <path id="Path_211" data-name="Path 211" d="M1.763,18.336h0a.56.56,0,0,0-.182.984c.364.328.692.692,1.057,1.057,0,.036.073.073.109.146-.036.036-.109.073-.109.109L.014,23.257c-.219.219-.219.328,0,.547l.838.838c.219.219.328.219.547,0l2.077-2.077.729-.729c.036.036.073.109.109.146.364.364.729.765,1.093,1.093a.528.528,0,0,0,.765,0c.073-.073.109-.182.182-.255V18.3H5.918C4.5,18.336,3.112,18.336,1.763,18.336Z" transform="translate(0 -11.599)" fill="gray"/>
    <path id="Path_212" data-name="Path 212" d="M18.92,6.519h3.754a.533.533,0,0,0,.547-.328.517.517,0,0,0-.146-.62l-.583-.583-.62-.62.109-.109c.875-.911,1.786-1.786,2.661-2.7.182-.182.182-.292,0-.474L23.767.214C23.548,0,23.439,0,23.22.214L21.252,2.182a7.577,7.577,0,0,0-.765.765l-.109-.109L19.284,1.745a.487.487,0,0,0-.656-.146.565.565,0,0,0-.328.547V5.863C18.336,6.3,18.555,6.519,18.92,6.519Z" transform="translate(-11.726 0)" fill="gray"/>
  </g>
</svg>
