<svg xmlns="http://www.w3.org/2000/svg" width="9.966" height="12.526" viewBox="0 0 9.966 12.526"><defs><style>.a{fill:gray;fill-rule:evenodd;}</style></defs><g transform="translate(0)"><path class="a" d="M3.6,0H8.341A13.378,13.378,0,0,1,10,.1a4.982,4.982,0,0,1,1.488.45,2.9,2.9,0,0,1,1.073.969,2.908,2.908,0,0,1,.415,1.626,2.78,2.78,0,0,1-.588,1.765,3.159,3.159,0,0,1-1.592,1,5.529,5.529,0,0,1,1.142.381,2.732,2.732,0,0,1,.865.657,2.576,2.576,0,0,1,.554.934,3.048,3.048,0,0,1,.208,1.142,3.113,3.113,0,0,1-.415,1.661,3.284,3.284,0,0,1-1.107,1.073,5.362,5.362,0,0,1-1.523.588,9.4,9.4,0,0,1-1.7.173H3.635V0ZM6.4,4.983H8.444a3.813,3.813,0,0,0,.623-.069,1.59,1.59,0,0,0,.554-.242,1.193,1.193,0,0,0,.415-.415,1.185,1.185,0,0,0,.138-.623A1.325,1.325,0,0,0,10,2.976a.957.957,0,0,0-.45-.381,1.654,1.654,0,0,0-.623-.208,4.728,4.728,0,0,0-.657-.069h-1.9V4.983Zm0,5.156H8.929a4.24,4.24,0,0,0,.657-.069,1.763,1.763,0,0,0,.588-.242,1.85,1.85,0,0,0,.45-.45,1.363,1.363,0,0,0,.173-.692,1.279,1.279,0,0,0-.208-.727,1.666,1.666,0,0,0-.554-.415,2.873,2.873,0,0,0-.727-.208,6.34,6.34,0,0,0-.727-.069H6.472v2.872Z" transform="translate(-3.6)"/></g></svg>