<svg xmlns="http://www.w3.org/2000/svg" width="12.453" height="12.457" viewBox="0 0 12.453 12.457"><defs><style>.a{fill:gray;fill-rule:evenodd;}</style></defs><path class="a" d="M19.164,0a2.809,2.809,0,0,1,2.7,1.7,2.723,2.723,0,0,1-.554,2.941L18.818,7.128a.711.711,0,1,1-1-1l2.353-2.353a1.412,1.412,0,0,0,.415-1.488A1.315,1.315,0,0,0,18.506,1.7a1.053,1.053,0,0,0-.277.277L15.946,4.256a.722.722,0,0,1-1.038.035.752.752,0,0,1,0-1.038c.83-.83,1.661-1.7,2.526-2.526A2.629,2.629,0,0,1,19.164,0Z" transform="translate(-9.62)"/><path class="a" d="M2.746,22.02a2.673,2.673,0,0,1-2.526-1.7,2.792,2.792,0,0,1,.588-2.976c.8-.83,1.626-1.626,2.457-2.457a.716.716,0,1,1,1,1c-.8.761-1.557,1.557-2.353,2.318A1.32,1.32,0,0,0,1.5,19.632a1.3,1.3,0,0,0,2.111.623c.657-.588,1.28-1.246,1.9-1.869l.692-.692a.745.745,0,0,1,1-.035.681.681,0,0,1,0,1l-2.6,2.6A2.588,2.588,0,0,1,2.746,22.02Z" transform="translate(-0.018 -9.563)"/><path class="a" d="M10.5,15a.7.7,0,0,1,.208-.519l3.772-3.772a.71.71,0,0,1,1,1c-1.246,1.28-2.526,2.526-3.772,3.772a.642.642,0,0,1-.8.138A.634.634,0,0,1,10.5,15Z" transform="translate(-6.873 -6.867)"/></svg>