<svg xmlns="http://www.w3.org/2000/svg" width="12.457" height="12.457" viewBox="0 0 12.457 12.457"><defs><style>.a{fill:gray;}</style></defs><g transform="translate(0)"><path class="a" d="M4.152,0a4.322,4.322,0,0,0-3.08,1.073A4.122,4.122,0,0,0,0,4.152v8.3H5.19v-8.3H2.076a2.185,2.185,0,0,1,.484-1.592,2.185,2.185,0,0,1,1.592-.484" transform="translate(0)"/></g><g transform="translate(7.267)"><path class="a" d="M25.152,0a4.322,4.322,0,0,0-3.08,1.073A4.322,4.322,0,0,0,21,4.152v8.3h5.19v-8.3H23.076a2.185,2.185,0,0,1,.484-1.592,2.185,2.185,0,0,1,1.592-.484" transform="translate(-21)"/></g></svg>