<svg xmlns="http://www.w3.org/2000/svg" width="8.795" height="12.441" viewBox="0 0 8.795 12.441"><defs><style>.a{fill:gray;}</style></defs><path class="a" d="M14.613,0V6.4a3.467,3.467,0,0,1-1.038,2.664,3.893,3.893,0,0,1-2.8.969A3.753,3.753,0,0,1,8,9.066,3.629,3.629,0,0,1,7,6.4V0H8.176V6.471a2.563,2.563,0,0,0,.692,1.9,2.7,2.7,0,0,0,2.007.657,2.634,2.634,0,0,0,1.938-.657,2.563,2.563,0,0,0,.692-1.9V0Z" transform="translate(-6.416)"/><rect class="a" width="0.934" height="8.789" transform="translate(0 12.391) rotate(-89.67)"/></svg>