<?xml version="1.0" encoding="utf-8"?>
<!-- Generator: Adobe Illustrator 24.1.2, SVG Export Plug-In . SVG Version: 6.00 Build 0)  -->
<svg version="1.1"
	 id="Layer_1" xmlns:cc="http://creativecommons.org/ns#" xmlns:dc="http://purl.org/dc/elements/1.1/" xmlns:rdf="http://www.w3.org/1999/02/22-rdf-syntax-ns#"
	 xmlns="http://www.w3.org/2000/svg" xmlns:xlink="http://www.w3.org/1999/xlink" x="0px" y="0px" viewBox="0 0 36 36"
	 style="enable-background:new 0 0 36 36;" xml:space="preserve">
<style type="text/css">
	.st0{fill:#C0392B;}
	.st1{fill:#E74C3C;}
	.st2{fill:#ECF0F1;}
</style>
<g transform="translate(0 -1028.4)">
	<g>
		<path class="st0" d="M7.7,1030.9c-1.6,0-3,1.3-3,3v11.8v5.9v8.9c0,1.6,1.3,3,3,3h20.7c1.6,0,3-1.3,3-3v-8.9v-5.9v-5.9l-8.9-8.9
			H7.7z"/>
		<path class="st1" d="M7.7,1029.4c-1.6,0-3,1.3-3,3v11.8v5.9v8.9c0,1.6,1.3,3,3,3h20.7c1.6,0,3-1.3,3-3v-8.9v-5.9v-5.9l-8.9-8.9
			H7.7z"/>
		<path class="st0" d="M31.3,1038.3l-8.9-8.9v5.9c0,1.6,1.3,3,3,3H31.3z"/>
	</g>
	<path class="st2" d="M28.5,1044.2h-0.4c-0.1,0.1-0.9,1.2-1.2,1.5c-0.1,0.1-0.2,0.3-0.3,0.3c-1.1,1.3-3.4,3.5-4.8,4.7
		c-0.2,0.1-0.4,0.3-0.4,0.3c-0.1,0.1-1,0.7-1.5,1c-1.3,0.9-2.9,1.6-4.1,1.9c-2.4,0.6-4.3,0.4-6.7-0.7c-0.7-0.3-1.8-0.9-2.4-1.3
		c-0.6-0.4-0.5-0.4-0.5,0.3v0.7l0.4,0.1c0.5,0.3,1.5,0.9,2.2,1.2c0.5,0.3,0.7,0.4,0.4,0.4c-0.3-0.1-1.8-0.1-2.4,0H6.2
		c0,0,0,0.3,0,0.6v0.6h0.2c0.8-0.3,2.7-0.3,3.5-0.1c1,0.1,1.7,0.3,2.5,0.7c1.6,0.7,2.9,2.2,3.5,3.7l0.1,0.3h0.7h0.7l0-0.1
		c-0.2-0.9-0.8-1.9-1.5-2.7c-0.5-0.6-1.3-1.2-1.6-1.5h-0.1c-0.1-0.1-0.6-0.4-0.9-0.4c-0.1-0.1-0.2-0.1-0.2-0.1c0-0.1,0.1-0.1,0.2,0
		c0.3,0,1.6-0.1,2.2-0.3c1.6-0.3,3.1-0.9,4.6-1.8c0.5-0.3,1.8-1.3,2.3-1.6c0.4-0.4,0.5-0.4,0.3-0.3c-0.1,0.1-0.2,0.3-0.2,0.4
		c-0.1,0.1-0.2,0.3-0.3,0.4c-1.2,1.8-1.9,4-2.1,6.5c0,0.4-0.1,0.9-0.1,1v0.4h3.4h3.4l-0.1-0.1c-0.6-0.9-1.4-2.8-1.6-4.1
		c-0.2-1-0.3-2.7-0.1-3.5c0.4-2.4,1.7-4.4,4-5.8c0.2-0.1,0.5-0.3,0.7-0.4l0.2-0.1v-0.4c0-0.3,0-0.6,0-0.6c-0.5,0.3-1.7,1-2.3,1.3
		c-0.3,0.3-0.3,0.3,0,0c0.4-0.4,1.1-1.2,1.8-2.1l0.3-0.3h-0.7C28.9,1044.2,28.5,1044.2,28.5,1044.2z"/>
</g>
</svg>
