<?xml version="1.0" encoding="utf-8"?>
<!-- Generator: Adobe Illustrator 24.1.2, SVG Export Plug-In . SVG Version: 6.00 Build 0)  -->
<svg version="1.1" id="Layer_1" xmlns="http://www.w3.org/2000/svg" xmlns:xlink="http://www.w3.org/1999/xlink" x="0px" y="0px"
	 viewBox="0 0 36 36" style="enable-background:new 0 0 36 36;" xml:space="preserve">
<style type="text/css">
	.st0{fill:#379B5F;}
</style>
<g id="_x31_19-excel">
	<g>
		<g>
			<path class="st0" d="M34,6.5H20.4v4.2h3.1c0.6,0,1,0.5,1,1c0,0.6-0.5,1-1,1h-3.1v2.1h3.1c0.6,0,1,0.5,1,1c0,0.6-0.5,1-1,1h-3.1
				V19h3.1c0.6,0,1,0.5,1,1c0,0.6-0.5,1-1,1h-3.1v2.1h3.1c0.6,0,1,0.5,1,1c0,0.6-0.5,1-1,1h-3.1v4.2H34c0.6,0,1-0.5,1-1V7.6
				C35,7,34.5,6.5,34,6.5z M29.8,25.3h-2.1c-0.6,0-1-0.5-1-1c0-0.6,0.5-1,1-1h2.1c0.6,0,1,0.5,1,1S30.4,25.3,29.8,25.3z M29.8,21.1
				h-2.1c-0.6,0-1-0.5-1-1c0-0.6,0.5-1,1-1h2.1c0.6,0,1,0.5,1,1C30.8,20.7,30.4,21.1,29.8,21.1z M29.8,17h-2.1c-0.6,0-1-0.5-1-1
				c0-0.6,0.5-1,1-1h2.1c0.6,0,1,0.5,1,1S30.4,17,29.8,17z M29.8,12.8h-2.1c-0.6,0-1-0.5-1-1c0-0.6,0.5-1,1-1h2.1c0.6,0,1,0.5,1,1
				S30.4,12.8,29.8,12.8z"/>
			<path class="st0" d="M19.3,2.6c-0.2-0.2-0.6-0.3-0.9-0.2L1.8,5.5C1.4,5.6,1,6,1,6.5v22.9c0,0.5,0.4,0.9,0.8,1l16.6,3.1
				c0.1,0,0.1,0,0.2,0c0.2,0,0.5-0.1,0.7-0.2c0.2-0.2,0.4-0.5,0.4-0.8v-3.1v-4.2v-2.1V21v-2v-2v-2.1v-2.1v-2.1V6.5V3.4
				C19.7,3.1,19.6,2.8,19.3,2.6z M15.2,23c-0.2,0.2-0.4,0.3-0.7,0.3s-0.6-0.1-0.8-0.4l-3-3.5L8,22.8c-0.2,0.3-0.5,0.4-0.8,0.4
				c-0.2,0-0.4-0.1-0.6-0.2c-0.5-0.4-0.5-1-0.2-1.5l2.9-3.7l-2.9-3.3C6,14.1,6.1,13.4,6.5,13C7,12.7,7.6,12.7,8,13.1l2.6,3l3.1-4
				c0.4-0.5,1-0.5,1.5-0.2c0.5,0.4,0.5,1,0.2,1.5L12,17.7l3.3,3.8C15.7,21.9,15.6,22.6,15.2,23z"/>
		</g>
	</g>
</g>
<g id="Layer_1_1_">
</g>
</svg>
