<?xml version="1.0" encoding="utf-8"?>
<!-- Generator: Adobe Illustrator 24.1.2, SVG Export Plug-In . SVG Version: 6.00 Build 0)  -->
<svg version="1.1" id="Layer_1" xmlns:sketch="http://www.bohemiancoding.com/sketch/ns"
	 xmlns="http://www.w3.org/2000/svg" xmlns:xlink="http://www.w3.org/1999/xlink" x="0px" y="0px" viewBox="0 0 36 36"
	 style="enable-background:new 0 0 36 36;" xml:space="preserve">
<style type="text/css">
	.st0{fill-rule:evenodd;clip-rule:evenodd;fill:#16BEF9;}
</style>
<desc></desc>
<g id="Page-1">
	<g id="icon-97-document-file-docx">
		<path id="document-file-docx" class="st0" d="M21.8,28.4v2.2c0,1.2-1,2.2-2.2,2.2H3.2c-1.2,0-2.2-1-2.2-2.2V5.4
			c0-1.2,1-2.2,2.2-2.2h11v6.6c0,1.2,1,2.2,2.2,2.2h5.5v2.2H7.6c-1.8,0-3.3,1.5-3.3,3.3v7.7c0,1.8,1.5,3.3,3.3,3.3h14.2V28.4
			L21.8,28.4z M15.3,3.2v6.6c0,0.6,0.5,1.1,1.1,1.1h5.5L15.3,3.2L15.3,3.2z M7.6,15.3c-1.2,0-2.2,1-2.2,2.2v7.7c0,1.2,1,2.2,2.2,2.2
			h25.2c1.2,0,2.2-1,2.2-2.2v-7.7c0-1.2-1-2.2-2.2-2.2H7.6L7.6,15.3z M7.6,17.5v7.7h3.3c1.2,0,2.2-1,2.2-2.2v-3.3
			c0-1.2-1-2.2-2.2-2.2H7.6L7.6,17.5z M8.7,18.5V24h2.2c0.6,0,1.1-0.5,1.1-1.1v-3.3c0-0.6-0.5-1.1-1.1-1.1H8.7L8.7,18.5z M16.4,17.5
			c-1.2,0-2.2,1-2.2,2.2V23c0,1.2,1,2.2,2.2,2.2h1.1c1.2,0,2.2-1,2.2-2.2v-3.3c0-1.2-1-2.2-2.2-2.2H16.4L16.4,17.5z M16.4,18.5
			c-0.6,0-1.1,0.5-1.1,1.1v3.3c0,0.6,0.5,1.1,1.1,1.1h1.1c0.6,0,1.1-0.5,1.1-1.1v-3.3c0-0.6-0.5-1.1-1.1-1.1H16.4L16.4,18.5z
			 M26.2,22.9c0,1.2-1,2.2-2.2,2.2h-1.1c-1.2,0-2.2-1-2.2-2.2v-3.3c0-1.2,1-2.2,2.2-2.2H24c1.2,0,2.2,1,2.2,2.2h-1.1
			c0-0.6-0.5-1.1-1.1-1.1h-1.1c-0.6,0-1.1,0.5-1.1,1.1v3.3c0,0.6,0.5,1.1,1.1,1.1H24c0.6,0,1.1-0.5,1.1-1.1H26.2L26.2,22.9
			L26.2,22.9z M29.5,21.3l-2.2-3.8h1.1l1.6,2.9l1.6-2.9h1.1l-2.2,3.8l2.2,3.8h-1.1L30,22.2l-1.6,2.9h-1.1L29.5,21.3L29.5,21.3z"/>
	</g>
</g>
</svg>
