<svg xmlns="http://www.w3.org/2000/svg" width="16.282" height="15.137" viewBox="0 0 16.282 15.137"><defs><style>.a{fill:#595d6e;stroke:#707070;stroke-width:0.5px;}</style></defs><path class="a" d="M16.179,11.729V10.708H16.6a.2.2,0,0,0,.186-.186V9.315A.2.2,0,0,0,16.6,9.13H15.157V8.48l.743.371c.046,0,.046.046.093.046s.093,0,.093-.046a.241.241,0,0,0,.093-.186V6.437a.241.241,0,0,0-.093-.186L8.659,2.26a.141.141,0,0,0-.186,0L1.093,6.205C1.046,6.205,1,6.3,1,6.391V8.619a.241.241,0,0,0,.093.186.141.141,0,0,0,.186,0l.743-.371v8.216a.2.2,0,0,0,.186.186H16.55a.2.2,0,0,0,.186-.186V15.442a.2.2,0,0,0-.186-.186h-.418V14.189a1.523,1.523,0,0,0-.7-1.253A1.338,1.338,0,0,0,16.179,11.729Zm.186-2.274v.836h-3.3V9.455h3.3ZM1.418,8.248V6.484L8.613,2.678l7.195,3.806V8.248l-1.021-.557h0L8.659,4.534a.141.141,0,0,0-.186,0ZM12.7,15.4v1.021H2.439V8.2l.186-.139L8.613,4.906l5.941,3.156.186.139v.836H12.883a.2.2,0,0,0-.186.186v1.253a.2.2,0,0,0,.186.186H13.3v1.253a.171.171,0,0,0,.046.139V12.1c0,.046.046.093.046.139h0c0,.046.046.093.093.139a.045.045,0,0,0,.046.046c0,.046.046.046.046.093a.045.045,0,0,0,.046.046c.046.046.046.093.093.093h0c.046.046.093.093.139.093a.045.045,0,0,1,.046.046L14,12.89h0c-.046,0-.046.046-.093.093a.045.045,0,0,0-.046.046c-.046.046-.093.093-.139.093h0l-.093.093a.045.045,0,0,1-.046.046c-.046.046-.046.046-.046.093a.045.045,0,0,1-.046.046c-.046.046-.046.093-.093.139h0c0,.046-.046.093-.046.139v.046a.171.171,0,0,1-.046.139v1.253h-.418C12.79,15.21,12.7,15.3,12.7,15.4Zm3.249.232h.418v.836h-3.3v-.836h2.878Zm-.186-1.439V15.21H13.718V14.189a1.03,1.03,0,0,1,1.021-1.021h.186A1.047,1.047,0,0,1,15.761,14.189Zm0-2.46a1.047,1.047,0,0,1-.836,1.021H14.74a1.03,1.03,0,0,1-1.021-1.021V10.708h2.042Z" transform="translate(-0.75 -1.948)"/></svg>