<svg xmlns="http://www.w3.org/2000/svg" width="16.032" height="16.037" viewBox="0 0 16.032 16.037"><defs><style>.a{fill:#707070;stroke:#707070;stroke-width:0.2px;}</style></defs><g transform="translate(0.108 0.1)"><path class="a" d="M7.925,19.849A1.625,1.625,0,1,0,6.3,18.225h0A1.645,1.645,0,0,0,7.925,19.849Zm0-2.739a1.114,1.114,0,1,1-1.114,1.114h0A1.1,1.1,0,0,1,7.925,17.111Z" transform="translate(-3.817 -9.35)"/><path class="a" d="M11.209,4.419a.927.927,0,0,0-1.253,0h0L4.479,10.175a1.054,1.054,0,0,0-.279.743V13.1a2.66,2.66,0,0,1,.511-.511V10.917a.527.527,0,0,1,.139-.371L10.281,4.79a.424.424,0,0,1,.557,0l5.524,5.756a.527.527,0,0,1,.139.371v1.671a2.66,2.66,0,0,1,.511.511V10.917a1.457,1.457,0,0,0-.279-.743Z" transform="translate(-2.691 -2.693)"/><path class="a" d="M17.778,33.9H16.293v.093a1.355,1.355,0,0,1-.093.418h1.671a1.355,1.355,0,0,1-.093-.418Z" transform="translate(-9.121 -18.62)"/><path class="a" d="M24.325,19.849A1.625,1.625,0,1,0,22.7,18.225h0A1.676,1.676,0,0,0,24.325,19.849Zm0-2.739a1.114,1.114,0,1,1-1.114,1.114h0A1.13,1.13,0,0,1,24.325,17.111Z" transform="translate(-12.604 -9.35)"/><path class="a" d="M16.083,22.846a2.8,2.8,0,0,1-.371.371,1.512,1.512,0,0,1,.836,1.3v3.435H12.37V25.539l.928-.975a.263.263,0,0,0-.371-.371l-2.089,2.182c-.046.046-.093.046-.186,0h0l-.232-.186a.087.087,0,0,1,0-.139L12.834,23.4h0a1.411,1.411,0,0,1,.325-.232,1.413,1.413,0,0,1-.371-.371,2.433,2.433,0,0,0-.511.464l-1.671,1.857-1.671-1.81a2.433,2.433,0,0,0-.511-.464,2.8,2.8,0,0,1-.371.371.833.833,0,0,1,.325.232h0l1.857,2.042a2.019,2.019,0,0,0-.279.325.144.144,0,0,0-.046.093L8.285,24.239a.263.263,0,0,0-.371.371l.928.975V28H4.664V24.564a1.428,1.428,0,0,1,.836-1.3,1.413,1.413,0,0,1-.371-.371A1.906,1.906,0,0,0,4.2,24.564v3.528a.416.416,0,0,0,.418.418H8.981a.416.416,0,0,0,.418-.418v-2l.65.7a.857.857,0,0,0,1.16,0l.65-.7v2a.416.416,0,0,0,.418.418H16.64a.416.416,0,0,0,.418-.418V24.564A2.188,2.188,0,0,0,16.083,22.846Z" transform="translate(-2.691 -12.672)"/><path class="a" d="M16.709,8.835,9.468,1.176h0a.846.846,0,0,0-1.207.139L1.02,8.788a.281.281,0,0,0,0,.371c.093.139.232.093.371,0h0L8.586,1.64c.232-.186.418-.186.511-.093L16.291,9.16a.281.281,0,0,0,.371,0A.229.229,0,0,0,16.709,8.835Z" transform="translate(-0.95 -0.982)"/><path class="a" d="M25.722,4.964a.219.219,0,0,0,.232-.232V3.664H26.7v2.46a.232.232,0,1,0,.464,0V3.432a.219.219,0,0,0-.232-.232H25.722a.219.219,0,0,0-.232.232v1.3C25.443,4.871,25.582,4.964,25.722,4.964Z" transform="translate(-14.094 -2.17)"/><path class="a" d="M17.264,14.874a.515.515,0,0,0,.511-.511V13.111a.515.515,0,0,0-.511-.511H16.011a.515.515,0,0,0-.511.511v1.253a.515.515,0,0,0,.511.511Zm-1.207-1.764H17.31v1.253H16.057Z" transform="translate(-8.746 -7.207)"/></g></svg>