<svg xmlns="http://www.w3.org/2000/svg" width="14.399" height="15.782" viewBox="0 0 14.399 15.782"><defs><style>.a{fill:#707070;}</style></defs><path class="a" d="M28.4,12.993h.232a1.184,1.184,0,0,0,0-1.393h-.418a1.117,1.117,0,0,0,0,1.393Z" transform="translate(-16.141 -6.68)"/><path class="a" d="M28.4,7.693h.232a1.184,1.184,0,0,0,0-1.393h-.418a1.117,1.117,0,0,0,0,1.393Z" transform="translate(-16.141 -3.84)"/><path class="a" d="M28.4,18.293h.232a1.184,1.184,0,0,0,0-1.393h-.418a1.117,1.117,0,0,0,0,1.393Z" transform="translate(-16.141 -9.52)"/><path class="a" d="M2.675,15.529a.348.348,0,0,0,.232-.046A47.54,47.54,0,0,0,4.16,9.494l.093-.464c.046-.139.046-.232.093-.371a2.545,2.545,0,0,1,.371-.7,5.563,5.563,0,0,1,.511-.557.748.748,0,0,1,.325-.186l.325-.186A14.462,14.462,0,0,1,8.152,5.967h0c.046,1.114.046,2.089.093,2.878h0a.949.949,0,0,0-.511,0,.573.573,0,0,0-.371.186.418.418,0,0,0,.046.232.463.463,0,0,1,.046.186,1.015,1.015,0,0,0,.232.139.66.66,0,0,0,.279.093.79.79,0,0,0,.325.046v.139a3.3,3.3,0,0,1-.882,1.068c-.046.046,0,.139.046.232s.139.139.186.093A3.335,3.335,0,0,0,8.8,10.144c.325-.464.7-1.021,1.114-1.625l.279-.464a.687.687,0,0,1,.975-.186.732.732,0,0,1,.232.975h0l-.325.511-.65,1.021a3.842,3.842,0,0,0-.6,1.9v.557a3,3,0,0,1-.186.928,3.035,3.035,0,0,1-1.021,1.393c-.093.093-.232.186-.325.279a2.145,2.145,0,0,0-.325.325,1.766,1.766,0,0,0-.418.6c-.046.046.046.139.139.232.139.186.232.186.279.186a2.2,2.2,0,0,1,.464-.464c.093-.093.186-.139.279-.232s.232-.139.325-.232a3.911,3.911,0,0,0,1.393-1.625v-.046l.093.093.046.046a.162.162,0,0,1,.046.093,1.411,1.411,0,0,0,.325.232,1.079,1.079,0,0,0,.928.046,1.149,1.149,0,0,0,.743-.65c.046-.046.046-.139.093-.186a1.131,1.131,0,0,0,.557,0,1.193,1.193,0,0,0,.928-.928.905.905,0,0,0-.046-.6c0-.046-.046-.093-.046-.139l-.046-.093L14,12.047l1.346.046h.511a1.048,1.048,0,0,0,.975-.975v-.511l.046-4.27V2.021a.9.9,0,0,0-.139-.464A1.281,1.281,0,0,0,16,1H9.034c-.093,0-.139.046-.186.046a1,1,0,0,0-.7.975v.511c0,1.114.046,2.135.046,3.064-.046-.093-.046-.186-.093-.139a7.793,7.793,0,0,0-2.553.789c-.139.046-.232.139-.371.186l-.418.279A3.159,3.159,0,0,0,3.557,8.288c-.046.186-.093.325-.139.511l-.093.464a50.87,50.87,0,0,0-.836,6.127C2.443,15.436,2.582,15.482,2.675,15.529Zm9.144-1.9a.531.531,0,0,1-.6.279c-.046,0-.093-.046-.186-.046l-.046-.046-.046-.046-.093-.093c-.093-.046-.186-.139-.279-.186.046-.186.046-.325.093-.511v-.6a1.974,1.974,0,0,1,.093-.511h.511a6.2,6.2,0,0,0,.325.836l.139.279.046.093a.045.045,0,0,0,.046.046c0,.046,0,.046.046.093A.916.916,0,0,1,11.819,13.626Zm1.439-.743a.933.933,0,0,1-.371.186h-.139c-.046-.093-.046-.139-.093-.232,0-.046-.046-.046-.046-.093l-.046-.046-.186-.279c-.093-.139-.232-.279-.325-.418.418,0,.882.046,1.346.046v.464a.527.527,0,0,1-.139.371Zm-1.346-11h3.9c.046,0,.093.046.139.093,0,.046.046.046.046.093V6.292l.046,4.27v.511a.352.352,0,0,1-.093.186.241.241,0,0,1-.186.093H15.3l-1.764.046c-1.021.046-1.95.046-2.646.093l.279-.557.65-1.021.325-.511a1.567,1.567,0,0,0-.557-2.182,1.511,1.511,0,0,0-.65-.186,19.15,19.15,0,0,0,0-5.152Zm-3.017.7V2.068a.308.308,0,0,1,.186-.232h1.3a19.5,19.5,0,0,0,0,5.2,2.263,2.263,0,0,0-.325.139,1.979,1.979,0,0,0-.557.511l-.279.464c-.186.325-.371.6-.511.882h0C8.8,7.5,8.9,5.224,8.9,2.578Z" transform="translate(-2.48 -1)"/></svg>