<svg xmlns="http://www.w3.org/2000/svg" width="17.301" height="14" viewBox="0 0 17.301 14"><defs><style>.a{fill:#707070;}</style></defs><path class="a" d="M14.632,7.29,9.8,4.32a.41.41,0,0,0-.457,0C6.654,5.991,3.91,7.708,1.217,9.379c-.457.279,0,.882.457.6C4.316,8.358,6.959,6.733,9.6,5.062l8.08,4.92c.457.279.915-.325.457-.6Z" transform="translate(-1.027 -4.25)"/><path class="a" d="M18.358,12.454,12.044,8.227a.4.4,0,0,0-.47,0L5.209,12.454A.344.344,0,0,0,5,12.815v7.113a.446.446,0,0,0,.417.412H18.149a.446.446,0,0,0,.417-.412V12.815A.37.37,0,0,0,18.358,12.454ZM9.7,19.463H5.835V13.021l5.948-3.969,5.948,3.969v6.443H13.87v-4.9a.446.446,0,0,0-.417-.412H10.166a.446.446,0,0,0-.417.412v4.9Zm.887,0V14.979h2.452v4.484H10.583Z" transform="translate(-3.156 -6.34)"/></svg>