<svg xmlns="http://www.w3.org/2000/svg" width="16.251" height="15.961" viewBox="0 0 16.251 15.961"><defs><style>.a{fill:#707070;stroke:#707070;stroke-width:0.5px;}</style></defs><g transform="translate(0.25 0.277)"><path class="a" d="M15.935,17.417v-1.9c.743.139.882.511.928.928h.7a1.552,1.552,0,0,0-1.625-1.532V14.4h-.371v.511a1.588,1.588,0,0,0-1.671,1.578c0,1.114.836,1.393,1.671,1.578V20.2c-.789-.139-1.021-.418-1.068-1.3h-.7a1.638,1.638,0,0,0,1.764,1.857v.789h.371v-.789A1.671,1.671,0,0,0,17.7,19.042C17.7,17.928,17.049,17.742,15.935,17.417Zm-.371-.093c-.464-.093-.975-.325-.975-.928a.89.89,0,0,1,.975-.928Zm.371,2.831V18.113l.418.139a.964.964,0,0,1,.65.882A.987.987,0,0,1,15.935,20.156Z" transform="translate(-7.859 -8.342)"/><path class="a" d="M13.769,7.32,10.52,10.476a.23.23,0,0,0,.325.325l3.11-2.971,3.064,3.017c.046.046.093.046.186.046a.352.352,0,0,0,.186-.093.224.224,0,0,0,0-.325L14.14,7.32A.282.282,0,0,0,13.769,7.32Z" transform="translate(-6.064 -4.511)"/><path class="a" d="M9.077,1.42a.224.224,0,0,0-.325,0L4.9,5.179V2.209a.219.219,0,0,0-.232-.232H2.485a.219.219,0,0,0-.232.232v5.57h0l-1.16,1.16C1,8.986,1,9.079,1,9.171a.255.255,0,0,0,.232.139H3.46V16.32H1.789a.232.232,0,0,0,0,.464h14.2a.232.232,0,0,0,0-.464H14.322V9.311H16.5a.255.255,0,0,0,.232-.139.307.307,0,0,0-.046-.279ZM2.717,2.441H4.389v3.2L2.717,7.268V2.441ZM14.09,8.846a.219.219,0,0,0-.232.232V16.32H3.924V9.079a.219.219,0,0,0-.232-.232H1.836L8.891,1.93l7.056,6.916Z" transform="translate(-1 -1.35)"/></g></svg>