<svg xmlns="http://www.w3.org/2000/svg" width="19.471" height="14" viewBox="0 0 19.471 14"><defs><style>.a{fill:#707070;}</style></defs><path class="a" d="M20.334,19.081l-2-2.46V11.073h0c.057-.057-.172-.343-.229-.343L9.866,5.868a.489.489,0,0,0-.4,0L1.229,10.73A.414.414,0,0,0,1,11.073a.314.314,0,0,0,.229.343l2.746,1.6v3.775c0,1.487,2.974,2.345,5.72,2.345s5.72-.8,5.72-2.345V13.018l2.174-1.258v4.8l-2.059,2.517a.406.406,0,0,0,.629.515l1.43-1.716v1.43a.391.391,0,0,0,.4.4h0a.391.391,0,0,0,.4-.4V17.937l1.43,1.716a.652.652,0,0,0,.343.172,1.3,1.3,0,0,0,.229-.057A.608.608,0,0,0,20.334,19.081ZM9.695,18.395c-2.974,0-4.919-.915-4.919-1.544s1.888-1.544,4.919-1.544,4.919.915,4.919,1.544C14.557,17.48,12.612,18.395,9.695,18.395Zm4.862-2.8a9.229,9.229,0,0,0-4.919-1.087,9.5,9.5,0,0,0-4.919,1.087V12.1c.515-.8,2.917-1.373,5.549-1.258,2.174.057,3.832.572,4.233,1.258l.057,3.489Zm.8-3.489v-.114a.21.21,0,0,0-.057-.172c-.629-1.544-3.947-1.773-4.976-1.83-2-.057-5.606.229-6.349,1.773a.21.21,0,0,0-.057.172v.114L2.2,11.016l7.436-4.4,7.436,4.4Z" transform="translate(-1 -5.825)"/></svg>