<?xml version="1.0" encoding="utf-8"?>
<!-- Generator: Adobe Illustrator 24.1.0, SVG Export Plug-In . SVG Version: 6.00 Build 0)  -->
<svg version="1.1"
	 id="Layer_1" xmlns:cc="http://creativecommons.org/ns#" xmlns:dc="http://purl.org/dc/elements/1.1/" xmlns:inkscape="http://www.inkscape.org/namespaces/inkscape" xmlns:rdf="http://www.w3.org/1999/02/22-rdf-syntax-ns#" xmlns:sodipodi="http://sodipodi.sourceforge.net/DTD/sodipodi-0.dtd" xmlns:svg="http://www.w3.org/2000/svg"
	 xmlns="http://www.w3.org/2000/svg" xmlns:xlink="http://www.w3.org/1999/xlink" x="0px" y="0px" viewBox="0 0 24 24"
	 style="enable-background:new 0 0 24 24;" xml:space="preserve">
<path d="M22.5,11.1l-5.3-4.9c-0.3-0.3-0.7-0.4-1.1-0.3l0,0c-0.5,0.2-0.9,0.7-1,1.3c0,0.3,0.1,0.6,0.4,0.8l3.1,2.8H2.8
	c-0.6,0-1.1,0.5-1.1,1.2c0,0.6,0.5,1.1,1.2,1.1h15.6L15.4,16c-0.5,0.5-0.5,1.1-0.1,1.6c0.2,0.2,0.5,0.4,0.9,0.4c0,0,0,0,0,0
	c0.3,0,0.5-0.1,0.7-0.3l5.4-5c0.2-0.2,0.4-0.6,0.4-0.9C22.7,11.5,22.6,11.3,22.5,11.1z"/>
</svg>
