<?xml version="1.0" encoding="utf-8"?>
<!-- Generator: Adobe Illustrator 24.1.0, SVG Export Plug-In . SVG Version: 6.00 Build 0)  -->
<svg version="1.1" id="Layer_1" xmlns="http://www.w3.org/2000/svg" xmlns:xlink="http://www.w3.org/1999/xlink" x="0px" y="0px"
	 viewBox="0 0 24 24" style="enable-background:new 0 0 24 24;" xml:space="preserve">
<defs><style>.a{fill:#ffffff;}</style></defs>
<path class="a" d="M22.3,10.9L14.5,4c-0.2-0.2-0.6-0.4-1.1-0.2c-0.1,0.1-0.6,0.3-0.6,0.8v3.2C9.1,8.2,6,10.1,3.8,13.5
	c-1.6,2.7-2.3,5.3-2.3,5.6c0,0.6,0.3,0.8,0.6,1c0.1,0,0.2,0.1,0.3,0.1c0.4,0,0.7-0.2,0.8-0.5C5.6,15.5,8.9,15,13,15v3.7
	c0,0.6,0.4,0.8,0.6,0.8c0.4,0.2,0.7,0,0.9-0.1l7.8-7.1c0.2-0.2,0.3-0.5,0.3-0.7C22.6,11.5,22.6,11.2,22.3,10.9z M14.8,16.6v-2.5
	c0-0.5-0.4-0.9-0.9-0.9c-3.1,0-6.1,0.2-8.7,1.7c1.6-2.7,4.3-5.1,8.7-5.1c0.5,0,0.9-0.4,0.9-0.9V6.8l5.4,4.8L14.8,16.6z"/>
</svg>
