<?xml version="1.0" encoding="utf-8"?>
<!-- Generator: Adobe Illustrator 24.1.0, SVG Export Plug-In . SVG Version: 6.00 Build 0)  -->
<svg version="1.1" id="Layer_1" xmlns="http://www.w3.org/2000/svg" xmlns:xlink="http://www.w3.org/1999/xlink" x="0px" y="0px"
	 viewBox="0 0 24 24" style="enable-background:new 0 0 24 24;" xml:space="preserve">
<g>
	<path d="M20.5,16.7l-2.8-2c-1.1-0.8-2.8-0.5-3.5,0.6l-0.4,0.6c-1-0.7-2.1-1.6-3.1-2.6c-1.1-1.1-2-2.2-2.6-3.1l0.6-0.4
		c0.6-0.4,0.9-1,1-1.6c0.1-0.7-0.1-1.3-0.5-1.9L7.3,3.5c-0.5-0.7-1.1-1-2-1.1c-1.1,0-2.2,0.9-2.4,1.1C2.4,4,2.1,4.7,1.8,5.5
		C1,8.7,3,13.4,6.9,17.2c3.2,3.2,7.1,5.2,10.2,5.2c0.4,0,0.9-0.1,1.5-0.2c1.4-0.5,2.6-1.5,3-2.7C21.8,18.6,21.5,17.3,20.5,16.7z
		 M6.5,9.4C6.4,9.4,6.3,9.6,6.2,9.8c-0.1,0.2,0,0.5,0.1,0.8c0.9,1.4,2.1,2.8,3.2,4c1,1,2.6,2.4,4,3.3c0.2,0.1,0.4,0.1,0.5,0.1
		c0.3,0,0.5-0.2,0.5-0.3l0.9-1.3c0.2-0.2,0.4-0.3,0.5-0.4c0.2,0,0.5,0,0.7,0.2l2.8,2c0.4,0.3,0.5,0.6,0.4,0.9
		c-0.1,0.2-0.9,1.4-1.8,1.7c-0.5,0.1-1.2,0.1-1.2,0.1c-2.5,0-6-1.9-8.9-4.8c-3.3-3.2-5.3-7.5-4.6-10c0.1-0.3,0.4-0.8,0.7-1.3
		C4.3,4.3,4.9,4,5.2,4c0,0,0,0,0,0C5.5,4,5.8,4.1,6,4.4l2,2.8c0.1,0.2,0.2,0.5,0.2,0.7c0,0.2-0.2,0.4-0.4,0.6L6.5,9.4z"/>
	<path d="M19.2,4.8L19.2,4.8c-2-2-4.5-3.1-7.2-3.2c-0.5,0-0.9,0.3-0.9,0.8c0,0.2,0,0.5,0.3,0.7c0.1,0.1,0.3,0.2,0.5,0.2
		c2.3,0.1,4.4,1,6.2,2.7c1.6,1.6,2.6,3.8,2.8,6.1c0,0.4,0.4,0.8,0.8,0.8c0.4,0,0.8-0.4,0.8-0.9C22.2,9.4,21,6.8,19.2,4.8z"/>
	<path d="M11.6,5.8L11.6,5.8c1.7,0.1,3.3,0.8,4.5,2c1.2,1.2,1.9,2.7,2,4.4c0,0.4,0.4,0.8,0.8,0.8c0.4,0,0.8-0.4,0.8-0.9
		c-0.1-2-1-4.1-2.5-5.5C15.7,5,13.7,4.1,11.6,4c-0.5,0-0.8,0.3-0.8,0.8C10.8,5.3,11.1,5.7,11.6,5.8z"/>
	<path d="M11.5,8.4c1,0.1,2,0.5,2.9,1.3c0.7,0.7,1.2,1.8,1.3,2.8c0,0.4,0.4,0.8,0.8,0.8c0.4,0,0.8-0.4,0.8-0.9
		c-0.1-1.4-0.7-2.7-1.7-3.8c-1-1-2.3-1.6-3.8-1.7c-0.3,0-0.5,0.1-0.7,0.2c-0.2,0.1-0.2,0.4-0.2,0.5c0,0.3,0.1,0.5,0.2,0.6
		C11.1,8.3,11.2,8.4,11.5,8.4z"/>
</g>
</svg>
