<?xml version="1.0" encoding="utf-8"?>
<!-- Generator: Adobe Illustrator 24.1.0, SVG Export Plug-In . SVG Version: 6.00 Build 0)  -->
<svg version="1.1" id="Layer_1" xmlns="http://www.w3.org/2000/svg" xmlns:xlink="http://www.w3.org/1999/xlink" x="0px" y="0px"
	 viewBox="0 0 24 24" style="enable-background:new 0 0 24 24;" xml:space="preserve">
<g>
	<path d="M20.6,4.7c-0.2-0.2-0.5-0.4-0.8-0.4h-3.4V4c0-1.3-1.1-2.4-2.5-2.4h-4C8.6,1.6,7.5,2.7,7.5,4v0.3H4.2
		c-0.6,0-1.1,0.5-1.1,1.1c0,0.6,0.4,1.2,1.1,1.2h0.5v13c0,1.5,1.3,2.8,2.8,2.8h8.9c1.5,0,2.8-1.3,2.8-2.8v-13h0.5
		c0.6,0,1.1-0.5,1.1-1C20.8,5.3,20.8,5,20.6,4.7z M9.7,4.3l0-0.3c0-0.1,0.1-0.2,0.2-0.2h4c0.1,0,0.2,0,0.2,0.2v0.3H9.7z M17.1,19.2
		L17.1,19.2L17,19.6c0,0.4-0.2,0.6-0.6,0.6H7.6C7.2,20.2,7,20,7,19.6v-13h10.1V19.2z"/>
	<path d="M14.3,18.7c0.6,0,1.1-0.5,1.1-1.1V9.2c0-0.6-0.5-1.1-1.1-1.1s-1.1,0.5-1.1,1.1v8.4C13.2,18.1,13.7,18.7,14.3,18.7z"/>
	<path d="M9.7,18.7c0.6,0,1.1-0.5,1.1-1.1V9.2c0-0.6-0.4-1-1-1.1C9.5,8.1,9.3,8.1,9,8.3C8.8,8.5,8.6,8.8,8.6,9.2v8.4
		C8.6,18.1,9.1,18.7,9.7,18.7z"/>
</g>
</svg>
