<?xml version="1.0" encoding="utf-8"?>
<!-- Generator: Adobe Illustrator 24.1.0, SVG Export Plug-In . SVG Version: 6.00 Build 0)  -->
<svg version="1.1" id="Layer_1" xmlns="http://www.w3.org/2000/svg" xmlns:xlink="http://www.w3.org/1999/xlink" x="0px" y="0px"
	 viewBox="0 0 24 24" style="enable-background:new 0 0 24 24;" xml:space="preserve">
<g>
	<path d="M19.8,11c-0.7,0-1,0.5-1,1v8.3H3.9V5.4H12c0.5,0,1-0.4,1-1.1s-0.5-1-1-1H2.8c-0.7,0-1,0.5-1,1v16.9c0,0.5,0.4,1,1,1h16.8
		c0.8,0,1.1-0.7,1.2-0.9l0-9.3C20.8,11.4,20.4,11,19.8,11z"/>
	<path d="M21.9,4.2l-2.3-2.3c-0.4-0.4-1.1-0.4-1.5,0l-10,10l0,0.1c-0.1,0.2-0.2,0.5-0.2,0.7V15c0,0.7,0.5,1,1,1h2.3
		c0.2,0,0.5,0,0.7-0.4l7.3-7.3c0.2-0.1,0.3-0.2,0.4-0.3c0.1-0.1,0.1-0.2,0.2-0.3l2.1-2.1C22.3,5.3,22.3,4.6,21.9,4.2z M18.1,5.1
		L19,4.2L19.8,5l-0.9,0.9L18.1,5.1z M10,13.2l6.6-6.6l0.8,0.9L10.8,14H10V13.2z"/>
</g>
</svg>
