<?xml version="1.0" encoding="utf-8"?>
<!-- Generator: Adobe Illustrator 24.1.0, SVG Export Plug-In . SVG Version: 6.00 Build 0)  -->
<svg version="1.1" id="Layer_1" xmlns="http://www.w3.org/2000/svg" xmlns:xlink="http://www.w3.org/1999/xlink" x="0px" y="0px"
	 viewBox="0 0 24 24" style="enable-background:new 0 0 24 24;" xml:space="preserve">
<path d="M9,11h3.6L9,15.2V17h6v-2h-3.6l3.6-4.2V9H9V11z M16.1,3.3l1.3-1.5l4.6,3.8l-1.3,1.5L16.1,3.3z M3.3,7.2L2.1,5.7l4.6-3.8
	l1.3,1.5L3.3,7.2z M12,6c3.9,0,7,3.1,7,7s-3.1,7-7,7s-7-3.1-7-7S8.1,6,12,6 M12,4c-5,0-9,4-9,9s4,9,9,9s9-4,9-9S17,4,12,4z"/>
</svg>
