<?xml version="1.0" encoding="utf-8"?>
<!-- Generator: Adobe Illustrator 24.1.2, SVG Export Plug-In . SVG Version: 6.00 Build 0)  -->
<svg version="1.1" id="Layer_1" xmlns="http://www.w3.org/2000/svg" xmlns:xlink="http://www.w3.org/1999/xlink" x="0px" y="0px"
	 viewBox="0 0 36 36" style="enable-background:new 0 0 36 36;" xml:space="preserve">
<style type="text/css">
	.st0{fill:#808080;}
</style>
<g>
	<path class="st0" d="M34.7,11.4L24.5,2.9c-0.4-0.3-0.9-0.3-1.2,0.1c-0.1,0.2-0.2,0.4-0.2,0.6V8C14.6,9.9,9.5,15.2,9.5,22.2
		c0,0.5,0.4,0.8,0.8,0.8s0.7-0.2,0.8-0.6c1.4-4.3,7.2-6,11.9-6.2v4.2c0,0.5,0.4,0.8,0.8,0.8c0.2,0,0.4-0.1,0.6-0.2l10.2-8.5
		C35.1,12.4,35.1,11.9,34.7,11.4C34.8,11.5,34.7,11.4,34.7,11.4L34.7,11.4z"/>
	<path class="st0" d="M31.6,23.1c-0.9,0-1.7,0.8-1.7,1.7l0,0v5.1H4.4V7.8h6.8c0.9,0,1.7-0.8,1.7-1.7s-0.8-1.7-1.7-1.7H2.7
		C1.8,4.4,1,5.2,1,6.1l0,0v25.5c0,0.9,0.8,1.7,1.7,1.7l0,0h28.9c0.9,0,1.7-0.8,1.7-1.7l0,0v-6.8C33.3,23.9,32.5,23.1,31.6,23.1
		L31.6,23.1z"/>
</g>
</svg>
