<?xml version="1.0" encoding="utf-8"?>
<!-- Generator: Adobe Illustrator 24.1.2, SVG Export Plug-In . SVG Version: 6.00 Build 0)  -->
<svg version="1.1" id="Layer_1" xmlns="http://www.w3.org/2000/svg" xmlns:xlink="http://www.w3.org/1999/xlink" x="0px" y="0px"
	 viewBox="0 0 36 36" style="enable-background:new 0 0 36 36;" xml:space="preserve">
<style type="text/css">
	.st0{fill:#808080;}
</style>
<g>
	<path class="st0" d="M6.9,23.4h10.2c3.3,0,6,2.7,6,6v2.8H0.9v-2.8C0.9,26.1,3.7,23.4,6.9,23.4z M17.1,25.2H6.9
		c-2.3,0-4.3,1.9-4.3,4.3v1h18.8v-1.1C21.4,27.1,19.4,25.2,17.1,25.2z"/>
	<path class="st0" d="M12.1,10c3.2,0,5.9,2.7,5.9,5.9c0,3.3-2.7,5.9-5.9,5.9c-3.3,0-5.9-2.6-5.9-5.9C6.2,12.6,8.8,10,12.1,10z
		 M12.1,11.7c-2.3,0-4.1,1.9-4.1,4.1c0,2.3,1.8,4.1,4.1,4.1s4.1-1.8,4.1-4.1C16.1,13.6,14.3,11.7,12.1,11.7z"/>
	<path class="st0" d="M19.7,17.2H29c3.3,0,6,2.7,6,6V26H24.8v-1.7h8.5v-1c0-2.4-1.9-4.3-4.3-4.3h-9.3L19.7,17.2L19.7,17.2z"/>
	<path class="st0" d="M24,3.8c3.2,0,5.9,2.7,5.9,5.9c0,3.3-2.7,5.9-5.9,5.9c-3.3,0-5.9-2.6-5.9-5.9C18.1,6.4,20.7,3.8,24,3.8z
		 M24,5.5c-2.3,0-4.1,1.9-4.1,4.1c0,2.3,1.8,4.1,4.1,4.1S28,11.8,28,9.6C28.1,7.4,26.2,5.5,24,5.5z"/>
</g>
</svg>
