<?xml version="1.0" encoding="utf-8"?>
<!-- Generator: Adobe Illustrator 24.1.2, SVG Export Plug-In . SVG Version: 6.00 Build 0)  -->
<svg version="1.1" id="Layer_1" xmlns="http://www.w3.org/2000/svg" xmlns:xlink="http://www.w3.org/1999/xlink" x="0px" y="0px"
	 viewBox="0 0 36 36" style="enable-background:new 0 0 36 36;" xml:space="preserve">
<style type="text/css">
	.st0{fill:#808080;}
</style>
<g id="minimise" transform="translate(0.15 -0.05)">
	<path id="Path_211" class="st0" d="M5.8,18.3L5.8,18.3c-0.8,0.2-1.2,1-1,1.8c0.1,0.3,0.3,0.6,0.5,0.7c0.9,0.8,1.8,1.8,2.7,2.7
		c0,0.1,0.2,0.2,0.3,0.4C8.2,24.1,8,24.1,8,24.2L1.3,31c-0.6,0.6-0.6,0.8,0,1.4l2.2,2.2c0.6,0.6,0.8,0.6,1.4,0l5.3-5.3l1.9-1.9
		c0.1,0.1,0.2,0.3,0.3,0.4c0.9,0.9,1.9,2,2.8,2.8c0.5,0.5,1.4,0.6,1.9,0c0,0,0,0,0,0c0.2-0.2,0.3-0.5,0.5-0.7V18.2h-1.1
		C12.8,18.3,9.3,18.3,5.8,18.3z"/>
	<path id="Path_212" class="st0" d="M19.8,17.8h9.7c0.6,0.1,1.2-0.3,1.4-0.8c0.3-0.6,0.1-1.2-0.4-1.6L29,13.8l-1.6-1.6l0.3-0.3
		c2.3-2.3,4.6-4.6,6.9-7c0.5-0.5,0.5-0.8,0-1.2l-2.3-2.2c-0.6-0.6-0.8-0.6-1.4,0l-5.1,5.1c-0.7,0.6-1.4,1.3-2,2l-0.3-0.3l-2.8-2.8
		c-0.4-0.6-1.1-0.7-1.7-0.4c-0.5,0.3-0.9,0.8-0.8,1.4v9.6C18.3,17.2,18.8,17.8,19.8,17.8z"/>
</g>
</svg>
