<?xml version="1.0" encoding="utf-8"?>
<!-- Generator: Adobe Illustrator 24.1.2, SVG Export Plug-In . SVG Version: 6.00 Build 0)  -->
<svg version="1.1" id="Layer_1" xmlns="http://www.w3.org/2000/svg" xmlns:xlink="http://www.w3.org/1999/xlink" x="0px" y="0px"
	 viewBox="0 0 36 36" style="enable-background:new 0 0 36 36;" xml:space="preserve">
<style type="text/css">
	.st0{fill:#808080;}
</style>
<g>
	<path class="st0" d="M18,22.6c2.5,0,4.6-2.1,4.6-4.6c0-2.5-2.1-4.6-4.6-4.6s-4.6,2.1-4.6,4.6C13.4,20.5,15.4,22.6,18,22.6z
		 M14.9,18c0-1.7,1.4-3.1,3.1-3.1s3.1,1.4,3.1,3.1c0,1.7-1.4,3.1-3.1,3.1S14.9,19.7,14.9,18z"/>
	<path class="st0" d="M10.7,25.6l1,0.8c0.8,0.6,1.5,0.9,2.2,1.3l1.2,0.4l0.1,1.1l0.5,3.4h4.5l0.5-3.5l0.2-1.1l1.1-0.4
		c1.1-0.2,1.9-0.8,2.6-1.4l1-0.7l4.2,1.6l2.3-3.9l-2.7-2l-1-0.8l0.1-1.3l0-2.4l0-0.2c-0.1-0.4-0.1-0.8-0.2-1.1l3.6-2.9l-2.2-3.8
		l-4.3,1.6l-1-0.8c-0.8-0.6-1.5-0.9-2.2-1.3l-1.2-0.4l-0.1-1.3l-0.5-3.2h-4.6l-0.2,3.4l-0.2,1.1l-1.1,0.4c-1.1,0.2-1.9,0.8-2.6,1.4
		l-1,0.7L6.4,8.8l-2.3,3.9l2.7,1.9l1,1l-0.1,1.1c-0.2,0.6-0.2,1.1-0.2,1.4c0,0.3,0.1,0.5,0.1,0.7c0,0.2,0.1,0.3,0.1,0.5l0.1,1.2
		l-3.7,2.7l2.3,3.9L10.7,25.6z M7.7,22.6l1.6-1.3l-0.2-2c0-0.3-0.1-0.5-0.1-0.8C9,18.4,9,18.3,9,18.2c0-0.3,0-0.6,0.2-1.2l0.2-2
		l-1.6-1.6l-1.7-1.2l1-1.6l3.8,1.5l1.6-1.3c0.7-0.5,1.3-1,2.1-1.1l2-0.7l0.4-2L17,4.8h1.9l0.3,2L19.4,9l2,0.7c0.6,0.3,1.3,0.7,2,1.1
		l1.6,1.3l2-0.7l2-0.8l1,1.6l-1.7,1.4l-1.4,1.1l-0.2,0v0.7l0.1-0.1c0.1,0.4,0.2,0.9,0.2,1.4l0,2.3l-0.2,2l1.6,1.3l1.7,1.2l-1,1.6
		l-3.8-1.5L23.7,25c-0.7,0.5-1.3,1-2.1,1.1l-2,0.7l-0.4,2l-0.3,2.3H17L16.7,29l-0.2-2l-2-0.7c-0.6-0.3-1.3-0.7-2-1.1L11,23.9l-2,0.7
		l-2,0.8l-1-1.6L7.7,22.6z"/>
	<path class="st0" d="M34.7,22.6c-0.1-0.2-0.2-0.3-0.3-0.4l-3.7-2.6c0-0.2,0-0.4,0.1-0.6c0-0.3,0.1-0.6,0.1-1c0-0.5,0-1.1-0.1-1.6
		l3.3-2.6c0.2-0.1,0.4-0.3,0.4-0.6c0-0.2,0-0.5-0.1-0.7l-3.3-5.8C30.9,6.3,30.5,6,30,6h-0.3l-4.1,1.6c-0.8-0.6-1.7-1.1-2.7-1.6
		l-0.6-4.3c0-0.1,0-0.2,0-0.3C22.1,1.2,21.7,1,21.3,1h-6.7c-0.4,0-1.1,0.4-1.1,0.9l-0.6,4.4c-0.8,0.3-1.5,0.8-2.2,1.2
		c-0.2,0.1-0.3,0.2-0.5,0.3l-4-1.6C6.2,6.1,6,6,5.9,6C5.4,6,5,6.3,4.8,6.7l-3.3,5.8c-0.3,0.3,0,0.9,0.4,1.3l3.4,2.6
		c0,0.2,0,0.4-0.1,0.6c0,0.3-0.1,0.6-0.1,1c0,0.5,0,1.1,0.1,1.6l-3.3,2.6c-0.5,0.2-0.5,0.9-0.3,1.3L5,29.3C5,29.7,5.4,30,5.9,30h0.3
		l4.1-1.6c0.8,0.6,1.7,1.1,2.7,1.6l0.6,4.2c0,0.4,0.4,0.9,1.1,0.9h6.7c0.7,0,1.1-0.5,1.1-0.9l0.7-4.2c0.9-0.5,1.9-0.9,2.7-1.6
		l4.1,1.6l0.4,0c0.5,0,0.7-0.3,0.9-0.6l3.4-5.9C34.7,23.2,34.8,22.8,34.7,22.6z M7,20.1l-0.3-0.8C6.6,19,6.6,18.4,6.6,18
		c0-0.3,0-0.5,0.1-0.8c0-0.3,0.1-0.6,0.1-0.9v-0.6L3,12.8l2.9-5.1l4.5,1.8l0.5-0.4c0.2-0.1,0.4-0.3,0.6-0.4c0.7-0.5,1.3-0.9,1.9-1.1
		l0.7-0.2l0.7-4.9l5.9,0l0.7,4.6l0.6,0.3c1,0.5,1.9,0.9,2.6,1.5l0.6,0.4l4.4-1.8l3,5.3l-3.9,2.9l0.3,0.8c0.1,0.3,0.1,0.9,0.1,1.3
		c0,0.3,0,0.5-0.1,0.8c0,0.3-0.1,0.6-0.1,0.9v0.6l4,2.8l-3,5.3l-4.4-1.8l-0.6,0.4c-0.7,0.6-1.7,1-2.6,1.5l-0.6,0.3l-0.7,4.6l-6.1,0
		l-0.6-4l-0.1-0.6l-0.6-0.3c-1-0.5-1.9-0.9-2.6-1.5l-0.6-0.4l-4.4,1.8l-3-5.3L7,20.1z"/>
	<path class="st0" d="M18,24.9c3.8,0,6.9-3.1,6.9-6.9c0-3.8-3.1-6.9-6.9-6.9S11,14.2,11,18C11,21.8,14.1,24.9,18,24.9z M18,12.5
		c3,0,5.5,2.5,5.5,5.5c0,3-2.5,5.5-5.5,5.5S12.5,21,12.5,18C12.5,15,14.9,12.5,18,12.5z"/>
</g>
</svg>
