<?xml version="1.0" encoding="utf-8"?>
<!-- Generator: Adobe Illustrator 24.1.2, SVG Export Plug-In . SVG Version: 6.00 Build 0)  -->
<svg version="1.1" id="Layer_1" xmlns="http://www.w3.org/2000/svg" xmlns:xlink="http://www.w3.org/1999/xlink" x="0px" y="0px"
	 viewBox="0 0 36 36" style="enable-background:new 0 0 36 36;" xml:space="preserve">
<style type="text/css">
	.st0{fill:#808080;}
</style>
<g>
	<path class="st0" d="M27.7,1H8.3C7.8,1,7.6,1.4,7.6,1.9v32.3c0,0.3,0.2,0.6,0.5,0.8C8.3,35,8.6,35,8.9,35l9.2-6.1l9.2,6.1
		c0.1,0.1,0.3,0.1,0.5,0.1c0.1,0,0.3,0,0.4-0.1c0.3-0.1,0.5-0.4,0.5-0.8V1.9C28.5,1.4,28.2,1,27.7,1z M26.9,32.6L18.4,27
		c-0.1-0.1-0.3-0.1-0.5-0.1S17.6,27,17.4,27L9,32.6V12.4h9c0.5,0,0.8-0.4,0.8-0.8c0-0.5-0.4-0.8-0.8-0.8H9.2v-4H18
		c0.5,0,0.8-0.4,0.8-0.8S18.5,5.1,18,5.1H9.2V2.7H27L26.9,32.6L26.9,32.6z"/>
</g>
</svg>
