<?xml version="1.0" encoding="utf-8"?>
<!-- Generator: Adobe Illustrator 24.1.2, SVG Export Plug-In . SVG Version: 6.00 Build 0)  -->
<svg version="1.1" id="Layer_1" xmlns="http://www.w3.org/2000/svg" xmlns:xlink="http://www.w3.org/1999/xlink" x="0px" y="0px"
	 viewBox="0 0 36 36" style="enable-background:new 0 0 36 36;" xml:space="preserve">
<style type="text/css">
	.st0{fill:#808080;}
</style>
<path class="st0" d="M35,14.6V7.8c0-1.9-1.5-3.4-3.4-3.4H4.4C2.5,4.4,1,5.9,1,7.8v6.8c1.9,0,3.4,1.5,3.4,3.4S2.9,21.4,1,21.4v6.8
	c0,1.9,1.5,3.4,3.4,3.4h27.2c1.9,0,3.4-1.5,3.4-3.4v-6.8c-1.9,0-3.4-1.5-3.4-3.4S33.1,14.6,35,14.6z M31.6,12.1
	c-2,1.2-3.4,3.4-3.4,5.9s1.4,4.7,3.4,5.9v4.3H4.4v-4.3c2-1.2,3.4-3.4,3.4-5.9c0-2.5-1.4-4.7-3.4-5.9l0-4.3h27.2V12.1z M16.3,23.1
	h3.4v3.4h-3.4V23.1z M16.3,16.3h3.4v3.4h-3.4V16.3z M16.3,9.5h3.4v3.4h-3.4V9.5z"/>
</svg>
