<svg xmlns="http://www.w3.org/2000/svg" width="20" height="20" viewBox="0 0 20 20"><defs><style>.a{fill:none;}.b,.c{fill:#207ebb;fill-rule:evenodd;}.b{opacity:0.3;}</style></defs><g transform="translate(0.333)"><rect class="a" width="20" height="20" transform="translate(-0.333)"/><g transform="translate(2.5 3.333)"><path class="b" d="M11.25,0h0A1.282,1.282,0,0,1,12.5,1.25V12.083a1.282,1.282,0,0,1-1.25,1.25h0A1.282,1.282,0,0,1,10,12.083V1.25A1.282,1.282,0,0,1,11.25,0Z" transform="translate(-1.667)"/><path class="c" d="M6.25,5h0A1.282,1.282,0,0,1,7.5,6.25v6.667a1.282,1.282,0,0,1-1.25,1.25h0A1.282,1.282,0,0,1,5,12.917V6.25A1.282,1.282,0,0,1,6.25,5Z" transform="translate(-0.833 -0.833)"/><path class="c" d="M16.25,7h0A1.282,1.282,0,0,1,17.5,8.25v5a1.282,1.282,0,0,1-1.25,1.25h0A1.282,1.282,0,0,1,15,13.25v-5A1.282,1.282,0,0,1,16.25,7Z" transform="translate(-2.5 -1.167)"/><path class="c" d="M1.25,9h0A1.282,1.282,0,0,1,2.5,10.25v3.333a1.282,1.282,0,0,1-1.25,1.25h0A1.282,1.282,0,0,1,0,13.583V10.25A1.282,1.282,0,0,1,1.25,9Z" transform="translate(0 -1.5)"/></g></g></svg>