<svg id="Component_141_64" data-name="Component 141 – 64" xmlns="http://www.w3.org/2000/svg" width="14" height="14" viewBox="0 0 14 14">
  <circle id="Oval-5" cx="7" cy="7" r="7" fill="#207ebb" opacity="0.3"/>
  <g id="Question" transform="translate(-2.2 1.98)">
    <path id="Path_354" data-name="Path 354" d="M6.2,2.766c0-3.53,6.587-3.752,6.587-.111,0,2.168-2.168,2.057-2.613,4.086A.8.8,0,1,1,8.59,6.518c0-1.918,1.584-2.057,2.279-3.28A1.326,1.326,0,0,0,9.591,1.4c-1.918,0-1.251,2.168-2.5,2.168A.9.9,0,0,1,6.2,2.766ZM9.368,10.02a1.03,1.03,0,0,1,0-2.057A1.03,1.03,0,0,1,9.368,10.02Z" transform="translate(0 0)" fill="#207ebb" fill-rule="evenodd"/>
  </g>
</svg>
