<svg xmlns="http://www.w3.org/2000/svg" width="20" height="20" viewBox="0 0 20 20"><defs><style>.a{fill:none;}.b,.c{fill:#207ebb;fill-rule:evenodd;}.c{opacity:0.3;}</style></defs><g transform="translate(-0.333)"><rect class="a" width="20" height="20" transform="translate(0.333)"/><g transform="translate(3.333 3.333)"><path class="b" d="M1.15-.1H4.483a1.282,1.282,0,0,1,1.25,1.25V4.483a1.282,1.282,0,0,1-1.25,1.25H1.15A1.282,1.282,0,0,1-.1,4.483V1.15A1.282,1.282,0,0,1,1.15-.1Z" transform="translate(0.1 0.1)"/><path class="c" d="M1.15,7.4H4.483a1.282,1.282,0,0,1,1.25,1.25v3.333a1.282,1.282,0,0,1-1.25,1.25H1.15A1.282,1.282,0,0,1-.1,11.983V8.65A1.282,1.282,0,0,1,1.15,7.4ZM8.65-.1h3.333a1.282,1.282,0,0,1,1.25,1.25V4.483a1.282,1.282,0,0,1-1.25,1.25H8.65A1.282,1.282,0,0,1,7.4,4.483V1.15A1.282,1.282,0,0,1,8.65-.1Zm0,7.5h3.333a1.282,1.282,0,0,1,1.25,1.25v3.333a1.282,1.282,0,0,1-1.25,1.25H8.65a1.282,1.282,0,0,1-1.25-1.25V8.65A1.282,1.282,0,0,1,8.65,7.4Z" transform="translate(0.1 0.1)"/></g></g></svg>