<svg xmlns="http://www.w3.org/2000/svg" width="20" height="20" viewBox="0 0 20 20"><defs><style>.a{fill:none;}.b,.c{fill:#207ebb;}.b{opacity:0.3;}</style></defs><rect class="a" width="20" height="20"/><g transform="translate(3.333 2.917)"><path class="b" d="M10.25,12.417a.825.825,0,1,1,1.167-1.167l3.333,3.333a.825.825,0,1,1-1.167,1.167Z" transform="translate(-1.667 -1.833)"/><path class="c" d="M5.833,10A4.126,4.126,0,0,0,10,5.833,4.126,4.126,0,0,0,5.833,1.667,4.126,4.126,0,0,0,1.667,5.833,4.126,4.126,0,0,0,5.833,10Zm0,1.667A5.8,5.8,0,0,1,0,5.833,5.8,5.8,0,0,1,5.833,0a5.8,5.8,0,0,1,5.833,5.833A5.8,5.8,0,0,1,5.833,11.667Z"/></g></svg>