<svg xmlns="http://www.w3.org/2000/svg" width="14.013" height="14" viewBox="0 0 14.013 14"><defs><style>.a{fill:#f5f5f5;}.b{fill:#ff4b55;}.c{fill:#41479b;}</style></defs><g transform="translate(0 -0.235)"><rect class="a" width="14" height="14" transform="translate(0 0.235)"/><g transform="translate(0 0.235)"><rect class="b" width="14.013" height="1.077" transform="translate(0 0)"/><rect class="b" width="14.013" height="1.077" transform="translate(0 4.308)"/><rect class="b" width="14.013" height="1.077" transform="translate(0 2.154)"/><rect class="b" width="14.013" height="1.077" transform="translate(0 6.461)"/><rect class="b" width="14.013" height="1.077" transform="translate(0 10.769)"/><rect class="b" width="14.013" height="1.077" transform="translate(0 12.923)"/><rect class="b" width="14.013" height="1.077" transform="translate(0 8.615)"/></g><rect class="c" width="7.538" height="7.538" transform="translate(0 0.235)"/><g transform="translate(0.651 0.781)"><path class="a" d="M24.086,20.213l.058.174h.184a.025.025,0,0,1,.015.045l-.148.109.055.175a.025.025,0,0,1-.038.028l-.149-.107-.149.107a.025.025,0,0,1-.038-.028l.055-.175-.148-.109a.025.025,0,0,1,.015-.045h.184l.058-.174A.025.025,0,0,1,24.086,20.213Z" transform="translate(-23.773 -20.196)"/><path class="a" d="M24.086,73.3l.058.174h.184a.025.025,0,0,1,.015.045l-.148.109.055.175a.025.025,0,0,1-.038.028l-.149-.107-.149.107a.025.025,0,0,1-.038-.028l.055-.175-.148-.109a.025.025,0,0,1,.015-.045h.184l.058-.174A.025.025,0,0,1,24.086,73.3Z" transform="translate(-23.773 -71.83)"/><path class="a" d="M24.086,132.179l.058.174h.184a.025.025,0,0,1,.015.045l-.148.109.055.175a.025.025,0,0,1-.038.028l-.149-.107-.149.107a.025.025,0,0,1-.038-.028l.055-.175-.148-.109a.025.025,0,0,1,.015-.045h.184l.058-.174A.025.025,0,0,1,24.086,132.179Z" transform="translate(-23.773 -129.098)"/><path class="a" d="M24.086,186.275l.058.174h.184a.025.025,0,0,1,.015.045l-.148.109.055.175a.025.025,0,0,1-.038.028l-.149-.107-.149.107a.025.025,0,0,1-.038-.028l.055-.175-.148-.109a.025.025,0,0,1,.015-.045h.184l.058-.174A.025.025,0,0,1,24.086,186.275Z" transform="translate(-23.773 -181.713)"/><path class="a" d="M24.086,235.5l.058.174h.184a.025.025,0,0,1,.015.045l-.148.109.055.175a.025.025,0,0,1-.038.028l-.149-.107-.149.107a.025.025,0,0,1-.038-.028l.055-.175-.148-.109a.025.025,0,0,1,.015-.045h.184l.058-.174A.025.025,0,0,1,24.086,235.5Z" transform="translate(-23.773 -229.592)"/><path class="a" d="M49.925,45.352l.058.174h.184a.025.025,0,0,1,.015.045l-.148.109.055.175a.025.025,0,0,1-.038.028l-.149-.107-.149.107a.025.025,0,0,1-.038-.028l.055-.175-.148-.109a.025.025,0,0,1,.015-.045h.184l.058-.174A.025.025,0,0,1,49.925,45.352Z" transform="translate(-48.904 -44.647)"/><path class="a" d="M49.925,104.231l.058.174h.184a.025.025,0,0,1,.015.045l-.148.109.055.175a.025.025,0,0,1-.038.028l-.149-.107-.149.107a.025.025,0,0,1-.038-.028l.055-.175-.148-.109a.025.025,0,0,1,.015-.045h.184l.058-.174A.025.025,0,0,1,49.925,104.231Z" transform="translate(-48.904 -101.915)"/><path class="a" d="M49.925,160.171l.058.174h.184a.025.025,0,0,1,.015.045l-.148.109.055.175a.025.025,0,0,1-.038.028L49.9,160.6l-.149.107a.025.025,0,0,1-.038-.028l.055-.175-.148-.109a.025.025,0,0,1,.015-.045h.184l.058-.174A.025.025,0,0,1,49.925,160.171Z" transform="translate(-48.904 -156.323)"/><path class="a" d="M49.925,210.405l.058.174h.184a.025.025,0,0,1,.015.045l-.148.109.055.175a.025.025,0,0,1-.038.028l-.149-.107-.149.107a.025.025,0,0,1-.038-.028l.055-.175-.148-.109a.025.025,0,0,1,.015-.045h.184l.058-.174A.025.025,0,0,1,49.925,210.405Z" transform="translate(-48.904 -205.183)"/><path class="a" d="M75.765,20.213l.058.174h.184a.025.025,0,0,1,.015.045l-.148.109.055.175a.025.025,0,0,1-.038.028l-.149-.107-.149.107a.025.025,0,0,1-.038-.028l.055-.175-.148-.109a.025.025,0,0,1,.014-.045h.184l.058-.174A.025.025,0,0,1,75.765,20.213Z" transform="translate(-74.037 -20.196)"/><path class="a" d="M75.765,73.3l.058.174h.184a.025.025,0,0,1,.015.045l-.148.109.055.175a.025.025,0,0,1-.038.028l-.149-.107-.149.107a.025.025,0,0,1-.038-.028l.055-.175-.148-.109a.025.025,0,0,1,.014-.045h.184l.058-.174A.025.025,0,0,1,75.765,73.3Z" transform="translate(-74.037 -71.83)"/><path class="a" d="M75.765,132.179l.058.174h.184a.025.025,0,0,1,.015.045l-.148.109.055.175a.025.025,0,0,1-.038.028l-.149-.107-.149.107a.025.025,0,0,1-.038-.028l.055-.175-.148-.109a.025.025,0,0,1,.014-.045h.184l.058-.174A.025.025,0,0,1,75.765,132.179Z" transform="translate(-74.037 -129.098)"/><path class="a" d="M75.767,186.275l.058.174h.184a.025.025,0,0,1,.015.045l-.148.109.055.175a.025.025,0,0,1-.038.028l-.149-.107-.149.107a.025.025,0,0,1-.038-.028l.055-.175-.148-.109a.025.025,0,0,1,.015-.045h.184l.058-.174A.025.025,0,0,1,75.767,186.275Z" transform="translate(-74.039 -181.713)"/><path class="a" d="M75.765,235.5l.058.174h.184a.025.025,0,0,1,.015.045l-.148.109.055.175a.025.025,0,0,1-.038.028l-.149-.107-.149.107a.025.025,0,0,1-.038-.028l.055-.175-.148-.109a.025.025,0,0,1,.014-.045h.184l.058-.174A.025.025,0,0,1,75.765,235.5Z" transform="translate(-74.037 -229.592)"/><path class="a" d="M101.6,45.352l.058.174h.184a.025.025,0,0,1,.015.045l-.148.109.055.175a.025.025,0,0,1-.038.028l-.149-.107-.149.107a.025.025,0,0,1-.038-.028l.055-.175-.148-.109a.025.025,0,0,1,.015-.045h.184l.058-.174A.025.025,0,0,1,101.6,45.352Z" transform="translate(-99.169 -44.647)"/><path class="a" d="M101.6,104.231l.058.174h.184a.025.025,0,0,1,.015.045l-.148.109.055.175a.025.025,0,0,1-.038.028l-.149-.107-.149.107a.025.025,0,0,1-.038-.028l.055-.175-.148-.109a.025.025,0,0,1,.015-.045h.184l.058-.174A.025.025,0,0,1,101.6,104.231Z" transform="translate(-99.169 -101.915)"/><path class="a" d="M101.6,160.171l.058.174h.184a.025.025,0,0,1,.015.045l-.148.109.055.175a.025.025,0,0,1-.038.028l-.149-.107-.149.107a.025.025,0,0,1-.038-.028l.055-.175-.148-.109a.025.025,0,0,1,.015-.045h.184l.058-.174A.025.025,0,0,1,101.6,160.171Z" transform="translate(-99.169 -156.323)"/><path class="a" d="M101.6,210.405l.058.174h.184a.025.025,0,0,1,.015.045l-.148.109.055.175a.025.025,0,0,1-.038.028l-.149-.107-.149.107a.025.025,0,0,1-.038-.028l.055-.175-.148-.109a.025.025,0,0,1,.015-.045h.184l.058-.174A.025.025,0,0,1,101.6,210.405Z" transform="translate(-99.169 -205.183)"/><path class="a" d="M127.443,20.213l.058.174h.184a.025.025,0,0,1,.015.045l-.148.109.055.175a.025.025,0,0,1-.038.028l-.149-.107-.149.107a.025.025,0,0,1-.038-.028l.055-.175-.148-.109a.025.025,0,0,1,.015-.045h.184l.058-.174A.025.025,0,0,1,127.443,20.213Z" transform="translate(-124.301 -20.196)"/><path class="a" d="M127.443,73.3l.058.174h.184a.025.025,0,0,1,.015.045l-.148.109.055.175a.025.025,0,0,1-.038.028l-.149-.107-.149.107a.025.025,0,0,1-.038-.028l.055-.175-.148-.109a.025.025,0,0,1,.015-.045h.184l.058-.174A.025.025,0,0,1,127.443,73.3Z" transform="translate(-124.301 -71.83)"/><path class="a" d="M127.443,132.179l.058.174h.184a.025.025,0,0,1,.015.045l-.148.109.055.175a.025.025,0,0,1-.038.028l-.149-.107-.149.107a.025.025,0,0,1-.038-.028l.055-.175-.148-.109a.025.025,0,0,1,.015-.045h.184l.058-.174A.025.025,0,0,1,127.443,132.179Z" transform="translate(-124.301 -129.098)"/><path class="a" d="M127.443,186.275l.058.174h.184a.025.025,0,0,1,.015.045l-.148.109.055.175a.025.025,0,0,1-.038.028l-.149-.107-.149.107a.025.025,0,0,1-.038-.028l.055-.175-.148-.109a.025.025,0,0,1,.015-.045h.184l.058-.174A.025.025,0,0,1,127.443,186.275Z" transform="translate(-124.301 -181.713)"/><path class="a" d="M127.443,235.5l.058.174h.184a.025.025,0,0,1,.015.045l-.148.109.055.175a.025.025,0,0,1-.038.028l-.149-.107-.149.107a.025.025,0,0,1-.038-.028l.055-.175-.148-.109a.025.025,0,0,1,.015-.045h.184l.058-.174A.025.025,0,0,1,127.443,235.5Z" transform="translate(-124.301 -229.592)"/><path class="a" d="M153.282,45.352l.058.174h.184a.025.025,0,0,1,.015.045l-.148.109.055.175a.025.025,0,0,1-.038.028l-.149-.107-.149.107a.025.025,0,0,1-.038-.028l.055-.175-.148-.109a.025.025,0,0,1,.014-.045h.184l.058-.174A.025.025,0,0,1,153.282,45.352Z" transform="translate(-149.433 -44.647)"/><path class="a" d="M153.282,104.231l.058.174h.184a.025.025,0,0,1,.015.045l-.148.109.055.175a.025.025,0,0,1-.038.028l-.149-.107-.149.107a.025.025,0,0,1-.038-.028l.055-.175-.148-.109a.025.025,0,0,1,.014-.045h.184l.058-.174A.025.025,0,0,1,153.282,104.231Z" transform="translate(-149.433 -101.915)"/><path class="a" d="M153.282,160.171l.058.174h.184a.025.025,0,0,1,.015.045l-.148.109.055.175a.025.025,0,0,1-.038.028l-.149-.107-.149.107a.025.025,0,0,1-.038-.028l.055-.175-.148-.109a.025.025,0,0,1,.014-.045h.184l.058-.174A.025.025,0,0,1,153.282,160.171Z" transform="translate(-149.433 -156.323)"/><path class="a" d="M153.282,210.405l.058.174h.184a.025.025,0,0,1,.015.045l-.148.109.055.175a.025.025,0,0,1-.038.028l-.149-.107-.149.107a.025.025,0,0,1-.038-.028l.055-.175-.148-.109a.025.025,0,0,1,.014-.045h.184l.058-.174A.025.025,0,0,1,153.282,210.405Z" transform="translate(-149.433 -205.183)"/><path class="a" d="M179.121,20.213l.058.174h.184a.025.025,0,0,1,.015.045l-.148.109.055.175a.025.025,0,0,1-.038.028l-.149-.107-.149.107a.025.025,0,0,1-.038-.028l.055-.175-.148-.109a.025.025,0,0,1,.015-.045h.184l.058-.174A.025.025,0,0,1,179.121,20.213Z" transform="translate(-174.564 -20.196)"/><path class="a" d="M179.121,73.3l.058.174h.184a.025.025,0,0,1,.015.045l-.148.109.055.175a.025.025,0,0,1-.038.028l-.149-.107-.149.107a.025.025,0,0,1-.038-.028l.055-.175-.148-.109a.025.025,0,0,1,.015-.045h.184l.058-.174A.025.025,0,0,1,179.121,73.3Z" transform="translate(-174.564 -71.83)"/><path class="a" d="M179.121,132.179l.058.174h.184a.025.025,0,0,1,.015.045l-.148.109.055.175a.025.025,0,0,1-.038.028l-.149-.107-.149.107a.025.025,0,0,1-.038-.028l.055-.175-.148-.109a.025.025,0,0,1,.015-.045h.184l.058-.174A.025.025,0,0,1,179.121,132.179Z" transform="translate(-174.564 -129.098)"/><path class="a" d="M179.121,186.275l.058.174h.184a.025.025,0,0,1,.015.045l-.148.109.055.175a.025.025,0,0,1-.038.028l-.149-.107-.149.107a.025.025,0,0,1-.038-.028l.055-.175-.148-.109a.025.025,0,0,1,.015-.045h.184l.058-.174A.025.025,0,0,1,179.121,186.275Z" transform="translate(-174.564 -181.713)"/><path class="a" d="M179.121,235.5l.058.174h.184a.025.025,0,0,1,.015.045l-.148.109.055.175a.025.025,0,0,1-.038.028l-.149-.107-.149.107a.025.025,0,0,1-.038-.028l.055-.175-.148-.109a.025.025,0,0,1,.015-.045h.184l.058-.174A.025.025,0,0,1,179.121,235.5Z" transform="translate(-174.564 -229.592)"/><path class="a" d="M204.961,45.352l.058.174h.184a.025.025,0,0,1,.015.045l-.148.109.055.175a.025.025,0,0,1-.038.028l-.149-.107-.149.107a.025.025,0,0,1-.038-.028l.055-.175-.148-.109a.025.025,0,0,1,.015-.045h.184l.058-.174A.025.025,0,0,1,204.961,45.352Z" transform="translate(-199.697 -44.647)"/><path class="a" d="M204.961,104.231l.058.174h.184a.025.025,0,0,1,.015.045l-.148.109.055.175a.025.025,0,0,1-.038.028l-.149-.107-.149.107a.025.025,0,0,1-.038-.028l.055-.175-.148-.109a.025.025,0,0,1,.015-.045h.184l.058-.174A.025.025,0,0,1,204.961,104.231Z" transform="translate(-199.697 -101.915)"/><path class="a" d="M204.961,160.171l.058.174h.184a.025.025,0,0,1,.015.045l-.148.109.055.175a.025.025,0,0,1-.038.028l-.149-.107-.149.107a.025.025,0,0,1-.038-.028l.055-.175-.148-.109a.025.025,0,0,1,.015-.045h.184l.058-.174A.025.025,0,0,1,204.961,160.171Z" transform="translate(-199.697 -156.323)"/><path class="a" d="M204.961,210.405l.058.174h.184a.025.025,0,0,1,.015.045l-.148.109.055.175a.025.025,0,0,1-.038.028l-.149-.107-.149.107a.025.025,0,0,1-.038-.028l.055-.175-.148-.109a.025.025,0,0,1,.015-.045h.184l.058-.174A.025.025,0,0,1,204.961,210.405Z" transform="translate(-199.697 -205.183)"/><path class="a" d="M230.8,20.213l.058.174h.184a.025.025,0,0,1,.014.045l-.148.109.055.175a.025.025,0,0,1-.038.028l-.149-.107-.149.107a.025.025,0,0,1-.038-.028l.055-.175-.148-.109a.025.025,0,0,1,.014-.045h.184l.058-.174A.025.025,0,0,1,230.8,20.213Z" transform="translate(-224.829 -20.196)"/><path class="a" d="M230.8,73.3l.058.174h.184a.025.025,0,0,1,.014.045l-.148.109.055.175a.025.025,0,0,1-.038.028l-.149-.107-.149.107a.025.025,0,0,1-.038-.028l.055-.175-.148-.109a.025.025,0,0,1,.014-.045h.184l.058-.174A.025.025,0,0,1,230.8,73.3Z" transform="translate(-224.829 -71.83)"/><path class="a" d="M230.8,132.179l.058.174h.184a.025.025,0,0,1,.014.045l-.148.109.055.175a.025.025,0,0,1-.038.028l-.149-.107-.149.107a.025.025,0,0,1-.038-.028l.055-.175-.148-.109a.025.025,0,0,1,.014-.045h.184l.058-.174A.025.025,0,0,1,230.8,132.179Z" transform="translate(-224.829 -129.098)"/><path class="a" d="M230.8,186.275l.058.174h.184a.025.025,0,0,1,.014.045l-.148.109.055.175a.025.025,0,0,1-.038.028l-.149-.107-.149.107a.025.025,0,0,1-.038-.028l.055-.175-.148-.109a.025.025,0,0,1,.014-.045h.184l.058-.174A.025.025,0,0,1,230.8,186.275Z" transform="translate(-224.829 -181.713)"/><path class="a" d="M230.8,235.5l.058.174h.184a.025.025,0,0,1,.014.045l-.148.109.055.175a.025.025,0,0,1-.038.028l-.149-.107-.149.107a.025.025,0,0,1-.038-.028l.055-.175-.148-.109a.025.025,0,0,1,.014-.045h.184l.058-.174A.025.025,0,0,1,230.8,235.5Z" transform="translate(-224.829 -229.592)"/></g></g></svg>