<?xml version="1.0" encoding="utf-8"?>
<!-- Generator: Adobe Illustrator 24.0.2, SVG Export Plug-In . SVG Version: 6.00 Build 0)  -->
<svg version="1.1" id="Layer_1" xmlns="http://www.w3.org/2000/svg" xmlns:xlink="http://www.w3.org/1999/xlink" x="0px" y="0px"
	 viewBox="0 0 36 36" style="enable-background:new 0 0 36 36;" xml:space="preserve">
<title>Artboard 19</title>
<g>
	<path d="M0.8,31.4L14.2,18L0.8,4.6c-1.1-1-1.1-2.8,0-3.8s2.8-1.1,3.8,0c0,0,0,0,0,0L18,14.2L31.4,0.8c1-1.1,2.8-1.1,3.8,0
		c1.1,1,1.1,2.8,0,3.8c0,0,0,0,0,0L21.8,18l13.4,13.4c1.1,1,1.1,2.8,0,3.8c-1,1.1-2.8,1.1-3.8,0c0,0,0,0,0,0L18,21.8L4.6,35.2
		c-1.1,1-2.8,1-3.8,0C-0.2,34.1-0.2,32.4,0.8,31.4L0.8,31.4z" fill="#207ebb"/>
</g>
</svg>
