<svg xmlns="http://www.w3.org/2000/svg" width="12.449" height="9.828" viewBox="0 0 12.449 9.828">
  <path id="Union_2" data-name="Union 2" d="M11205.268,2654.827h-.021a.255.255,0,0,1-.077-.018.273.273,0,0,1-.145-.119.392.392,0,0,1,0-.276v-9.172a.237.237,0,0,1,.242-.242h11.939a.237.237,0,0,1,.242.242v9.344a.1.1,0,0,1,0,.017.236.236,0,0,1-.241.225Zm.242-1.052,3.426-4.519a.2.2,0,0,1,.175-.1.25.25,0,0,1,.206.07l1.314,1.281,1.9-3.322a.19.19,0,0,1,.208-.138c.1.034.208.068.242.138l3.944,6.458v-8.119h-11.419Zm2.6-6.456a1.281,1.281,0,1,1,1.281,1.281A1.282,1.282,0,0,1,11208.105,2647.319Z" transform="translate(-11205 -2644.999)" fill="gray"/>
</svg>
