<svg xmlns="http://www.w3.org/2000/svg" width="24" height="18" viewBox="0 0 24 18">
  <g id="noun_schedule_587005" transform="translate(-12 -17)">
    <path id="Path_1764" data-name="Path 1764" d="M36,22.4a5.4,5.4,0,0,0-10.765-.6H12.6a.6.6,0,0,0-.214.043.5.5,0,0,0-.061.032.605.605,0,0,0-.119.08.51.51,0,0,0-.053.055.567.567,0,0,0-.077.114.533.533,0,0,0-.034.07c0,.012-.013.021-.016.032a.56.56,0,0,0-.018.137A.276.276,0,0,0,12,22.4v12a.6.6,0,0,0,.6.6h18a.6.6,0,0,0,.6-.6V27.765A5.407,5.407,0,0,0,36,22.4ZM13.2,23.521l4.438,2.959L13.2,32.319Zm5.438,3.625L21.267,28.9a.6.6,0,0,0,.666,0l2.443-1.629L29.77,33.8H13.582Zm6.741-.545,1.092-.728A5.389,5.389,0,0,0,30,27.765v4.43ZM25.235,23a5.372,5.372,0,0,0,.571,1.875l-4.206,2.8L14.582,23ZM30.6,26.6a4.2,4.2,0,1,1,4.2-4.2A4.2,4.2,0,0,1,30.6,26.6Z" fill="#207ebb"/>
    <path id="Path_1765" data-name="Path 1765" d="M43.742,23.323h-.581V21.581a.581.581,0,0,0-1.161,0V23.9a.581.581,0,0,0,.581.581h1.161a.581.581,0,1,0,0-1.161Z" transform="translate(-11.936 -1.677)" fill="#207ebb"/>
  </g>
</svg>
