<?xml version="1.0" encoding="utf-8"?>
<!-- Generator: Adobe Illustrator 24.0.2, SVG Export Plug-In . SVG Version: 6.00 Build 0)  -->
<svg version="1.1" id="Layer_1" xmlns="http://www.w3.org/2000/svg" xmlns:xlink="http://www.w3.org/1999/xlink" x="0px" y="0px"
	 viewBox="0 0 36 36" style="enable-background:new 0 0 36 36;" xml:space="preserve">
<path d="M5.1,18.4L5.1,18.4c-1.2,0.4-1.5,1.8-0.5,2.7S6.5,23,7.5,24c0,0.1,0.2,0.2,0.3,0.4c-0.1,0.1-0.3,0.2-0.3,0.3
	c-2.4,2.4-4.8,4.8-7.2,7.2c-0.6,0.6-0.6,0.9,0,1.5c0.8,0.8,1.5,1.5,2.3,2.3c0.6,0.6,0.9,0.6,1.5,0C6,33.8,7.9,31.9,9.8,30
	c0.6-0.6,1.3-1.3,2-2c0.1,0.1,0.2,0.3,0.3,0.4c1,1,2,2.1,3,3c0.6,0.6,1.5,0.6,2.1,0c0.2-0.2,0.3-0.5,0.5-0.7c0-3.7,0-7.5,0-11.2
	c0-0.4,0-0.8,0-1.2c-0.4,0-0.8,0-1.2,0C12.6,18.4,8.8,18.4,5.1,18.4z"/>
<path d="M20,17.8c3.4,0,6.8,0,10.3,0c0.7,0,1.3-0.3,1.5-0.9c0.3-0.6,0.1-1.2-0.4-1.7s-1.1-1.1-1.6-1.6c-0.6-0.6-1.1-1.1-1.7-1.7
	c0.1-0.1,0.2-0.2,0.3-0.3c2.4-2.5,4.9-4.9,7.3-7.4c0.5-0.5,0.5-0.8,0-1.3c-0.8-0.8-1.6-1.6-2.4-2.4c-0.6-0.6-0.9-0.6-1.5,0
	c-1.8,1.8-3.6,3.6-5.4,5.4C25.7,6.5,25,7.2,24.3,8c-0.1-0.1-0.2-0.2-0.3-0.3c-1-1-2-2-3-3C20.4,4,19.8,4,19.2,4.3s-0.9,0.8-0.9,1.5
	c0,3.4,0,6.8,0,10.2C18.4,17.2,19,17.8,20,17.8z"/>
</svg>
